<svg width="109" height="22" viewBox="0 0 109 22" fill="none" xmlns="http://www.w3.org/2000/svg">
<mask id="mask0_78_10033" style="mask-type:luminance" maskUnits="userSpaceOnUse" x="-1" y="0" width="110" height="22">
<path d="M108.997 0H-0.00292969V21.9017H108.997V0Z" fill="white"/>
</mask>
<g mask="url(#mask0_78_10033)">
<path d="M15.9779 10.0265C15.9135 11.9893 15.6607 12.3812 14.5566 12.3812V14.8482H14.968C17.7192 14.8482 18.3805 13.4269 18.4822 10.2689L18.5944 6.77415H21.1735V14.8482H23.8649V4.32666H16.1649L15.9779 10.0265Z" fill="#EF3124"/>
<path d="M30.5547 7.52216H28.6114V4.32666H25.92V14.8482H30.5921C33.5273 14.8482 34.573 12.9422 34.573 11.147C34.573 8.82968 33.1144 7.52066 30.5547 7.52066M30.3498 12.5293H28.6114V9.85595H30.3498C31.2848 9.85595 31.8443 10.2674 31.8443 11.1455C31.8443 12.0985 31.3027 12.5293 30.3498 12.5293Z" fill="#EF3124"/>
<path d="M43.3379 4.08287V0.176758H40.6466V4.08287C37.5633 4.34467 35.4883 6.53185 35.4883 9.57774C35.4883 12.6236 37.5633 14.8303 40.6466 15.0921V19.055H43.3379V15.0921C46.4212 14.8497 48.4962 12.6431 48.4962 9.57774C48.4962 6.5124 46.4212 4.32522 43.3379 4.08287ZM40.6466 12.5503C39.152 12.3439 38.217 11.2234 38.217 9.57924C38.217 7.93512 39.152 6.8131 40.6466 6.60815V12.5518V12.5503ZM43.3379 12.5503V6.60665C44.8324 6.8116 45.7674 7.93362 45.7674 9.57774C45.7674 11.2219 44.8324 12.3439 43.3379 12.5488" fill="#EF3124"/>
<path d="M58.5902 11.6153V8.08324C58.5902 5.5041 56.9461 3.87793 54.1799 3.87793C51.4138 3.87793 49.8071 5.59835 49.6754 7.39208H52.4041C52.4969 7.00012 52.9083 6.32691 54.1799 6.32691C55.2271 6.32691 55.8989 6.81312 55.8989 8.08324H53.2255C50.8333 8.08324 49.4121 9.33541 49.4121 11.4283C49.4121 13.5213 50.9665 15.11 53.206 15.11C54.8486 15.11 55.7612 14.3336 56.1592 13.7457C56.5137 14.4563 57.2991 14.8482 58.3269 14.8482H59.2619V12.4187C58.7757 12.4187 58.5887 12.1943 58.5887 11.6153M55.8974 10.9242C55.8974 12.139 55.0371 12.8301 53.9166 12.8301C52.9442 12.8301 52.1782 12.4756 52.1782 11.4283C52.1782 10.3811 53.019 10.233 53.7476 10.233H55.8974V10.9242Z" fill="#EF3124"/>
<path d="M70.123 5.82124H67.1145V2.85015H74.0859V0.176758H64.293V14.8482H70.1245C73.3574 14.8482 75.2079 13.2415 75.2079 10.2884C75.2079 7.50426 73.3574 5.82124 70.1245 5.82124M69.9943 12.1943H67.116V8.38093H69.9943C71.4888 8.38093 72.3311 9.07209 72.3311 10.2869C72.3311 11.5016 71.4903 12.1928 69.9943 12.1928" fill="#EF3124"/>
<path d="M85.5054 11.6153V8.08324C85.5054 5.5041 83.8612 3.87793 81.0951 3.87793C78.3289 3.87793 76.7222 5.59835 76.5906 7.39208H79.3193C79.4121 7.00012 79.8235 6.32691 81.0951 6.32691C82.1423 6.32691 82.814 6.81312 82.814 8.08324H80.1406C77.7485 8.08324 76.3273 9.33541 76.3273 11.4283C76.3273 13.5213 77.8816 15.11 80.1212 15.11C81.7638 15.11 82.6764 14.3336 83.0743 13.7457C83.4289 14.4563 84.2143 14.8482 85.2421 14.8482H86.1771V12.4187C85.6909 12.4187 85.5039 12.1943 85.5039 11.6153M82.8125 10.9242C82.8125 12.139 81.9523 12.8301 80.8318 12.8301C79.8594 12.8301 79.0934 12.4756 79.0934 11.4283C79.0934 10.3811 79.9342 10.233 80.6627 10.233H82.8125V10.9242Z" fill="#EF3124"/>
<path d="M14.3888 18.9116H-0.00292969V21.9022H14.3888V18.9116Z" fill="#EF3124"/>
<path d="M9.81006 2.19017C9.39866 0.966429 8.92592 0 7.30573 0C5.68554 0 5.18138 0.961941 4.75053 2.19017L0.296875 14.848H3.25002L4.27778 11.8395H9.95967L10.9126 14.848H14.0528L9.81006 2.19017ZM5.138 9.29776L7.15613 3.29872H7.23093L9.13686 9.29776H5.1365H5.138Z" fill="#EF3124"/>
</g>
</svg>
