<svg width="79" height="75" viewBox="0 0 79 75" fill="none" xmlns="http://www.w3.org/2000/svg">
<path fill-rule="evenodd" clip-rule="evenodd" d="M52.3411 0C53.2219 0 54.1026 0 54.9833 0C55.4111 0.0789641 55.8515 0.120904 56.3045 0.12582C67.2256 1.24522 74.3243 7.03294 77.5994 17.4889C77.819 18.2813 78.0178 19.0781 78.1971 19.8795C78.1889 20.2269 78.231 20.5625 78.3229 20.8861C78.321 21.0282 78.2996 21.1644 78.26 21.295C78.3267 21.3697 78.411 21.4012 78.5116 21.3893C78.5116 21.4732 78.5116 21.5571 78.5116 21.641C78.5487 21.9543 78.5802 22.2689 78.606 22.5846C78.6305 22.7484 78.6827 22.8953 78.7633 23.025C78.7633 23.0669 78.7633 23.1088 78.7633 23.1508C78.7752 23.4871 78.796 23.8226 78.8262 24.1574C78.8161 24.6251 78.8161 25.0864 78.8262 25.5414C78.7633 25.7092 78.7003 25.8769 78.6374 26.0447C78.7186 27.0933 78.74 28.1418 78.7003 29.1901C78.7633 29.1901 78.8262 29.1901 78.8891 29.1901C78.8419 29.65 78.8211 30.1113 78.8262 30.5742C78.8155 31.0684 78.7739 31.5507 78.7003 32.0211C78.6613 32.0281 78.6299 32.049 78.606 32.084C78.5796 32.4624 78.5481 32.8399 78.5116 33.2164C78.4367 34.0238 78.3109 34.8206 78.1342 35.6069C78.0222 35.796 77.9593 36.0057 77.9454 36.236C77.3371 39.128 76.2783 41.8331 74.7685 44.3514C74.4583 44.9778 74.1545 45.6069 73.8563 46.2387C73.4788 46.8258 73.1328 47.4339 72.8183 48.0631C69.7533 52.6605 66.1574 56.8231 62.0292 60.5507C56.1338 65.7848 49.6541 70.157 42.5901 73.6674C42.4441 73.6504 42.3183 73.6925 42.2127 73.7932C42.1497 73.7511 42.0868 73.7095 42.0239 73.6674C41.723 73.7259 41.4503 73.8303 41.2061 73.9819C41.217 73.8335 41.238 73.6869 41.269 73.5416C41.3352 73.551 41.3981 73.5403 41.4577 73.5101C41.4368 73.4893 41.4158 73.468 41.3948 73.4472C41.4626 73.405 41.5046 73.3421 41.5206 73.2585C41.4629 73.127 41.4209 72.9911 41.3948 72.8496C42.0702 71.3523 42.7937 69.884 43.5652 68.4459C43.646 68.181 43.7404 67.9294 43.8483 67.6909C43.9492 67.6413 43.9912 67.5576 43.9741 67.4393C44.037 67.4393 44.0999 67.4393 44.1629 67.4393C44.1423 67.3141 44.1213 67.1883 44.0999 67.0619C44.1553 66.8542 44.1972 66.6448 44.2258 66.4328C44.2225 66.2818 44.2434 66.1346 44.2887 65.9924C44.3698 65.9572 44.4222 65.8942 44.446 65.8037C44.5728 65.0758 44.6463 64.3416 44.6661 63.6018C44.7489 62.4066 44.7489 61.2113 44.6661 60.016C44.6583 59.5181 44.5954 59.0358 44.4774 58.569C44.4333 58.042 44.3704 57.5177 44.2887 56.9963C44.2943 56.8294 44.2524 56.6827 44.1629 56.5559C43.9527 55.2952 43.6487 54.058 43.2507 52.8442C42.3714 50.8971 41.3754 49.0098 40.2625 47.1824C40.2625 47.1614 40.2625 47.1404 40.2625 47.1194C40.4916 46.8124 40.7642 46.5398 41.0803 46.3016C41.221 46.2419 41.3678 46.2 41.5206 46.1758C41.5274 46.0322 41.5798 45.9064 41.6779 45.7983C41.8921 45.6787 42.0494 45.5109 42.1497 45.2951C42.4573 44.9242 42.7928 44.5678 43.1563 44.2256C43.3793 43.8552 43.6518 43.5197 43.9741 43.219C44.1698 42.8413 44.4215 42.5058 44.729 42.2125C44.9525 41.8103 45.2146 41.4328 45.5154 41.0801C45.8155 40.5428 46.0986 39.9976 46.3647 39.4444C46.5013 39.2548 46.6376 39.066 46.7736 38.8783C47.1617 37.8836 47.623 36.919 48.1576 35.9844C48.3464 35.3971 48.5351 34.81 48.7238 34.2229C48.9117 32.6743 48.9326 31.1225 48.7867 29.5676C48.6559 28.4663 48.4566 27.3759 48.1891 26.2963C48.1491 26.2041 48.0967 26.1202 48.0318 26.0447C47.3682 23.2904 46.1205 20.8789 44.2887 18.81C44.079 18.5584 43.8483 18.3277 43.5967 18.118C42.2407 16.8454 40.7938 15.6921 39.2559 14.658C38.9575 14.52 38.6849 14.3417 38.4381 14.1233C37.8134 13.8008 37.2052 13.4653 36.6137 13.1167C36.3137 13.0842 36.062 12.9584 35.8588 12.7392C35.3549 12.5292 34.8516 12.3194 34.3489 12.1101C33.39 11.837 32.4254 11.5959 31.4551 11.3867C31.7685 10.8445 32.1145 10.3202 32.4931 9.81393C35.17 6.54224 38.3888 3.95243 42.1497 2.04457C43.3084 1.47309 44.5247 1.08514 45.7985 0.880737C46.3308 0.83733 46.8341 0.732478 47.3083 0.566188C47.8324 0.518072 48.3566 0.465646 48.8811 0.408914C48.9718 0.385212 49.0347 0.332787 49.0698 0.251639C49.1537 0.251639 49.2376 0.251639 49.3215 0.251639C49.6718 0.259438 50.0073 0.217499 50.328 0.12582C50.4329 0.12582 50.5377 0.12582 50.6426 0.12582C51.2224 0.142429 51.7886 0.10049 52.3411 0Z" fill="#ED5F79"/>
<path fill-rule="evenodd" clip-rule="evenodd" d="M31.392 11.3866C29.4724 14.8905 28.382 18.6442 28.1207 22.6474C27.9677 23.9786 27.9573 25.3207 28.0892 26.6737C28.1024 26.7717 28.1339 26.8555 28.1836 26.9253C28.1732 27.1152 28.1837 27.3039 28.215 27.4915C29.3079 31.6691 31.1533 35.4646 33.7511 38.8782C34.9652 40.2392 36.2024 41.5812 37.4628 42.9044C38.4286 44.2919 39.3618 45.6968 40.2623 47.1194C40.2623 47.1403 40.2623 47.1613 40.2623 47.1823C40.2158 47.174 40.1738 47.1845 40.1365 47.2137C39.5119 47.9009 38.9353 48.6244 38.4064 49.3841C37.856 50.2123 37.2898 51.0301 36.7079 51.8376C35.8053 53.2451 34.9875 54.6921 34.2544 56.1784C33.2367 59.0239 32.7963 61.9597 32.9333 64.9857C33.0421 66.4396 33.3566 67.8444 33.8769 69.2007C34.9254 71.0037 35.9424 72.8281 36.9281 74.6739C36.9071 74.6946 36.8861 74.716 36.8651 74.7368C28.3204 71.1691 20.5615 66.3779 13.5885 60.3619C11.8075 58.7431 10.1194 57.034 8.52428 55.2347C7.1229 53.5609 5.84372 51.7995 4.68678 49.9503C4.30633 49.1266 3.845 48.3506 3.30276 47.6226C2.14499 45.4495 1.28522 43.1638 0.723463 40.7655C0.383626 39.1149 0.142472 37.4583 0 35.7956C0 34.6003 0 33.405 0 32.2097C0.394607 27.4073 1.99881 23.0665 4.8126 19.1874C4.87622 19.1348 4.94961 19.1138 5.03278 19.1245C5.02293 19.0381 5.03341 18.9542 5.06424 18.8729C5.25297 18.6422 5.4417 18.4115 5.63043 18.1808C6.8047 16.8853 8.1153 15.7425 9.56229 14.7523C13.3533 12.4145 17.4844 11.1143 21.9555 10.8519C25.1238 10.6695 28.2693 10.8478 31.392 11.3866Z" fill="#61A9EB"/>
<path fill-rule="evenodd" clip-rule="evenodd" d="M31.3926 11.3867C31.4135 11.3867 31.4345 11.3867 31.4555 11.3867C32.4258 11.596 33.3904 11.8371 34.3493 12.1102C34.852 12.3195 35.3553 12.5292 35.8592 12.7393C36.0624 12.9585 36.3141 13.0843 36.6141 13.1167C37.2056 13.4653 37.8138 13.8008 38.4385 14.1233C38.6853 14.3418 38.9579 14.52 39.2563 14.658C40.7942 15.6921 42.2411 16.8455 43.5971 18.1181C43.7649 18.4117 43.9955 18.6423 44.2891 18.8101C46.121 20.8789 47.3686 23.2904 48.0322 26.0447C48.0971 26.1202 48.1495 26.2041 48.1895 26.2963C48.4571 27.3759 48.6563 28.4664 48.7871 29.5676C48.933 31.1226 48.9121 32.6744 48.7242 34.223C48.5355 34.81 48.3468 35.3972 48.158 35.9844C47.6234 36.919 47.1621 37.8836 46.774 38.8783C46.638 39.0661 46.5017 39.2548 46.3651 39.4445C46.099 39.9976 45.8159 40.5428 45.5158 41.0801C45.2151 41.4329 44.9529 41.8103 44.7295 42.2125C44.4219 42.5058 44.1703 42.8413 43.9745 43.2191C43.6523 43.5198 43.3797 43.8553 43.1567 44.2256C42.7932 44.5678 42.4577 44.9242 42.1502 45.2951C41.7468 45.594 41.3903 45.9295 41.0807 46.3017C40.7646 46.5398 40.492 46.8124 40.2629 47.1195C39.3624 45.697 38.4292 44.292 37.4634 42.9045C36.203 41.5813 34.9658 40.2393 33.7517 38.8783C31.1539 35.4648 29.3085 31.6692 28.2156 27.4916C28.1843 27.304 28.1738 27.1153 28.1842 26.9254C28.1246 25.5008 28.1037 24.0749 28.1213 22.6476C28.3826 18.6443 29.473 14.8907 31.3926 11.3867Z" fill="#C39BBE"/>
</svg>
