<svg width="140" height="140" viewBox="0 0 140 140" fill="none" xmlns="http://www.w3.org/2000/svg">
<path d="M24.138 123.103C24.138 119.104 20.896 115.862 16.8967 115.862C12.8973 115.862 9.65527 119.104 9.65527 123.103C9.65527 127.103 12.8973 130.345 16.8967 130.345C20.896 130.345 24.138 127.103 24.138 123.103Z" fill="black" fill-opacity="0.7"/>
<path d="M12.069 140H21.7241C24.925 140 27.9948 138.728 30.2582 136.465C32.5216 134.202 33.7931 131.132 33.7931 127.931V118.276C33.7931 115.075 32.5216 112.005 30.2582 109.742C27.9948 107.478 24.925 106.207 21.7241 106.207H12.069C8.86808 106.207 5.79829 107.478 3.53491 109.742C1.27154 112.005 0 115.075 0 118.276L0 127.931C0 131.132 1.27154 134.202 3.53491 136.465C5.79829 138.728 8.86808 140 12.069 140ZM4.82759 127.931L4.82759 118.276C4.82759 116.355 5.59052 114.513 6.94854 113.155C8.30656 111.797 10.1484 111.034 12.069 111.034H21.7241C23.6447 111.034 25.4865 111.797 26.8446 113.155C28.2026 114.513 28.9655 116.355 28.9655 118.276L28.9655 127.931C28.9655 129.852 28.2026 131.693 26.8446 133.051C25.4865 134.409 23.6447 135.172 21.7241 135.172H12.069C10.1484 135.172 8.30656 134.409 6.94854 133.051C5.59052 131.693 4.82759 129.852 4.82759 127.931Z" fill="black" fill-opacity="0.7"/>
<path d="M115.862 16.8967C115.862 20.896 119.104 24.138 123.103 24.138C127.103 24.138 130.345 20.896 130.345 16.8967C130.345 12.8973 127.103 9.65527 123.103 9.65527C119.104 9.65527 115.862 12.8973 115.862 16.8967Z" fill="black" fill-opacity="0.7"/>
<path d="M127.931 0L118.276 0C115.075 0 112.005 1.27154 109.742 3.53491C107.478 5.79829 106.207 8.86808 106.207 12.069V21.7241C106.207 24.925 107.478 27.9948 109.742 30.2582C112.005 32.5216 115.075 33.7931 118.276 33.7931H127.931C131.132 33.7931 134.202 32.5216 136.465 30.2582C138.728 27.9948 140 24.925 140 21.7241V12.069C140 8.86808 138.728 5.79829 136.465 3.53491C134.202 1.27154 131.132 0 127.931 0ZM135.172 12.069V21.7241C135.172 23.6447 134.409 25.4865 133.051 26.8446C131.693 28.2026 129.852 28.9655 127.931 28.9655L118.276 28.9655C116.355 28.9655 114.513 28.2026 113.155 26.8446C111.797 25.4865 111.034 23.6447 111.034 21.7241V12.069C111.034 10.1484 111.797 8.30656 113.155 6.94854C114.513 5.59052 116.355 4.82759 118.276 4.82759L127.931 4.82759C129.852 4.82759 131.693 5.59052 133.051 6.94854C134.409 8.30656 135.172 10.1484 135.172 12.069Z" fill="black" fill-opacity="0.7"/>
<path d="M16.8967 24.138C20.896 24.138 24.138 20.896 24.138 16.8967C24.138 12.8973 20.896 9.65527 16.8967 9.65527C12.8973 9.65527 9.65527 12.8973 9.65527 16.8967C9.65527 20.896 12.8973 24.138 16.8967 24.138Z" fill="black" fill-opacity="0.7"/>
<path d="M0 12.069V21.7241C0 24.925 1.27155 27.9948 3.53492 30.2582C5.79829 32.5216 8.86808 33.7931 12.069 33.7931H21.7241C24.925 33.7931 27.9948 32.5216 30.2582 30.2582C32.5216 27.9948 33.7931 24.925 33.7931 21.7241V12.069C33.7931 8.86808 32.5216 5.79829 30.2582 3.53492C27.9948 1.27155 24.925 0 21.7241 0H12.069C8.86808 0 5.79829 1.27155 3.53492 3.53492C1.27155 5.79829 0 8.86808 0 12.069ZM12.069 4.82759H21.7241C23.6447 4.82759 25.4865 5.59052 26.8446 6.94854C28.2026 8.30656 28.9655 10.1484 28.9655 12.069V21.7241C28.9655 23.6447 28.2026 25.4865 26.8446 26.8446C25.4865 28.2026 23.6447 28.9655 21.7241 28.9655H12.069C10.1484 28.9655 8.30656 28.2026 6.94854 26.8446C5.59052 25.4865 4.82759 23.6447 4.82759 21.7241V12.069C4.82759 10.1484 5.59052 8.30656 6.94854 6.94854C8.30656 5.59052 10.1484 4.82759 12.069 4.82759Z" fill="black" fill-opacity="0.7"/>
<path d="M41.0344 4.82759C42.3675 4.82759 43.4482 3.74689 43.4482 2.41379C43.4482 1.08069 42.3675 0 41.0344 0C39.7013 0 38.6206 1.08069 38.6206 2.41379C38.6206 3.74689 39.7013 4.82759 41.0344 4.82759Z" fill="black" fill-opacity="0.7"/>
<path d="M45.862 4.82759C47.1951 4.82759 48.2758 3.74689 48.2758 2.41379C48.2758 1.08069 47.1951 0 45.862 0C44.5289 0 43.4482 1.08069 43.4482 2.41379C43.4482 3.74689 44.5289 4.82759 45.862 4.82759Z" fill="black" fill-opacity="0.7"/>
<path d="M65.1726 4.82759C66.5057 4.82759 67.5864 3.74689 67.5864 2.41379C67.5864 1.08069 66.5057 0 65.1726 0C63.8395 0 62.7588 1.08069 62.7588 2.41379C62.7588 3.74689 63.8395 4.82759 65.1726 4.82759Z" fill="black" fill-opacity="0.7"/>
<path d="M74.8274 4.82759C76.1605 4.82759 77.2412 3.74689 77.2412 2.41379C77.2412 1.08069 76.1605 0 74.8274 0C73.4943 0 72.4136 1.08069 72.4136 2.41379C72.4136 3.74689 73.4943 4.82759 74.8274 4.82759Z" fill="black" fill-opacity="0.7"/>
<path d="M89.3103 4.82759C90.6434 4.82759 91.7241 3.74689 91.7241 2.41379C91.7241 1.08069 90.6434 0 89.3103 0C87.9772 0 86.8965 1.08069 86.8965 2.41379C86.8965 3.74689 87.9772 4.82759 89.3103 4.82759Z" fill="black" fill-opacity="0.7"/>
<path d="M94.1379 4.82759C95.471 4.82759 96.5517 3.74689 96.5517 2.41379C96.5517 1.08069 95.471 0 94.1379 0C92.8048 0 91.7241 1.08069 91.7241 2.41379C91.7241 3.74689 92.8048 4.82759 94.1379 4.82759Z" fill="black" fill-opacity="0.7"/>
<path d="M41.0344 9.65473C42.3675 9.65473 43.4482 8.57404 43.4482 7.24094C43.4482 5.90784 42.3675 4.82715 41.0344 4.82715C39.7013 4.82715 38.6206 5.90784 38.6206 7.24094C38.6206 8.57404 39.7013 9.65473 41.0344 9.65473Z" fill="black" fill-opacity="0.7"/>
<path d="M45.862 9.65473C47.1951 9.65473 48.2758 8.57404 48.2758 7.24094C48.2758 5.90784 47.1951 4.82715 45.862 4.82715C44.5289 4.82715 43.4482 5.90784 43.4482 7.24094C43.4482 8.57404 44.5289 9.65473 45.862 9.65473Z" fill="black" fill-opacity="0.7"/>
<path d="M50.6897 9.65473C52.0228 9.65473 53.1035 8.57404 53.1035 7.24094C53.1035 5.90784 52.0228 4.82715 50.6897 4.82715C49.3566 4.82715 48.2759 5.90784 48.2759 7.24094C48.2759 8.57404 49.3566 9.65473 50.6897 9.65473Z" fill="black" fill-opacity="0.7"/>
<path d="M55.5173 9.65473C56.8504 9.65473 57.9311 8.57404 57.9311 7.24094C57.9311 5.90784 56.8504 4.82715 55.5173 4.82715C54.1842 4.82715 53.1035 5.90784 53.1035 7.24094C53.1035 8.57404 54.1842 9.65473 55.5173 9.65473Z" fill="black" fill-opacity="0.7"/>
<path d="M65.1726 9.65473C66.5057 9.65473 67.5864 8.57404 67.5864 7.24094C67.5864 5.90784 66.5057 4.82715 65.1726 4.82715C63.8395 4.82715 62.7588 5.90784 62.7588 7.24094C62.7588 8.57404 63.8395 9.65473 65.1726 9.65473Z" fill="black" fill-opacity="0.7"/>
<path d="M69.9997 9.65473C71.3328 9.65473 72.4135 8.57404 72.4135 7.24094C72.4135 5.90784 71.3328 4.82715 69.9997 4.82715C68.6666 4.82715 67.5859 5.90784 67.5859 7.24094C67.5859 8.57404 68.6666 9.65473 69.9997 9.65473Z" fill="black" fill-opacity="0.7"/>
<path d="M84.4826 9.65473C85.8157 9.65473 86.8964 8.57404 86.8964 7.24094C86.8964 5.90784 85.8157 4.82715 84.4826 4.82715C83.1495 4.82715 82.0688 5.90784 82.0688 7.24094C82.0688 8.57404 83.1495 9.65473 84.4826 9.65473Z" fill="black" fill-opacity="0.7"/>
<path d="M94.1379 9.65473C95.471 9.65473 96.5517 8.57404 96.5517 7.24094C96.5517 5.90784 95.471 4.82715 94.1379 4.82715C92.8048 4.82715 91.7241 5.90784 91.7241 7.24094C91.7241 8.57404 92.8048 9.65473 94.1379 9.65473Z" fill="black" fill-opacity="0.7"/>
<path d="M55.5173 14.4829C56.8504 14.4829 57.9311 13.4022 57.9311 12.0691C57.9311 10.736 56.8504 9.65527 55.5173 9.65527C54.1842 9.65527 53.1035 10.736 53.1035 12.0691C53.1035 13.4022 54.1842 14.4829 55.5173 14.4829Z" fill="black" fill-opacity="0.7"/>
<path d="M60.3449 14.4829C61.678 14.4829 62.7587 13.4022 62.7587 12.0691C62.7587 10.736 61.678 9.65527 60.3449 9.65527C59.0118 9.65527 57.9312 10.736 57.9312 12.0691C57.9312 13.4022 59.0118 14.4829 60.3449 14.4829Z" fill="black" fill-opacity="0.7"/>
<path d="M65.1726 14.4829C66.5057 14.4829 67.5864 13.4022 67.5864 12.0691C67.5864 10.736 66.5057 9.65527 65.1726 9.65527C63.8395 9.65527 62.7588 10.736 62.7588 12.0691C62.7588 13.4022 63.8395 14.4829 65.1726 14.4829Z" fill="black" fill-opacity="0.7"/>
<path d="M89.3103 14.4829C90.6434 14.4829 91.7241 13.4022 91.7241 12.0691C91.7241 10.736 90.6434 9.65527 89.3103 9.65527C87.9772 9.65527 86.8965 10.736 86.8965 12.0691C86.8965 13.4022 87.9772 14.4829 89.3103 14.4829Z" fill="black" fill-opacity="0.7"/>
<path d="M94.1379 14.4829C95.471 14.4829 96.5517 13.4022 96.5517 12.0691C96.5517 10.736 95.471 9.65527 94.1379 9.65527C92.8048 9.65527 91.7241 10.736 91.7241 12.0691C91.7241 13.4022 92.8048 14.4829 94.1379 14.4829Z" fill="black" fill-opacity="0.7"/>
<path d="M98.9656 14.4829C100.299 14.4829 101.379 13.4022 101.379 12.0691C101.379 10.736 100.299 9.65527 98.9656 9.65527C97.6324 9.65527 96.5518 10.736 96.5518 12.0691C96.5518 13.4022 97.6324 14.4829 98.9656 14.4829Z" fill="black" fill-opacity="0.7"/>
<path d="M45.862 19.31C47.1951 19.31 48.2758 18.2293 48.2758 16.8962C48.2758 15.5631 47.1951 14.4824 45.862 14.4824C44.5289 14.4824 43.4482 15.5631 43.4482 16.8962C43.4482 18.2293 44.5289 19.31 45.862 19.31Z" fill="black" fill-opacity="0.7"/>
<path d="M50.6897 19.31C52.0228 19.31 53.1035 18.2293 53.1035 16.8962C53.1035 15.5631 52.0228 14.4824 50.6897 14.4824C49.3566 14.4824 48.2759 15.5631 48.2759 16.8962C48.2759 18.2293 49.3566 19.31 50.6897 19.31Z" fill="black" fill-opacity="0.7"/>
<path d="M55.5173 19.31C56.8504 19.31 57.9311 18.2293 57.9311 16.8962C57.9311 15.5631 56.8504 14.4824 55.5173 14.4824C54.1842 14.4824 53.1035 15.5631 53.1035 16.8962C53.1035 18.2293 54.1842 19.31 55.5173 19.31Z" fill="black" fill-opacity="0.7"/>
<path d="M65.1726 19.31C66.5057 19.31 67.5864 18.2293 67.5864 16.8962C67.5864 15.5631 66.5057 14.4824 65.1726 14.4824C63.8395 14.4824 62.7588 15.5631 62.7588 16.8962C62.7588 18.2293 63.8395 19.31 65.1726 19.31Z" fill="black" fill-opacity="0.7"/>
<path d="M69.9997 19.31C71.3328 19.31 72.4135 18.2293 72.4135 16.8962C72.4135 15.5631 71.3328 14.4824 69.9997 14.4824C68.6666 14.4824 67.5859 15.5631 67.5859 16.8962C67.5859 18.2293 68.6666 19.31 69.9997 19.31Z" fill="black" fill-opacity="0.7"/>
<path d="M74.8279 19.31C76.161 19.31 77.2416 18.2293 77.2416 16.8962C77.2416 15.5631 76.161 14.4824 74.8279 14.4824C73.4948 14.4824 72.4141 15.5631 72.4141 16.8962C72.4141 18.2293 73.4948 19.31 74.8279 19.31Z" fill="black" fill-opacity="0.7"/>
<path d="M79.655 19.31C80.9881 19.31 82.0688 18.2293 82.0688 16.8962C82.0688 15.5631 80.9881 14.4824 79.655 14.4824C78.3219 14.4824 77.2412 15.5631 77.2412 16.8962C77.2412 18.2293 78.3219 19.31 79.655 19.31Z" fill="black" fill-opacity="0.7"/>
<path d="M84.4826 19.31C85.8157 19.31 86.8964 18.2293 86.8964 16.8962C86.8964 15.5631 85.8157 14.4824 84.4826 14.4824C83.1495 14.4824 82.0688 15.5631 82.0688 16.8962C82.0688 18.2293 83.1495 19.31 84.4826 19.31Z" fill="black" fill-opacity="0.7"/>
<path d="M94.1379 19.31C95.471 19.31 96.5517 18.2293 96.5517 16.8962C96.5517 15.5631 95.471 14.4824 94.1379 14.4824C92.8048 14.4824 91.7241 15.5631 91.7241 16.8962C91.7241 18.2293 92.8048 19.31 94.1379 19.31Z" fill="black" fill-opacity="0.7"/>
<path d="M98.9656 19.31C100.299 19.31 101.379 18.2293 101.379 16.8962C101.379 15.5631 100.299 14.4824 98.9656 14.4824C97.6324 14.4824 96.5518 15.5631 96.5518 16.8962C96.5518 18.2293 97.6324 19.31 98.9656 19.31Z" fill="black" fill-opacity="0.7"/>
<path d="M45.862 24.1381C47.1951 24.1381 48.2758 23.0574 48.2758 21.7243C48.2758 20.3912 47.1951 19.3105 45.862 19.3105C44.5289 19.3105 43.4482 20.3912 43.4482 21.7243C43.4482 23.0574 44.5289 24.1381 45.862 24.1381Z" fill="black" fill-opacity="0.7"/>
<path d="M50.6897 24.1381C52.0228 24.1381 53.1035 23.0574 53.1035 21.7243C53.1035 20.3912 52.0228 19.3105 50.6897 19.3105C49.3566 19.3105 48.2759 20.3912 48.2759 21.7243C48.2759 23.0574 49.3566 24.1381 50.6897 24.1381Z" fill="black" fill-opacity="0.7"/>
<path d="M60.3449 24.1381C61.678 24.1381 62.7587 23.0574 62.7587 21.7243C62.7587 20.3912 61.678 19.3105 60.3449 19.3105C59.0118 19.3105 57.9312 20.3912 57.9312 21.7243C57.9312 23.0574 59.0118 24.1381 60.3449 24.1381Z" fill="black" fill-opacity="0.7"/>
<path d="M65.1726 24.1381C66.5057 24.1381 67.5864 23.0574 67.5864 21.7243C67.5864 20.3912 66.5057 19.3105 65.1726 19.3105C63.8395 19.3105 62.7588 20.3912 62.7588 21.7243C62.7588 23.0574 63.8395 24.1381 65.1726 24.1381Z" fill="black" fill-opacity="0.7"/>
<path d="M70.0002 24.1381C71.3333 24.1381 72.414 23.0574 72.414 21.7243C72.414 20.3912 71.3333 19.3105 70.0002 19.3105C68.6671 19.3105 67.5864 20.3912 67.5864 21.7243C67.5864 23.0574 68.6671 24.1381 70.0002 24.1381Z" fill="black" fill-opacity="0.7"/>
<path d="M79.655 24.1381C80.9881 24.1381 82.0688 23.0574 82.0688 21.7243C82.0688 20.3912 80.9881 19.3105 79.655 19.3105C78.3219 19.3105 77.2412 20.3912 77.2412 21.7243C77.2412 23.0574 78.3219 24.1381 79.655 24.1381Z" fill="black" fill-opacity="0.7"/>
<path d="M94.1379 24.1381C95.471 24.1381 96.5517 23.0574 96.5517 21.7243C96.5517 20.3912 95.471 19.3105 94.1379 19.3105C92.8048 19.3105 91.7241 20.3912 91.7241 21.7243C91.7241 23.0574 92.8048 24.1381 94.1379 24.1381Z" fill="black" fill-opacity="0.7"/>
<path d="M50.6897 28.9653C52.0228 28.9653 53.1035 27.8846 53.1035 26.5515C53.1035 25.2184 52.0228 24.1377 50.6897 24.1377C49.3566 24.1377 48.2759 25.2184 48.2759 26.5515C48.2759 27.8846 49.3566 28.9653 50.6897 28.9653Z" fill="black" fill-opacity="0.7"/>
<path d="M65.1726 28.9653C66.5057 28.9653 67.5864 27.8846 67.5864 26.5515C67.5864 25.2184 66.5057 24.1377 65.1726 24.1377C63.8395 24.1377 62.7588 25.2184 62.7588 26.5515C62.7588 27.8846 63.8395 28.9653 65.1726 28.9653Z" fill="black" fill-opacity="0.7"/>
<path d="M74.8279 28.9653C76.161 28.9653 77.2416 27.8846 77.2416 26.5515C77.2416 25.2184 76.161 24.1377 74.8279 24.1377C73.4948 24.1377 72.4141 25.2184 72.4141 26.5515C72.4141 27.8846 73.4948 28.9653 74.8279 28.9653Z" fill="black" fill-opacity="0.7"/>
<path d="M89.3103 28.9653C90.6434 28.9653 91.7241 27.8846 91.7241 26.5515C91.7241 25.2184 90.6434 24.1377 89.3103 24.1377C87.9772 24.1377 86.8965 25.2184 86.8965 26.5515C86.8965 27.8846 87.9772 28.9653 89.3103 28.9653Z" fill="black" fill-opacity="0.7"/>
<path d="M98.9656 28.9653C100.299 28.9653 101.379 27.8846 101.379 26.5515C101.379 25.2184 100.299 24.1377 98.9656 24.1377C97.6324 24.1377 96.5518 25.2184 96.5518 26.5515C96.5518 27.8846 97.6324 28.9653 98.9656 28.9653Z" fill="black" fill-opacity="0.7"/>
<path d="M41.0344 33.7934C42.3675 33.7934 43.4482 32.7127 43.4482 31.3796C43.4482 30.0465 42.3675 28.9658 41.0344 28.9658C39.7013 28.9658 38.6206 30.0465 38.6206 31.3796C38.6206 32.7127 39.7013 33.7934 41.0344 33.7934Z" fill="black" fill-opacity="0.7"/>
<path d="M50.6897 33.7934C52.0228 33.7934 53.1035 32.7127 53.1035 31.3796C53.1035 30.0465 52.0228 28.9658 50.6897 28.9658C49.3566 28.9658 48.2759 30.0465 48.2759 31.3796C48.2759 32.7127 49.3566 33.7934 50.6897 33.7934Z" fill="black" fill-opacity="0.7"/>
<path d="M60.3449 33.7934C61.678 33.7934 62.7587 32.7127 62.7587 31.3796C62.7587 30.0465 61.678 28.9658 60.3449 28.9658C59.0118 28.9658 57.9312 30.0465 57.9312 31.3796C57.9312 32.7127 59.0118 33.7934 60.3449 33.7934Z" fill="black" fill-opacity="0.7"/>
<path d="M70.0002 33.7934C71.3333 33.7934 72.414 32.7127 72.414 31.3796C72.414 30.0465 71.3333 28.9658 70.0002 28.9658C68.6671 28.9658 67.5864 30.0465 67.5864 31.3796C67.5864 32.7127 68.6671 33.7934 70.0002 33.7934Z" fill="black" fill-opacity="0.7"/>
<path d="M79.655 33.7934C80.9881 33.7934 82.0688 32.7127 82.0688 31.3796C82.0688 30.0465 80.9881 28.9658 79.655 28.9658C78.3219 28.9658 77.2412 30.0465 77.2412 31.3796C77.2412 32.7127 78.3219 33.7934 79.655 33.7934Z" fill="black" fill-opacity="0.7"/>
<path d="M89.3103 33.7934C90.6434 33.7934 91.7241 32.7127 91.7241 31.3796C91.7241 30.0465 90.6434 28.9658 89.3103 28.9658C87.9772 28.9658 86.8965 30.0465 86.8965 31.3796C86.8965 32.7127 87.9772 33.7934 89.3103 33.7934Z" fill="black" fill-opacity="0.7"/>
<path d="M98.9656 33.7934C100.299 33.7934 101.379 32.7127 101.379 31.3796C101.379 30.0465 100.299 28.9658 98.9656 28.9658C97.6324 28.9658 96.5518 30.0465 96.5518 31.3796C96.5518 32.7127 97.6324 33.7934 98.9656 33.7934Z" fill="black" fill-opacity="0.7"/>
<path d="M45.862 38.6206C47.1951 38.6206 48.2758 37.5399 48.2758 36.2068C48.2758 34.8737 47.1951 33.793 45.862 33.793C44.5289 33.793 43.4482 34.8737 43.4482 36.2068C43.4482 37.5399 44.5289 38.6206 45.862 38.6206Z" fill="black" fill-opacity="0.7"/>
<path d="M55.5173 38.6206C56.8504 38.6206 57.9311 37.5399 57.9311 36.2068C57.9311 34.8737 56.8504 33.793 55.5173 33.793C54.1842 33.793 53.1035 34.8737 53.1035 36.2068C53.1035 37.5399 54.1842 38.6206 55.5173 38.6206Z" fill="black" fill-opacity="0.7"/>
<path d="M79.655 38.6206C80.9881 38.6206 82.0688 37.5399 82.0688 36.2068C82.0688 34.8737 80.9881 33.793 79.655 33.793C78.3219 33.793 77.2412 34.8737 77.2412 36.2068C77.2412 37.5399 78.3219 38.6206 79.655 38.6206Z" fill="black" fill-opacity="0.7"/>
<path d="M94.1379 38.6206C95.471 38.6206 96.5517 37.5399 96.5517 36.2068C96.5517 34.8737 95.471 33.793 94.1379 33.793C92.8048 33.793 91.7241 34.8737 91.7241 36.2068C91.7241 37.5399 92.8048 38.6206 94.1379 38.6206Z" fill="black" fill-opacity="0.7"/>
<path d="M7.24143 43.4487C8.57453 43.4487 9.65522 42.368 9.65522 41.0349C9.65522 39.7018 8.57453 38.6211 7.24143 38.6211C5.90833 38.6211 4.82764 39.7018 4.82764 41.0349C4.82764 42.368 5.90833 43.4487 7.24143 43.4487Z" fill="black" fill-opacity="0.7"/>
<path d="M31.3796 43.4487C32.7127 43.4487 33.7934 42.368 33.7934 41.0349C33.7934 39.7018 32.7127 38.6211 31.3796 38.6211C30.0465 38.6211 28.9658 39.7018 28.9658 41.0349C28.9658 42.368 30.0465 43.4487 31.3796 43.4487Z" fill="black" fill-opacity="0.7"/>
<path d="M36.2068 43.4487C37.5399 43.4487 38.6206 42.368 38.6206 41.0349C38.6206 39.7018 37.5399 38.6211 36.2068 38.6211C34.8737 38.6211 33.793 39.7018 33.793 41.0349C33.793 42.368 34.8737 43.4487 36.2068 43.4487Z" fill="black" fill-opacity="0.7"/>
<path d="M41.0344 43.4487C42.3675 43.4487 43.4482 42.368 43.4482 41.0349C43.4482 39.7018 42.3675 38.6211 41.0344 38.6211C39.7013 38.6211 38.6206 39.7018 38.6206 41.0349C38.6206 42.368 39.7013 43.4487 41.0344 43.4487Z" fill="black" fill-opacity="0.7"/>
<path d="M45.862 43.4487C47.1951 43.4487 48.2758 42.368 48.2758 41.0349C48.2758 39.7018 47.1951 38.6211 45.862 38.6211C44.5289 38.6211 43.4482 39.7018 43.4482 41.0349C43.4482 42.368 44.5289 43.4487 45.862 43.4487Z" fill="black" fill-opacity="0.7"/>
<path d="M60.3449 43.4487C61.678 43.4487 62.7587 42.368 62.7587 41.0349C62.7587 39.7018 61.678 38.6211 60.3449 38.6211C59.0118 38.6211 57.9312 39.7018 57.9312 41.0349C57.9312 42.368 59.0118 43.4487 60.3449 43.4487Z" fill="black" fill-opacity="0.7"/>
<path d="M74.8279 43.4487C76.161 43.4487 77.2416 42.368 77.2416 41.0349C77.2416 39.7018 76.161 38.6211 74.8279 38.6211C73.4948 38.6211 72.4141 39.7018 72.4141 41.0349C72.4141 42.368 73.4948 43.4487 74.8279 43.4487Z" fill="black" fill-opacity="0.7"/>
<path d="M79.655 43.4487C80.9881 43.4487 82.0688 42.368 82.0688 41.0349C82.0688 39.7018 80.9881 38.6211 79.655 38.6211C78.3219 38.6211 77.2412 39.7018 77.2412 41.0349C77.2412 42.368 78.3219 43.4487 79.655 43.4487Z" fill="black" fill-opacity="0.7"/>
<path d="M89.3103 43.4487C90.6434 43.4487 91.7241 42.368 91.7241 41.0349C91.7241 39.7018 90.6434 38.6211 89.3103 38.6211C87.9772 38.6211 86.8965 39.7018 86.8965 41.0349C86.8965 42.368 87.9772 43.4487 89.3103 43.4487Z" fill="black" fill-opacity="0.7"/>
<path d="M94.1379 43.4487C95.471 43.4487 96.5517 42.368 96.5517 41.0349C96.5517 39.7018 95.471 38.6211 94.1379 38.6211C92.8048 38.6211 91.7241 39.7018 91.7241 41.0349C91.7241 42.368 92.8048 43.4487 94.1379 43.4487Z" fill="black" fill-opacity="0.7"/>
<path d="M98.9656 43.4487C100.299 43.4487 101.379 42.368 101.379 41.0349C101.379 39.7018 100.299 38.6211 98.9656 38.6211C97.6324 38.6211 96.5518 39.7018 96.5518 41.0349C96.5518 42.368 97.6324 43.4487 98.9656 43.4487Z" fill="black" fill-opacity="0.7"/>
<path d="M103.793 43.4487C105.126 43.4487 106.207 42.368 106.207 41.0349C106.207 39.7018 105.126 38.6211 103.793 38.6211C102.46 38.6211 101.379 39.7018 101.379 41.0349C101.379 42.368 102.46 43.4487 103.793 43.4487Z" fill="black" fill-opacity="0.7"/>
<path d="M132.759 43.4487C134.092 43.4487 135.172 42.368 135.172 41.0349C135.172 39.7018 134.092 38.6211 132.759 38.6211C131.425 38.6211 130.345 39.7018 130.345 41.0349C130.345 42.368 131.425 43.4487 132.759 43.4487Z" fill="black" fill-opacity="0.7"/>
<path d="M137.586 43.4487C138.919 43.4487 140 42.368 140 41.0349C140 39.7018 138.919 38.6211 137.586 38.6211C136.253 38.6211 135.172 39.7018 135.172 41.0349C135.172 42.368 136.253 43.4487 137.586 43.4487Z" fill="black" fill-opacity="0.7"/>
<path d="M7.24143 48.2758C8.57453 48.2758 9.65522 47.1951 9.65522 45.862C9.65522 44.5289 8.57453 43.4482 7.24143 43.4482C5.90833 43.4482 4.82764 44.5289 4.82764 45.862C4.82764 47.1951 5.90833 48.2758 7.24143 48.2758Z" fill="black" fill-opacity="0.7"/>
<path d="M16.8967 48.2758C18.2298 48.2758 19.3105 47.1951 19.3105 45.862C19.3105 44.5289 18.2298 43.4482 16.8967 43.4482C15.5636 43.4482 14.4829 44.5289 14.4829 45.862C14.4829 47.1951 15.5636 48.2758 16.8967 48.2758Z" fill="black" fill-opacity="0.7"/>
<path d="M21.7243 48.2758C23.0574 48.2758 24.1381 47.1951 24.1381 45.862C24.1381 44.5289 23.0574 43.4482 21.7243 43.4482C20.3912 43.4482 19.3105 44.5289 19.3105 45.862C19.3105 47.1951 20.3912 48.2758 21.7243 48.2758Z" fill="black" fill-opacity="0.7"/>
<path d="M41.0344 48.2758C42.3675 48.2758 43.4482 47.1951 43.4482 45.862C43.4482 44.5289 42.3675 43.4482 41.0344 43.4482C39.7013 43.4482 38.6206 44.5289 38.6206 45.862C38.6206 47.1951 39.7013 48.2758 41.0344 48.2758Z" fill="black" fill-opacity="0.7"/>
<path d="M55.5173 48.2758C56.8504 48.2758 57.9311 47.1951 57.9311 45.862C57.9311 44.5289 56.8504 43.4482 55.5173 43.4482C54.1842 43.4482 53.1035 44.5289 53.1035 45.862C53.1035 47.1951 54.1842 48.2758 55.5173 48.2758Z" fill="black" fill-opacity="0.7"/>
<path d="M60.3449 48.2758C61.678 48.2758 62.7587 47.1951 62.7587 45.862C62.7587 44.5289 61.678 43.4482 60.3449 43.4482C59.0118 43.4482 57.9312 44.5289 57.9312 45.862C57.9312 47.1951 59.0118 48.2758 60.3449 48.2758Z" fill="black" fill-opacity="0.7"/>
<path d="M70.0002 48.2758C71.3333 48.2758 72.414 47.1951 72.414 45.862C72.414 44.5289 71.3333 43.4482 70.0002 43.4482C68.6671 43.4482 67.5864 44.5289 67.5864 45.862C67.5864 47.1951 68.6671 48.2758 70.0002 48.2758Z" fill="black" fill-opacity="0.7"/>
<path d="M79.655 48.2758C80.9881 48.2758 82.0688 47.1951 82.0688 45.862C82.0688 44.5289 80.9881 43.4482 79.655 43.4482C78.3219 43.4482 77.2412 44.5289 77.2412 45.862C77.2412 47.1951 78.3219 48.2758 79.655 48.2758Z" fill="black" fill-opacity="0.7"/>
<path d="M98.9656 48.2758C100.299 48.2758 101.379 47.1951 101.379 45.862C101.379 44.5289 100.299 43.4482 98.9656 43.4482C97.6324 43.4482 96.5518 44.5289 96.5518 45.862C96.5518 47.1951 97.6324 48.2758 98.9656 48.2758Z" fill="black" fill-opacity="0.7"/>
<path d="M108.621 48.2758C109.954 48.2758 111.035 47.1951 111.035 45.862C111.035 44.5289 109.954 43.4482 108.621 43.4482C107.288 43.4482 106.207 44.5289 106.207 45.862C106.207 47.1951 107.288 48.2758 108.621 48.2758Z" fill="black" fill-opacity="0.7"/>
<path d="M118.276 48.2758C119.609 48.2758 120.69 47.1951 120.69 45.862C120.69 44.5289 119.609 43.4482 118.276 43.4482C116.943 43.4482 115.862 44.5289 115.862 45.862C115.862 47.1951 116.943 48.2758 118.276 48.2758Z" fill="black" fill-opacity="0.7"/>
<path d="M127.931 48.2758C129.264 48.2758 130.345 47.1951 130.345 45.862C130.345 44.5289 129.264 43.4482 127.931 43.4482C126.598 43.4482 125.517 44.5289 125.517 45.862C125.517 47.1951 126.598 48.2758 127.931 48.2758Z" fill="black" fill-opacity="0.7"/>
<path d="M132.759 48.2758C134.092 48.2758 135.172 47.1951 135.172 45.862C135.172 44.5289 134.092 43.4482 132.759 43.4482C131.425 43.4482 130.345 44.5289 130.345 45.862C130.345 47.1951 131.425 48.2758 132.759 48.2758Z" fill="black" fill-opacity="0.7"/>
<path d="M12.0691 53.104C13.4022 53.104 14.4829 52.0233 14.4829 50.6902C14.4829 49.3571 13.4022 48.2764 12.0691 48.2764C10.736 48.2764 9.65527 49.3571 9.65527 50.6902C9.65527 52.0233 10.736 53.104 12.0691 53.104Z" fill="black" fill-opacity="0.7"/>
<path d="M16.8962 53.104C18.2293 53.104 19.31 52.0233 19.31 50.6902C19.31 49.3571 18.2293 48.2764 16.8962 48.2764C15.5631 48.2764 14.4824 49.3571 14.4824 50.6902C14.4824 52.0233 15.5631 53.104 16.8962 53.104Z" fill="black" fill-opacity="0.7"/>
<path d="M31.3796 53.104C32.7127 53.104 33.7934 52.0233 33.7934 50.6902C33.7934 49.3571 32.7127 48.2764 31.3796 48.2764C30.0465 48.2764 28.9658 49.3571 28.9658 50.6902C28.9658 52.0233 30.0465 53.104 31.3796 53.104Z" fill="black" fill-opacity="0.7"/>
<path d="M50.6897 53.104C52.0228 53.104 53.1035 52.0233 53.1035 50.6902C53.1035 49.3571 52.0228 48.2764 50.6897 48.2764C49.3566 48.2764 48.2759 49.3571 48.2759 50.6902C48.2759 52.0233 49.3566 53.104 50.6897 53.104Z" fill="black" fill-opacity="0.7"/>
<path d="M60.3449 53.104C61.678 53.104 62.7587 52.0233 62.7587 50.6902C62.7587 49.3571 61.678 48.2764 60.3449 48.2764C59.0118 48.2764 57.9312 49.3571 57.9312 50.6902C57.9312 52.0233 59.0118 53.104 60.3449 53.104Z" fill="black" fill-opacity="0.7"/>
<path d="M65.1726 53.104C66.5057 53.104 67.5864 52.0233 67.5864 50.6902C67.5864 49.3571 66.5057 48.2764 65.1726 48.2764C63.8395 48.2764 62.7588 49.3571 62.7588 50.6902C62.7588 52.0233 63.8395 53.104 65.1726 53.104Z" fill="black" fill-opacity="0.7"/>
<path d="M79.655 53.104C80.9881 53.104 82.0688 52.0233 82.0688 50.6902C82.0688 49.3571 80.9881 48.2764 79.655 48.2764C78.3219 48.2764 77.2412 49.3571 77.2412 50.6902C77.2412 52.0233 78.3219 53.104 79.655 53.104Z" fill="black" fill-opacity="0.7"/>
<path d="M84.4826 53.104C85.8157 53.104 86.8964 52.0233 86.8964 50.6902C86.8964 49.3571 85.8157 48.2764 84.4826 48.2764C83.1495 48.2764 82.0688 49.3571 82.0688 50.6902C82.0688 52.0233 83.1495 53.104 84.4826 53.104Z" fill="black" fill-opacity="0.7"/>
<path d="M89.3103 53.104C90.6434 53.104 91.7241 52.0233 91.7241 50.6902C91.7241 49.3571 90.6434 48.2764 89.3103 48.2764C87.9772 48.2764 86.8965 49.3571 86.8965 50.6902C86.8965 52.0233 87.9772 53.104 89.3103 53.104Z" fill="black" fill-opacity="0.7"/>
<path d="M98.9656 53.104C100.299 53.104 101.379 52.0233 101.379 50.6902C101.379 49.3571 100.299 48.2764 98.9656 48.2764C97.6324 48.2764 96.5518 49.3571 96.5518 50.6902C96.5518 52.0233 97.6324 53.104 98.9656 53.104Z" fill="black" fill-opacity="0.7"/>
<path d="M103.793 53.104C105.126 53.104 106.207 52.0233 106.207 50.6902C106.207 49.3571 105.126 48.2764 103.793 48.2764C102.46 48.2764 101.379 49.3571 101.379 50.6902C101.379 52.0233 102.46 53.104 103.793 53.104Z" fill="black" fill-opacity="0.7"/>
<path d="M108.621 53.104C109.954 53.104 111.035 52.0233 111.035 50.6902C111.035 49.3571 109.954 48.2764 108.621 48.2764C107.288 48.2764 106.207 49.3571 106.207 50.6902C106.207 52.0233 107.288 53.104 108.621 53.104Z" fill="black" fill-opacity="0.7"/>
<path d="M113.448 53.104C114.781 53.104 115.862 52.0233 115.862 50.6902C115.862 49.3571 114.781 48.2764 113.448 48.2764C112.115 48.2764 111.034 49.3571 111.034 50.6902C111.034 52.0233 112.115 53.104 113.448 53.104Z" fill="black" fill-opacity="0.7"/>
<path d="M123.103 53.104C124.436 53.104 125.517 52.0233 125.517 50.6902C125.517 49.3571 124.436 48.2764 123.103 48.2764C121.77 48.2764 120.689 49.3571 120.689 50.6902C120.689 52.0233 121.77 53.104 123.103 53.104Z" fill="black" fill-opacity="0.7"/>
<path d="M127.931 53.104C129.264 53.104 130.345 52.0233 130.345 50.6902C130.345 49.3571 129.264 48.2764 127.931 48.2764C126.598 48.2764 125.518 49.3571 125.518 50.6902C125.518 52.0233 126.598 53.104 127.931 53.104Z" fill="black" fill-opacity="0.7"/>
<path d="M2.41379 57.9311C3.74689 57.9311 4.82759 56.8504 4.82759 55.5173C4.82759 54.1842 3.74689 53.1035 2.41379 53.1035C1.08069 53.1035 0 54.1842 0 55.5173C0 56.8504 1.08069 57.9311 2.41379 57.9311Z" fill="black" fill-opacity="0.7"/>
<path d="M7.24143 57.9311C8.57453 57.9311 9.65522 56.8504 9.65522 55.5173C9.65522 54.1842 8.57453 53.1035 7.24143 53.1035C5.90833 53.1035 4.82764 54.1842 4.82764 55.5173C4.82764 56.8504 5.90833 57.9311 7.24143 57.9311Z" fill="black" fill-opacity="0.7"/>
<path d="M26.5515 57.9311C27.8846 57.9311 28.9653 56.8504 28.9653 55.5173C28.9653 54.1842 27.8846 53.1035 26.5515 53.1035C25.2184 53.1035 24.1377 54.1842 24.1377 55.5173C24.1377 56.8504 25.2184 57.9311 26.5515 57.9311Z" fill="black" fill-opacity="0.7"/>
<path d="M55.5173 57.9311C56.8504 57.9311 57.9311 56.8504 57.9311 55.5173C57.9311 54.1842 56.8504 53.1035 55.5173 53.1035C54.1842 53.1035 53.1035 54.1842 53.1035 55.5173C53.1035 56.8504 54.1842 57.9311 55.5173 57.9311Z" fill="black" fill-opacity="0.7"/>
<path d="M60.3449 57.9311C61.678 57.9311 62.7587 56.8504 62.7587 55.5173C62.7587 54.1842 61.678 53.1035 60.3449 53.1035C59.0118 53.1035 57.9312 54.1842 57.9312 55.5173C57.9312 56.8504 59.0118 57.9311 60.3449 57.9311Z" fill="black" fill-opacity="0.7"/>
<path d="M89.3103 57.9311C90.6434 57.9311 91.7241 56.8504 91.7241 55.5173C91.7241 54.1842 90.6434 53.1035 89.3103 53.1035C87.9772 53.1035 86.8965 54.1842 86.8965 55.5173C86.8965 56.8504 87.9772 57.9311 89.3103 57.9311Z" fill="black" fill-opacity="0.7"/>
<path d="M108.621 57.9311C109.954 57.9311 111.035 56.8504 111.035 55.5173C111.035 54.1842 109.954 53.1035 108.621 53.1035C107.288 53.1035 106.207 54.1842 106.207 55.5173C106.207 56.8504 107.288 57.9311 108.621 57.9311Z" fill="black" fill-opacity="0.7"/>
<path d="M118.276 57.9311C119.609 57.9311 120.69 56.8504 120.69 55.5173C120.69 54.1842 119.609 53.1035 118.276 53.1035C116.943 53.1035 115.862 54.1842 115.862 55.5173C115.862 56.8504 116.943 57.9311 118.276 57.9311Z" fill="black" fill-opacity="0.7"/>
<path d="M123.103 57.9311C124.436 57.9311 125.517 56.8504 125.517 55.5173C125.517 54.1842 124.436 53.1035 123.103 53.1035C121.77 53.1035 120.689 54.1842 120.689 55.5173C120.689 56.8504 121.77 57.9311 123.103 57.9311Z" fill="black" fill-opacity="0.7"/>
<path d="M2.41379 62.7592C3.74689 62.7592 4.82759 61.6785 4.82759 60.3454C4.82759 59.0123 3.74689 57.9316 2.41379 57.9316C1.08069 57.9316 0 59.0123 0 60.3454C0 61.6785 1.08069 62.7592 2.41379 62.7592Z" fill="black" fill-opacity="0.7"/>
<path d="M16.8962 62.7592C18.2293 62.7592 19.31 61.6785 19.31 60.3454C19.31 59.0123 18.2293 57.9316 16.8962 57.9316C15.5631 57.9316 14.4824 59.0123 14.4824 60.3454C14.4824 61.6785 15.5631 62.7592 16.8962 62.7592Z" fill="black" fill-opacity="0.7"/>
<path d="M21.7243 62.7592C23.0574 62.7592 24.1381 61.6785 24.1381 60.3454C24.1381 59.0123 23.0574 57.9316 21.7243 57.9316C20.3912 57.9316 19.3105 59.0123 19.3105 60.3454C19.3105 61.6785 20.3912 62.7592 21.7243 62.7592Z" fill="black" fill-opacity="0.7"/>
<path d="M26.5515 62.7592C27.8846 62.7592 28.9653 61.6785 28.9653 60.3454C28.9653 59.0123 27.8846 57.9316 26.5515 57.9316C25.2184 57.9316 24.1377 59.0123 24.1377 60.3454C24.1377 61.6785 25.2184 62.7592 26.5515 62.7592Z" fill="black" fill-opacity="0.7"/>
<path d="M31.3796 62.7592C32.7127 62.7592 33.7934 61.6785 33.7934 60.3454C33.7934 59.0123 32.7127 57.9316 31.3796 57.9316C30.0465 57.9316 28.9658 59.0123 28.9658 60.3454C28.9658 61.6785 30.0465 62.7592 31.3796 62.7592Z" fill="black" fill-opacity="0.7"/>
<path d="M36.2068 62.7592C37.5399 62.7592 38.6206 61.6785 38.6206 60.3454C38.6206 59.0123 37.5399 57.9316 36.2068 57.9316C34.8737 57.9316 33.793 59.0123 33.793 60.3454C33.793 61.6785 34.8737 62.7592 36.2068 62.7592Z" fill="black" fill-opacity="0.7"/>
<path d="M41.0344 62.7592C42.3675 62.7592 43.4482 61.6785 43.4482 60.3454C43.4482 59.0123 42.3675 57.9316 41.0344 57.9316C39.7013 57.9316 38.6206 59.0123 38.6206 60.3454C38.6206 61.6785 39.7013 62.7592 41.0344 62.7592Z" fill="black" fill-opacity="0.7"/>
<path d="M45.862 62.7592C47.1951 62.7592 48.2758 61.6785 48.2758 60.3454C48.2758 59.0123 47.1951 57.9316 45.862 57.9316C44.5289 57.9316 43.4482 59.0123 43.4482 60.3454C43.4482 61.6785 44.5289 62.7592 45.862 62.7592Z" fill="black" fill-opacity="0.7"/>
<path d="M60.3449 62.7592C61.678 62.7592 62.7587 61.6785 62.7587 60.3454C62.7587 59.0123 61.678 57.9316 60.3449 57.9316C59.0118 57.9316 57.9312 59.0123 57.9312 60.3454C57.9312 61.6785 59.0118 62.7592 60.3449 62.7592Z" fill="black" fill-opacity="0.7"/>
<path d="M65.1726 62.7592C66.5057 62.7592 67.5864 61.6785 67.5864 60.3454C67.5864 59.0123 66.5057 57.9316 65.1726 57.9316C63.8395 57.9316 62.7588 59.0123 62.7588 60.3454C62.7588 61.6785 63.8395 62.7592 65.1726 62.7592Z" fill="black" fill-opacity="0.7"/>
<path d="M79.655 62.7592C80.9881 62.7592 82.0688 61.6785 82.0688 60.3454C82.0688 59.0123 80.9881 57.9316 79.655 57.9316C78.3219 57.9316 77.2412 59.0123 77.2412 60.3454C77.2412 61.6785 78.3219 62.7592 79.655 62.7592Z" fill="black" fill-opacity="0.7"/>
<path d="M94.1379 62.7592C95.471 62.7592 96.5517 61.6785 96.5517 60.3454C96.5517 59.0123 95.471 57.9316 94.1379 57.9316C92.8048 57.9316 91.7241 59.0123 91.7241 60.3454C91.7241 61.6785 92.8048 62.7592 94.1379 62.7592Z" fill="black" fill-opacity="0.7"/>
<path d="M98.9656 62.7592C100.299 62.7592 101.379 61.6785 101.379 60.3454C101.379 59.0123 100.299 57.9316 98.9656 57.9316C97.6324 57.9316 96.5518 59.0123 96.5518 60.3454C96.5518 61.6785 97.6324 62.7592 98.9656 62.7592Z" fill="black" fill-opacity="0.7"/>
<path d="M103.793 62.7592C105.126 62.7592 106.207 61.6785 106.207 60.3454C106.207 59.0123 105.126 57.9316 103.793 57.9316C102.46 57.9316 101.379 59.0123 101.379 60.3454C101.379 61.6785 102.46 62.7592 103.793 62.7592Z" fill="black" fill-opacity="0.7"/>
<path d="M108.621 62.7592C109.954 62.7592 111.035 61.6785 111.035 60.3454C111.035 59.0123 109.954 57.9316 108.621 57.9316C107.288 57.9316 106.207 59.0123 106.207 60.3454C106.207 61.6785 107.288 62.7592 108.621 62.7592Z" fill="black" fill-opacity="0.7"/>
<path d="M132.759 62.7592C134.092 62.7592 135.172 61.6785 135.172 60.3454C135.172 59.0123 134.092 57.9316 132.759 57.9316C131.425 57.9316 130.345 59.0123 130.345 60.3454C130.345 61.6785 131.425 62.7592 132.759 62.7592Z" fill="black" fill-opacity="0.7"/>
<path d="M2.41379 67.5864C3.74689 67.5864 4.82759 66.5057 4.82759 65.1726C4.82759 63.8395 3.74689 62.7588 2.41379 62.7588C1.08069 62.7588 0 63.8395 0 65.1726C0 66.5057 1.08069 67.5864 2.41379 67.5864Z" fill="black" fill-opacity="0.7"/>
<path d="M12.0691 67.5864C13.4022 67.5864 14.4829 66.5057 14.4829 65.1726C14.4829 63.8395 13.4022 62.7588 12.0691 62.7588C10.736 62.7588 9.65527 63.8395 9.65527 65.1726C9.65527 66.5057 10.736 67.5864 12.0691 67.5864Z" fill="black" fill-opacity="0.7"/>
<path d="M21.7243 67.5864C23.0574 67.5864 24.1381 66.5057 24.1381 65.1726C24.1381 63.8395 23.0574 62.7588 21.7243 62.7588C20.3912 62.7588 19.3105 63.8395 19.3105 65.1726C19.3105 66.5057 20.3912 67.5864 21.7243 67.5864Z" fill="black" fill-opacity="0.7"/>
<path d="M26.5515 67.5864C27.8846 67.5864 28.9653 66.5057 28.9653 65.1726C28.9653 63.8395 27.8846 62.7588 26.5515 62.7588C25.2184 62.7588 24.1377 63.8395 24.1377 65.1726C24.1377 66.5057 25.2184 67.5864 26.5515 67.5864Z" fill="black" fill-opacity="0.7"/>
<path d="M36.2068 67.5864C37.5399 67.5864 38.6206 66.5057 38.6206 65.1726C38.6206 63.8395 37.5399 62.7588 36.2068 62.7588C34.8737 62.7588 33.793 63.8395 33.793 65.1726C33.793 66.5057 34.8737 67.5864 36.2068 67.5864Z" fill="black" fill-opacity="0.7"/>
<path d="M50.6897 67.5864C52.0228 67.5864 53.1035 66.5057 53.1035 65.1726C53.1035 63.8395 52.0228 62.7588 50.6897 62.7588C49.3566 62.7588 48.2759 63.8395 48.2759 65.1726C48.2759 66.5057 49.3566 67.5864 50.6897 67.5864Z" fill="black" fill-opacity="0.7"/>
<path d="M55.5173 67.5864C56.8504 67.5864 57.9311 66.5057 57.9311 65.1726C57.9311 63.8395 56.8504 62.7588 55.5173 62.7588C54.1842 62.7588 53.1035 63.8395 53.1035 65.1726C53.1035 66.5057 54.1842 67.5864 55.5173 67.5864Z" fill="black" fill-opacity="0.7"/>
<path d="M65.1726 67.5864C66.5057 67.5864 67.5864 66.5057 67.5864 65.1726C67.5864 63.8395 66.5057 62.7588 65.1726 62.7588C63.8395 62.7588 62.7588 63.8395 62.7588 65.1726C62.7588 66.5057 63.8395 67.5864 65.1726 67.5864Z" fill="black" fill-opacity="0.7"/>
<path d="M74.8274 67.5864C76.1605 67.5864 77.2412 66.5057 77.2412 65.1726C77.2412 63.8395 76.1605 62.7588 74.8274 62.7588C73.4943 62.7588 72.4136 63.8395 72.4136 65.1726C72.4136 66.5057 73.4943 67.5864 74.8274 67.5864Z" fill="black" fill-opacity="0.7"/>
<path d="M79.655 67.5864C80.9881 67.5864 82.0688 66.5057 82.0688 65.1726C82.0688 63.8395 80.9881 62.7588 79.655 62.7588C78.3219 62.7588 77.2412 63.8395 77.2412 65.1726C77.2412 66.5057 78.3219 67.5864 79.655 67.5864Z" fill="black" fill-opacity="0.7"/>
<path d="M84.4826 67.5864C85.8157 67.5864 86.8964 66.5057 86.8964 65.1726C86.8964 63.8395 85.8157 62.7588 84.4826 62.7588C83.1495 62.7588 82.0688 63.8395 82.0688 65.1726C82.0688 66.5057 83.1495 67.5864 84.4826 67.5864Z" fill="black" fill-opacity="0.7"/>
<path d="M94.1379 67.5864C95.471 67.5864 96.5517 66.5057 96.5517 65.1726C96.5517 63.8395 95.471 62.7588 94.1379 62.7588C92.8048 62.7588 91.7241 63.8395 91.7241 65.1726C91.7241 66.5057 92.8048 67.5864 94.1379 67.5864Z" fill="black" fill-opacity="0.7"/>
<path d="M98.9656 67.5864C100.299 67.5864 101.379 66.5057 101.379 65.1726C101.379 63.8395 100.299 62.7588 98.9656 62.7588C97.6324 62.7588 96.5518 63.8395 96.5518 65.1726C96.5518 66.5057 97.6324 67.5864 98.9656 67.5864Z" fill="black" fill-opacity="0.7"/>
<path d="M108.621 67.5864C109.954 67.5864 111.035 66.5057 111.035 65.1726C111.035 63.8395 109.954 62.7588 108.621 62.7588C107.288 62.7588 106.207 63.8395 106.207 65.1726C106.207 66.5057 107.288 67.5864 108.621 67.5864Z" fill="black" fill-opacity="0.7"/>
<path d="M118.276 67.5864C119.609 67.5864 120.69 66.5057 120.69 65.1726C120.69 63.8395 119.609 62.7588 118.276 62.7588C116.943 62.7588 115.862 63.8395 115.862 65.1726C115.862 66.5057 116.943 67.5864 118.276 67.5864Z" fill="black" fill-opacity="0.7"/>
<path d="M123.103 67.5864C124.436 67.5864 125.517 66.5057 125.517 65.1726C125.517 63.8395 124.436 62.7588 123.103 62.7588C121.77 62.7588 120.689 63.8395 120.689 65.1726C120.689 66.5057 121.77 67.5864 123.103 67.5864Z" fill="black" fill-opacity="0.7"/>
<path d="M137.586 67.5864C138.919 67.5864 140 66.5057 140 65.1726C140 63.8395 138.919 62.7588 137.586 62.7588C136.253 62.7588 135.172 63.8395 135.172 65.1726C135.172 66.5057 136.253 67.5864 137.586 67.5864Z" fill="black" fill-opacity="0.7"/>
<path d="M21.7243 72.4135C23.0574 72.4135 24.1381 71.3328 24.1381 69.9997C24.1381 68.6666 23.0574 67.5859 21.7243 67.5859C20.3912 67.5859 19.3105 68.6666 19.3105 69.9997C19.3105 71.3328 20.3912 72.4135 21.7243 72.4135Z" fill="black" fill-opacity="0.7"/>
<path d="M26.5515 72.4135C27.8846 72.4135 28.9653 71.3328 28.9653 69.9997C28.9653 68.6666 27.8846 67.5859 26.5515 67.5859C25.2184 67.5859 24.1377 68.6666 24.1377 69.9997C24.1377 71.3328 25.2184 72.4135 26.5515 72.4135Z" fill="black" fill-opacity="0.7"/>
<path d="M31.3796 72.4135C32.7127 72.4135 33.7934 71.3328 33.7934 69.9997C33.7934 68.6666 32.7127 67.5859 31.3796 67.5859C30.0465 67.5859 28.9658 68.6666 28.9658 69.9997C28.9658 71.3328 30.0465 72.4135 31.3796 72.4135Z" fill="black" fill-opacity="0.7"/>
<path d="M36.2068 72.4135C37.5399 72.4135 38.6206 71.3328 38.6206 69.9997C38.6206 68.6666 37.5399 67.5859 36.2068 67.5859C34.8737 67.5859 33.793 68.6666 33.793 69.9997C33.793 71.3328 34.8737 72.4135 36.2068 72.4135Z" fill="black" fill-opacity="0.7"/>
<path d="M41.0344 72.4135C42.3675 72.4135 43.4482 71.3328 43.4482 69.9997C43.4482 68.6666 42.3675 67.5859 41.0344 67.5859C39.7013 67.5859 38.6206 68.6666 38.6206 69.9997C38.6206 71.3328 39.7013 72.4135 41.0344 72.4135Z" fill="black" fill-opacity="0.7"/>
<path d="M45.862 72.4135C47.1951 72.4135 48.2758 71.3328 48.2758 69.9997C48.2758 68.6666 47.1951 67.5859 45.862 67.5859C44.5289 67.5859 43.4482 68.6666 43.4482 69.9997C43.4482 71.3328 44.5289 72.4135 45.862 72.4135Z" fill="black" fill-opacity="0.7"/>
<path d="M55.5173 72.4135C56.8504 72.4135 57.9311 71.3328 57.9311 69.9997C57.9311 68.6666 56.8504 67.5859 55.5173 67.5859C54.1842 67.5859 53.1035 68.6666 53.1035 69.9997C53.1035 71.3328 54.1842 72.4135 55.5173 72.4135Z" fill="black" fill-opacity="0.7"/>
<path d="M60.3449 72.4135C61.678 72.4135 62.7587 71.3328 62.7587 69.9997C62.7587 68.6666 61.678 67.5859 60.3449 67.5859C59.0118 67.5859 57.9312 68.6666 57.9312 69.9997C57.9312 71.3328 59.0118 72.4135 60.3449 72.4135Z" fill="black" fill-opacity="0.7"/>
<path d="M69.9997 72.4135C71.3328 72.4135 72.4135 71.3328 72.4135 69.9997C72.4135 68.6666 71.3328 67.5859 69.9997 67.5859C68.6666 67.5859 67.5859 68.6666 67.5859 69.9997C67.5859 71.3328 68.6666 72.4135 69.9997 72.4135Z" fill="black" fill-opacity="0.7"/>
<path d="M74.8279 72.4135C76.161 72.4135 77.2416 71.3328 77.2416 69.9997C77.2416 68.6666 76.161 67.5859 74.8279 67.5859C73.4948 67.5859 72.4141 68.6666 72.4141 69.9997C72.4141 71.3328 73.4948 72.4135 74.8279 72.4135Z" fill="black" fill-opacity="0.7"/>
<path d="M79.655 72.4135C80.9881 72.4135 82.0688 71.3328 82.0688 69.9997C82.0688 68.6666 80.9881 67.5859 79.655 67.5859C78.3219 67.5859 77.2412 68.6666 77.2412 69.9997C77.2412 71.3328 78.3219 72.4135 79.655 72.4135Z" fill="black" fill-opacity="0.7"/>
<path d="M84.4826 72.4135C85.8157 72.4135 86.8964 71.3328 86.8964 69.9997C86.8964 68.6666 85.8157 67.5859 84.4826 67.5859C83.1495 67.5859 82.0688 68.6666 82.0688 69.9997C82.0688 71.3328 83.1495 72.4135 84.4826 72.4135Z" fill="black" fill-opacity="0.7"/>
<path d="M98.9656 72.4135C100.299 72.4135 101.379 71.3328 101.379 69.9997C101.379 68.6666 100.299 67.5859 98.9656 67.5859C97.6324 67.5859 96.5518 68.6666 96.5518 69.9997C96.5518 71.3328 97.6324 72.4135 98.9656 72.4135Z" fill="black" fill-opacity="0.7"/>
<path d="M108.621 72.4135C109.954 72.4135 111.035 71.3328 111.035 69.9997C111.035 68.6666 109.954 67.5859 108.621 67.5859C107.288 67.5859 106.207 68.6666 106.207 69.9997C106.207 71.3328 107.288 72.4135 108.621 72.4135Z" fill="black" fill-opacity="0.7"/>
<path d="M113.448 72.4135C114.781 72.4135 115.862 71.3328 115.862 69.9997C115.862 68.6666 114.781 67.5859 113.448 67.5859C112.115 67.5859 111.034 68.6666 111.034 69.9997C111.034 71.3328 112.115 72.4135 113.448 72.4135Z" fill="black" fill-opacity="0.7"/>
<path d="M7.24143 77.2416C8.57453 77.2416 9.65522 76.161 9.65522 74.8279C9.65522 73.4948 8.57453 72.4141 7.24143 72.4141C5.90833 72.4141 4.82764 73.4948 4.82764 74.8279C4.82764 76.161 5.90833 77.2416 7.24143 77.2416Z" fill="black" fill-opacity="0.7"/>
<path d="M16.8967 77.2416C18.2298 77.2416 19.3105 76.161 19.3105 74.8279C19.3105 73.4948 18.2298 72.4141 16.8967 72.4141C15.5636 72.4141 14.4829 73.4948 14.4829 74.8279C14.4829 76.161 15.5636 77.2416 16.8967 77.2416Z" fill="black" fill-opacity="0.7"/>
<path d="M21.7243 77.2416C23.0574 77.2416 24.1381 76.161 24.1381 74.8279C24.1381 73.4948 23.0574 72.4141 21.7243 72.4141C20.3912 72.4141 19.3105 73.4948 19.3105 74.8279C19.3105 76.161 20.3912 77.2416 21.7243 77.2416Z" fill="black" fill-opacity="0.7"/>
<path d="M55.5173 77.2416C56.8504 77.2416 57.9311 76.161 57.9311 74.8279C57.9311 73.4948 56.8504 72.4141 55.5173 72.4141C54.1842 72.4141 53.1035 73.4948 53.1035 74.8279C53.1035 76.161 54.1842 77.2416 55.5173 77.2416Z" fill="black" fill-opacity="0.7"/>
<path d="M65.1726 77.2416C66.5057 77.2416 67.5864 76.161 67.5864 74.8279C67.5864 73.4948 66.5057 72.4141 65.1726 72.4141C63.8395 72.4141 62.7588 73.4948 62.7588 74.8279C62.7588 76.161 63.8395 77.2416 65.1726 77.2416Z" fill="black" fill-opacity="0.7"/>
<path d="M70.0002 77.2416C71.3333 77.2416 72.414 76.161 72.414 74.8279C72.414 73.4948 71.3333 72.4141 70.0002 72.4141C68.6671 72.4141 67.5864 73.4948 67.5864 74.8279C67.5864 76.161 68.6671 77.2416 70.0002 77.2416Z" fill="black" fill-opacity="0.7"/>
<path d="M84.4826 77.2416C85.8157 77.2416 86.8964 76.161 86.8964 74.8279C86.8964 73.4948 85.8157 72.4141 84.4826 72.4141C83.1495 72.4141 82.0688 73.4948 82.0688 74.8279C82.0688 76.161 83.1495 77.2416 84.4826 77.2416Z" fill="black" fill-opacity="0.7"/>
<path d="M89.3103 77.2416C90.6434 77.2416 91.7241 76.161 91.7241 74.8279C91.7241 73.4948 90.6434 72.4141 89.3103 72.4141C87.9772 72.4141 86.8965 73.4948 86.8965 74.8279C86.8965 76.161 87.9772 77.2416 89.3103 77.2416Z" fill="black" fill-opacity="0.7"/>
<path d="M94.1379 77.2416C95.471 77.2416 96.5517 76.161 96.5517 74.8279C96.5517 73.4948 95.471 72.4141 94.1379 72.4141C92.8048 72.4141 91.7241 73.4948 91.7241 74.8279C91.7241 76.161 92.8048 77.2416 94.1379 77.2416Z" fill="black" fill-opacity="0.7"/>
<path d="M118.276 77.2416C119.609 77.2416 120.69 76.161 120.69 74.8279C120.69 73.4948 119.609 72.4141 118.276 72.4141C116.943 72.4141 115.862 73.4948 115.862 74.8279C115.862 76.161 116.943 77.2416 118.276 77.2416Z" fill="black" fill-opacity="0.7"/>
<path d="M123.103 77.2416C124.436 77.2416 125.517 76.161 125.517 74.8279C125.517 73.4948 124.436 72.4141 123.103 72.4141C121.77 72.4141 120.689 73.4948 120.689 74.8279C120.689 76.161 121.77 77.2416 123.103 77.2416Z" fill="black" fill-opacity="0.7"/>
<path d="M127.931 77.2416C129.264 77.2416 130.345 76.161 130.345 74.8279C130.345 73.4948 129.264 72.4141 127.931 72.4141C126.598 72.4141 125.517 73.4948 125.517 74.8279C125.517 76.161 126.598 77.2416 127.931 77.2416Z" fill="black" fill-opacity="0.7"/>
<path d="M132.759 77.2416C134.092 77.2416 135.172 76.161 135.172 74.8279C135.172 73.4948 134.092 72.4141 132.759 72.4141C131.425 72.4141 130.345 73.4948 130.345 74.8279C130.345 76.161 131.425 77.2416 132.759 77.2416Z" fill="black" fill-opacity="0.7"/>
<path d="M137.586 77.2416C138.919 77.2416 140 76.161 140 74.8279C140 73.4948 138.919 72.4141 137.586 72.4141C136.253 72.4141 135.172 73.4948 135.172 74.8279C135.172 76.161 136.253 77.2416 137.586 77.2416Z" fill="black" fill-opacity="0.7"/>
<path d="M2.41379 82.0688C3.74689 82.0688 4.82759 80.9881 4.82759 79.655C4.82759 78.3219 3.74689 77.2412 2.41379 77.2412C1.08069 77.2412 0 78.3219 0 79.655C0 80.9881 1.08069 82.0688 2.41379 82.0688Z" fill="black" fill-opacity="0.7"/>
<path d="M12.0691 82.0688C13.4022 82.0688 14.4829 80.9881 14.4829 79.655C14.4829 78.3219 13.4022 77.2412 12.0691 77.2412C10.736 77.2412 9.65527 78.3219 9.65527 79.655C9.65527 80.9881 10.736 82.0688 12.0691 82.0688Z" fill="black" fill-opacity="0.7"/>
<path d="M16.8962 82.0688C18.2293 82.0688 19.31 80.9881 19.31 79.655C19.31 78.3219 18.2293 77.2412 16.8962 77.2412C15.5631 77.2412 14.4824 78.3219 14.4824 79.655C14.4824 80.9881 15.5631 82.0688 16.8962 82.0688Z" fill="black" fill-opacity="0.7"/>
<path d="M31.3796 82.0688C32.7127 82.0688 33.7934 80.9881 33.7934 79.655C33.7934 78.3219 32.7127 77.2412 31.3796 77.2412C30.0465 77.2412 28.9658 78.3219 28.9658 79.655C28.9658 80.9881 30.0465 82.0688 31.3796 82.0688Z" fill="black" fill-opacity="0.7"/>
<path d="M36.2068 82.0688C37.5399 82.0688 38.6206 80.9881 38.6206 79.655C38.6206 78.3219 37.5399 77.2412 36.2068 77.2412C34.8737 77.2412 33.793 78.3219 33.793 79.655C33.793 80.9881 34.8737 82.0688 36.2068 82.0688Z" fill="black" fill-opacity="0.7"/>
<path d="M41.0344 82.0688C42.3675 82.0688 43.4482 80.9881 43.4482 79.655C43.4482 78.3219 42.3675 77.2412 41.0344 77.2412C39.7013 77.2412 38.6206 78.3219 38.6206 79.655C38.6206 80.9881 39.7013 82.0688 41.0344 82.0688Z" fill="black" fill-opacity="0.7"/>
<path d="M45.862 82.0688C47.1951 82.0688 48.2758 80.9881 48.2758 79.655C48.2758 78.3219 47.1951 77.2412 45.862 77.2412C44.5289 77.2412 43.4482 78.3219 43.4482 79.655C43.4482 80.9881 44.5289 82.0688 45.862 82.0688Z" fill="black" fill-opacity="0.7"/>
<path d="M50.6897 82.0688C52.0228 82.0688 53.1035 80.9881 53.1035 79.655C53.1035 78.3219 52.0228 77.2412 50.6897 77.2412C49.3566 77.2412 48.2759 78.3219 48.2759 79.655C48.2759 80.9881 49.3566 82.0688 50.6897 82.0688Z" fill="black" fill-opacity="0.7"/>
<path d="M69.9997 82.0688C71.3328 82.0688 72.4135 80.9881 72.4135 79.655C72.4135 78.3219 71.3328 77.2412 69.9997 77.2412C68.6666 77.2412 67.5859 78.3219 67.5859 79.655C67.5859 80.9881 68.6666 82.0688 69.9997 82.0688Z" fill="black" fill-opacity="0.7"/>
<path d="M79.655 82.0688C80.9881 82.0688 82.0688 80.9881 82.0688 79.655C82.0688 78.3219 80.9881 77.2412 79.655 77.2412C78.3219 77.2412 77.2412 78.3219 77.2412 79.655C77.2412 80.9881 78.3219 82.0688 79.655 82.0688Z" fill="black" fill-opacity="0.7"/>
<path d="M94.1379 82.0688C95.471 82.0688 96.5517 80.9881 96.5517 79.655C96.5517 78.3219 95.471 77.2412 94.1379 77.2412C92.8048 77.2412 91.7241 78.3219 91.7241 79.655C91.7241 80.9881 92.8048 82.0688 94.1379 82.0688Z" fill="black" fill-opacity="0.7"/>
<path d="M108.621 82.0688C109.954 82.0688 111.035 80.9881 111.035 79.655C111.035 78.3219 109.954 77.2412 108.621 77.2412C107.288 77.2412 106.207 78.3219 106.207 79.655C106.207 80.9881 107.288 82.0688 108.621 82.0688Z" fill="black" fill-opacity="0.7"/>
<path d="M113.448 82.0688C114.781 82.0688 115.862 80.9881 115.862 79.655C115.862 78.3219 114.781 77.2412 113.448 77.2412C112.115 77.2412 111.034 78.3219 111.034 79.655C111.034 80.9881 112.115 82.0688 113.448 82.0688Z" fill="black" fill-opacity="0.7"/>
<path d="M123.103 82.0688C124.436 82.0688 125.517 80.9881 125.517 79.655C125.517 78.3219 124.436 77.2412 123.103 77.2412C121.77 77.2412 120.689 78.3219 120.689 79.655C120.689 80.9881 121.77 82.0688 123.103 82.0688Z" fill="black" fill-opacity="0.7"/>
<path d="M127.931 82.0688C129.264 82.0688 130.345 80.9881 130.345 79.655C130.345 78.3219 129.264 77.2412 127.931 77.2412C126.598 77.2412 125.518 78.3219 125.518 79.655C125.518 80.9881 126.598 82.0688 127.931 82.0688Z" fill="black" fill-opacity="0.7"/>
<path d="M2.41379 86.8969C3.74689 86.8969 4.82759 85.8162 4.82759 84.4831C4.82759 83.15 3.74689 82.0693 2.41379 82.0693C1.08069 82.0693 0 83.15 0 84.4831C0 85.8162 1.08069 86.8969 2.41379 86.8969Z" fill="black" fill-opacity="0.7"/>
<path d="M21.7243 86.8969C23.0574 86.8969 24.1381 85.8162 24.1381 84.4831C24.1381 83.15 23.0574 82.0693 21.7243 82.0693C20.3912 82.0693 19.3105 83.15 19.3105 84.4831C19.3105 85.8162 20.3912 86.8969 21.7243 86.8969Z" fill="black" fill-opacity="0.7"/>
<path d="M26.5515 86.8969C27.8846 86.8969 28.9653 85.8162 28.9653 84.4831C28.9653 83.15 27.8846 82.0693 26.5515 82.0693C25.2184 82.0693 24.1377 83.15 24.1377 84.4831C24.1377 85.8162 25.2184 86.8969 26.5515 86.8969Z" fill="black" fill-opacity="0.7"/>
<path d="M36.2068 86.8969C37.5399 86.8969 38.6206 85.8162 38.6206 84.4831C38.6206 83.15 37.5399 82.0693 36.2068 82.0693C34.8737 82.0693 33.793 83.15 33.793 84.4831C33.793 85.8162 34.8737 86.8969 36.2068 86.8969Z" fill="black" fill-opacity="0.7"/>
<path d="M45.862 86.8969C47.1951 86.8969 48.2758 85.8162 48.2758 84.4831C48.2758 83.15 47.1951 82.0693 45.862 82.0693C44.5289 82.0693 43.4482 83.15 43.4482 84.4831C43.4482 85.8162 44.5289 86.8969 45.862 86.8969Z" fill="black" fill-opacity="0.7"/>
<path d="M60.3449 86.8969C61.678 86.8969 62.7587 85.8162 62.7587 84.4831C62.7587 83.15 61.678 82.0693 60.3449 82.0693C59.0118 82.0693 57.9312 83.15 57.9312 84.4831C57.9312 85.8162 59.0118 86.8969 60.3449 86.8969Z" fill="black" fill-opacity="0.7"/>
<path d="M65.1726 86.8969C66.5057 86.8969 67.5864 85.8162 67.5864 84.4831C67.5864 83.15 66.5057 82.0693 65.1726 82.0693C63.8395 82.0693 62.7588 83.15 62.7588 84.4831C62.7588 85.8162 63.8395 86.8969 65.1726 86.8969Z" fill="black" fill-opacity="0.7"/>
<path d="M69.9997 86.8969C71.3328 86.8969 72.4135 85.8162 72.4135 84.4831C72.4135 83.15 71.3328 82.0693 69.9997 82.0693C68.6666 82.0693 67.5859 83.15 67.5859 84.4831C67.5859 85.8162 68.6666 86.8969 69.9997 86.8969Z" fill="black" fill-opacity="0.7"/>
<path d="M89.3103 86.8969C90.6434 86.8969 91.7241 85.8162 91.7241 84.4831C91.7241 83.15 90.6434 82.0693 89.3103 82.0693C87.9772 82.0693 86.8965 83.15 86.8965 84.4831C86.8965 85.8162 87.9772 86.8969 89.3103 86.8969Z" fill="black" fill-opacity="0.7"/>
<path d="M98.9656 86.8969C100.299 86.8969 101.379 85.8162 101.379 84.4831C101.379 83.15 100.299 82.0693 98.9656 82.0693C97.6324 82.0693 96.5518 83.15 96.5518 84.4831C96.5518 85.8162 97.6324 86.8969 98.9656 86.8969Z" fill="black" fill-opacity="0.7"/>
<path d="M118.276 86.8969C119.609 86.8969 120.69 85.8162 120.69 84.4831C120.69 83.15 119.609 82.0693 118.276 82.0693C116.943 82.0693 115.862 83.15 115.862 84.4831C115.862 85.8162 116.943 86.8969 118.276 86.8969Z" fill="black" fill-opacity="0.7"/>
<path d="M123.103 86.8969C124.436 86.8969 125.517 85.8162 125.517 84.4831C125.517 83.15 124.436 82.0693 123.103 82.0693C121.77 82.0693 120.689 83.15 120.689 84.4831C120.689 85.8162 121.77 86.8969 123.103 86.8969Z" fill="black" fill-opacity="0.7"/>
<path d="M137.586 86.8969C138.919 86.8969 140 85.8162 140 84.4831C140 83.15 138.919 82.0693 137.586 82.0693C136.253 82.0693 135.172 83.15 135.172 84.4831C135.172 85.8162 136.253 86.8969 137.586 86.8969Z" fill="black" fill-opacity="0.7"/>
<path d="M2.41379 91.7241C3.74689 91.7241 4.82759 90.6434 4.82759 89.3103C4.82759 87.9772 3.74689 86.8965 2.41379 86.8965C1.08069 86.8965 0 87.9772 0 89.3103C0 90.6434 1.08069 91.7241 2.41379 91.7241Z" fill="black" fill-opacity="0.7"/>
<path d="M7.24143 91.7241C8.57453 91.7241 9.65522 90.6434 9.65522 89.3103C9.65522 87.9772 8.57453 86.8965 7.24143 86.8965C5.90833 86.8965 4.82764 87.9772 4.82764 89.3103C4.82764 90.6434 5.90833 91.7241 7.24143 91.7241Z" fill="black" fill-opacity="0.7"/>
<path d="M21.7243 91.7241C23.0574 91.7241 24.1381 90.6434 24.1381 89.3103C24.1381 87.9772 23.0574 86.8965 21.7243 86.8965C20.3912 86.8965 19.3105 87.9772 19.3105 89.3103C19.3105 90.6434 20.3912 91.7241 21.7243 91.7241Z" fill="black" fill-opacity="0.7"/>
<path d="M26.5515 91.7241C27.8846 91.7241 28.9653 90.6434 28.9653 89.3103C28.9653 87.9772 27.8846 86.8965 26.5515 86.8965C25.2184 86.8965 24.1377 87.9772 24.1377 89.3103C24.1377 90.6434 25.2184 91.7241 26.5515 91.7241Z" fill="black" fill-opacity="0.7"/>
<path d="M31.3791 91.7241C32.7122 91.7241 33.7929 90.6434 33.7929 89.3103C33.7929 87.9772 32.7122 86.8965 31.3791 86.8965C30.046 86.8965 28.9653 87.9772 28.9653 89.3103C28.9653 90.6434 30.046 91.7241 31.3791 91.7241Z" fill="black" fill-opacity="0.7"/>
<path d="M36.2068 91.7241C37.5399 91.7241 38.6206 90.6434 38.6206 89.3103C38.6206 87.9772 37.5399 86.8965 36.2068 86.8965C34.8737 86.8965 33.793 87.9772 33.793 89.3103C33.793 90.6434 34.8737 91.7241 36.2068 91.7241Z" fill="black" fill-opacity="0.7"/>
<path d="M41.0344 91.7241C42.3675 91.7241 43.4482 90.6434 43.4482 89.3103C43.4482 87.9772 42.3675 86.8965 41.0344 86.8965C39.7013 86.8965 38.6206 87.9772 38.6206 89.3103C38.6206 90.6434 39.7013 91.7241 41.0344 91.7241Z" fill="black" fill-opacity="0.7"/>
<path d="M70.0002 91.7241C71.3333 91.7241 72.414 90.6434 72.414 89.3103C72.414 87.9772 71.3333 86.8965 70.0002 86.8965C68.6671 86.8965 67.5864 87.9772 67.5864 89.3103C67.5864 90.6434 68.6671 91.7241 70.0002 91.7241Z" fill="black" fill-opacity="0.7"/>
<path d="M74.8274 91.7241C76.1605 91.7241 77.2412 90.6434 77.2412 89.3103C77.2412 87.9772 76.1605 86.8965 74.8274 86.8965C73.4943 86.8965 72.4136 87.9772 72.4136 89.3103C72.4136 90.6434 73.4943 91.7241 74.8274 91.7241Z" fill="black" fill-opacity="0.7"/>
<path d="M84.4826 91.7241C85.8157 91.7241 86.8964 90.6434 86.8964 89.3103C86.8964 87.9772 85.8157 86.8965 84.4826 86.8965C83.1495 86.8965 82.0688 87.9772 82.0688 89.3103C82.0688 90.6434 83.1495 91.7241 84.4826 91.7241Z" fill="black" fill-opacity="0.7"/>
<path d="M98.9656 91.7241C100.299 91.7241 101.379 90.6434 101.379 89.3103C101.379 87.9772 100.299 86.8965 98.9656 86.8965C97.6324 86.8965 96.5518 87.9772 96.5518 89.3103C96.5518 90.6434 97.6324 91.7241 98.9656 91.7241Z" fill="black" fill-opacity="0.7"/>
<path d="M123.103 91.7241C124.436 91.7241 125.517 90.6434 125.517 89.3103C125.517 87.9772 124.436 86.8965 123.103 86.8965C121.77 86.8965 120.689 87.9772 120.689 89.3103C120.689 90.6434 121.77 91.7241 123.103 91.7241Z" fill="black" fill-opacity="0.7"/>
<path d="M127.931 91.7241C129.264 91.7241 130.345 90.6434 130.345 89.3103C130.345 87.9772 129.264 86.8965 127.931 86.8965C126.598 86.8965 125.517 87.9772 125.517 89.3103C125.517 90.6434 126.598 91.7241 127.931 91.7241Z" fill="black" fill-opacity="0.7"/>
<path d="M137.586 91.7241C138.919 91.7241 140 90.6434 140 89.3103C140 87.9772 138.919 86.8965 137.586 86.8965C136.253 86.8965 135.172 87.9772 135.172 89.3103C135.172 90.6434 136.253 91.7241 137.586 91.7241Z" fill="black" fill-opacity="0.7"/>
<path d="M2.41379 96.5522C3.74689 96.5522 4.82759 95.4715 4.82759 94.1384C4.82759 92.8053 3.74689 91.7246 2.41379 91.7246C1.08069 91.7246 0 92.8053 0 94.1384C0 95.4715 1.08069 96.5522 2.41379 96.5522Z" fill="black" fill-opacity="0.7"/>
<path d="M12.0691 96.5522C13.4022 96.5522 14.4829 95.4715 14.4829 94.1384C14.4829 92.8053 13.4022 91.7246 12.0691 91.7246C10.736 91.7246 9.65527 92.8053 9.65527 94.1384C9.65527 95.4715 10.736 96.5522 12.0691 96.5522Z" fill="black" fill-opacity="0.7"/>
<path d="M16.8962 96.5522C18.2293 96.5522 19.31 95.4715 19.31 94.1384C19.31 92.8053 18.2293 91.7246 16.8962 91.7246C15.5631 91.7246 14.4824 92.8053 14.4824 94.1384C14.4824 95.4715 15.5631 96.5522 16.8962 96.5522Z" fill="black" fill-opacity="0.7"/>
<path d="M36.2068 96.5522C37.5399 96.5522 38.6206 95.4715 38.6206 94.1384C38.6206 92.8053 37.5399 91.7246 36.2068 91.7246C34.8737 91.7246 33.793 92.8053 33.793 94.1384C33.793 95.4715 34.8737 96.5522 36.2068 96.5522Z" fill="black" fill-opacity="0.7"/>
<path d="M41.0344 96.5522C42.3675 96.5522 43.4482 95.4715 43.4482 94.1384C43.4482 92.8053 42.3675 91.7246 41.0344 91.7246C39.7013 91.7246 38.6206 92.8053 38.6206 94.1384C38.6206 95.4715 39.7013 96.5522 41.0344 96.5522Z" fill="black" fill-opacity="0.7"/>
<path d="M45.862 96.5522C47.1951 96.5522 48.2758 95.4715 48.2758 94.1384C48.2758 92.8053 47.1951 91.7246 45.862 91.7246C44.5289 91.7246 43.4482 92.8053 43.4482 94.1384C43.4482 95.4715 44.5289 96.5522 45.862 96.5522Z" fill="black" fill-opacity="0.7"/>
<path d="M50.6897 96.5522C52.0228 96.5522 53.1035 95.4715 53.1035 94.1384C53.1035 92.8053 52.0228 91.7246 50.6897 91.7246C49.3566 91.7246 48.2759 92.8053 48.2759 94.1384C48.2759 95.4715 49.3566 96.5522 50.6897 96.5522Z" fill="black" fill-opacity="0.7"/>
<path d="M55.5173 96.5522C56.8504 96.5522 57.9311 95.4715 57.9311 94.1384C57.9311 92.8053 56.8504 91.7246 55.5173 91.7246C54.1842 91.7246 53.1035 92.8053 53.1035 94.1384C53.1035 95.4715 54.1842 96.5522 55.5173 96.5522Z" fill="black" fill-opacity="0.7"/>
<path d="M65.1726 96.5522C66.5057 96.5522 67.5864 95.4715 67.5864 94.1384C67.5864 92.8053 66.5057 91.7246 65.1726 91.7246C63.8395 91.7246 62.7588 92.8053 62.7588 94.1384C62.7588 95.4715 63.8395 96.5522 65.1726 96.5522Z" fill="black" fill-opacity="0.7"/>
<path d="M94.1379 96.5522C95.471 96.5522 96.5517 95.4715 96.5517 94.1384C96.5517 92.8053 95.471 91.7246 94.1379 91.7246C92.8048 91.7246 91.7241 92.8053 91.7241 94.1384C91.7241 95.4715 92.8048 96.5522 94.1379 96.5522Z" fill="black" fill-opacity="0.7"/>
<path d="M98.9656 96.5522C100.299 96.5522 101.379 95.4715 101.379 94.1384C101.379 92.8053 100.299 91.7246 98.9656 91.7246C97.6324 91.7246 96.5518 92.8053 96.5518 94.1384C96.5518 95.4715 97.6324 96.5522 98.9656 96.5522Z" fill="black" fill-opacity="0.7"/>
<path d="M103.793 96.5522C105.126 96.5522 106.207 95.4715 106.207 94.1384C106.207 92.8053 105.126 91.7246 103.793 91.7246C102.46 91.7246 101.379 92.8053 101.379 94.1384C101.379 95.4715 102.46 96.5522 103.793 96.5522Z" fill="black" fill-opacity="0.7"/>
<path d="M108.621 96.5522C109.954 96.5522 111.035 95.4715 111.035 94.1384C111.035 92.8053 109.954 91.7246 108.621 91.7246C107.288 91.7246 106.207 92.8053 106.207 94.1384C106.207 95.4715 107.288 96.5522 108.621 96.5522Z" fill="black" fill-opacity="0.7"/>
<path d="M118.276 96.5522C119.609 96.5522 120.69 95.4715 120.69 94.1384C120.69 92.8053 119.609 91.7246 118.276 91.7246C116.943 91.7246 115.862 92.8053 115.862 94.1384C115.862 95.4715 116.943 96.5522 118.276 96.5522Z" fill="black" fill-opacity="0.7"/>
<path d="M123.103 96.5522C124.436 96.5522 125.517 95.4715 125.517 94.1384C125.517 92.8053 124.436 91.7246 123.103 91.7246C121.77 91.7246 120.689 92.8053 120.689 94.1384C120.689 95.4715 121.77 96.5522 123.103 96.5522Z" fill="black" fill-opacity="0.7"/>
<path d="M137.586 96.5522C138.919 96.5522 140 95.4715 140 94.1384C140 92.8053 138.919 91.7246 137.586 91.7246C136.253 91.7246 135.172 92.8053 135.172 94.1384C135.172 95.4715 136.253 96.5522 137.586 96.5522Z" fill="black" fill-opacity="0.7"/>
<path d="M2.41379 101.379C3.74689 101.379 4.82759 100.299 4.82759 98.9656C4.82759 97.6324 3.74689 96.5518 2.41379 96.5518C1.08069 96.5518 0 97.6324 0 98.9656C0 100.299 1.08069 101.379 2.41379 101.379Z" fill="black" fill-opacity="0.7"/>
<path d="M12.0691 101.379C13.4022 101.379 14.4829 100.299 14.4829 98.9656C14.4829 97.6324 13.4022 96.5518 12.0691 96.5518C10.736 96.5518 9.65527 97.6324 9.65527 98.9656C9.65527 100.299 10.736 101.379 12.0691 101.379Z" fill="black" fill-opacity="0.7"/>
<path d="M21.7243 101.379C23.0574 101.379 24.1381 100.299 24.1381 98.9656C24.1381 97.6324 23.0574 96.5518 21.7243 96.5518C20.3912 96.5518 19.3105 97.6324 19.3105 98.9656C19.3105 100.299 20.3912 101.379 21.7243 101.379Z" fill="black" fill-opacity="0.7"/>
<path d="M31.3791 101.379C32.7122 101.379 33.7929 100.299 33.7929 98.9656C33.7929 97.6324 32.7122 96.5518 31.3791 96.5518C30.046 96.5518 28.9653 97.6324 28.9653 98.9656C28.9653 100.299 30.046 101.379 31.3791 101.379Z" fill="black" fill-opacity="0.7"/>
<path d="M36.2068 101.379C37.5399 101.379 38.6206 100.299 38.6206 98.9656C38.6206 97.6324 37.5399 96.5518 36.2068 96.5518C34.8737 96.5518 33.793 97.6324 33.793 98.9656C33.793 100.299 34.8737 101.379 36.2068 101.379Z" fill="black" fill-opacity="0.7"/>
<path d="M41.0344 101.379C42.3675 101.379 43.4482 100.299 43.4482 98.9656C43.4482 97.6324 42.3675 96.5518 41.0344 96.5518C39.7013 96.5518 38.6206 97.6324 38.6206 98.9656C38.6206 100.299 39.7013 101.379 41.0344 101.379Z" fill="black" fill-opacity="0.7"/>
<path d="M65.1726 101.379C66.5057 101.379 67.5864 100.299 67.5864 98.9656C67.5864 97.6324 66.5057 96.5518 65.1726 96.5518C63.8395 96.5518 62.7588 97.6324 62.7588 98.9656C62.7588 100.299 63.8395 101.379 65.1726 101.379Z" fill="black" fill-opacity="0.7"/>
<path d="M74.8274 101.379C76.1605 101.379 77.2412 100.299 77.2412 98.9656C77.2412 97.6324 76.1605 96.5518 74.8274 96.5518C73.4943 96.5518 72.4136 97.6324 72.4136 98.9656C72.4136 100.299 73.4943 101.379 74.8274 101.379Z" fill="black" fill-opacity="0.7"/>
<path d="M84.4826 101.379C85.8157 101.379 86.8964 100.299 86.8964 98.9656C86.8964 97.6324 85.8157 96.5518 84.4826 96.5518C83.1495 96.5518 82.0688 97.6324 82.0688 98.9656C82.0688 100.299 83.1495 101.379 84.4826 101.379Z" fill="black" fill-opacity="0.7"/>
<path d="M89.3103 101.379C90.6434 101.379 91.7241 100.299 91.7241 98.9656C91.7241 97.6324 90.6434 96.5518 89.3103 96.5518C87.9772 96.5518 86.8965 97.6324 86.8965 98.9656C86.8965 100.299 87.9772 101.379 89.3103 101.379Z" fill="black" fill-opacity="0.7"/>
<path d="M94.1379 101.379C95.471 101.379 96.5517 100.299 96.5517 98.9656C96.5517 97.6324 95.471 96.5518 94.1379 96.5518C92.8048 96.5518 91.7241 97.6324 91.7241 98.9656C91.7241 100.299 92.8048 101.379 94.1379 101.379Z" fill="black" fill-opacity="0.7"/>
<path d="M98.9656 101.379C100.299 101.379 101.379 100.299 101.379 98.9656C101.379 97.6324 100.299 96.5518 98.9656 96.5518C97.6324 96.5518 96.5518 97.6324 96.5518 98.9656C96.5518 100.299 97.6324 101.379 98.9656 101.379Z" fill="black" fill-opacity="0.7"/>
<path d="M103.793 101.379C105.126 101.379 106.207 100.299 106.207 98.9656C106.207 97.6324 105.126 96.5518 103.793 96.5518C102.46 96.5518 101.379 97.6324 101.379 98.9656C101.379 100.299 102.46 101.379 103.793 101.379Z" fill="black" fill-opacity="0.7"/>
<path d="M108.621 101.379C109.954 101.379 111.035 100.299 111.035 98.9656C111.035 97.6324 109.954 96.5518 108.621 96.5518C107.288 96.5518 106.207 97.6324 106.207 98.9656C106.207 100.299 107.288 101.379 108.621 101.379Z" fill="black" fill-opacity="0.7"/>
<path d="M113.448 101.379C114.782 101.379 115.862 100.299 115.862 98.9656C115.862 97.6324 114.782 96.5518 113.448 96.5518C112.115 96.5518 111.035 97.6324 111.035 98.9656C111.035 100.299 112.115 101.379 113.448 101.379Z" fill="black" fill-opacity="0.7"/>
<path d="M118.276 101.379C119.609 101.379 120.69 100.299 120.69 98.9656C120.69 97.6324 119.609 96.5518 118.276 96.5518C116.943 96.5518 115.862 97.6324 115.862 98.9656C115.862 100.299 116.943 101.379 118.276 101.379Z" fill="black" fill-opacity="0.7"/>
<path d="M127.931 101.379C129.264 101.379 130.345 100.299 130.345 98.9656C130.345 97.6324 129.264 96.5518 127.931 96.5518C126.598 96.5518 125.517 97.6324 125.517 98.9656C125.517 100.299 126.598 101.379 127.931 101.379Z" fill="black" fill-opacity="0.7"/>
<path d="M41.0344 106.207C42.3675 106.207 43.4482 105.127 43.4482 103.794C43.4482 102.461 42.3675 101.38 41.0344 101.38C39.7013 101.38 38.6206 102.461 38.6206 103.794C38.6206 105.127 39.7013 106.207 41.0344 106.207Z" fill="black" fill-opacity="0.7"/>
<path d="M45.862 106.207C47.1951 106.207 48.2758 105.127 48.2758 103.794C48.2758 102.461 47.1951 101.38 45.862 101.38C44.5289 101.38 43.4482 102.461 43.4482 103.794C43.4482 105.127 44.5289 106.207 45.862 106.207Z" fill="black" fill-opacity="0.7"/>
<path d="M55.5173 106.207C56.8504 106.207 57.9311 105.127 57.9311 103.794C57.9311 102.461 56.8504 101.38 55.5173 101.38C54.1842 101.38 53.1035 102.461 53.1035 103.794C53.1035 105.127 54.1842 106.207 55.5173 106.207Z" fill="black" fill-opacity="0.7"/>
<path d="M74.8279 106.207C76.161 106.207 77.2416 105.127 77.2416 103.794C77.2416 102.461 76.161 101.38 74.8279 101.38C73.4948 101.38 72.4141 102.461 72.4141 103.794C72.4141 105.127 73.4948 106.207 74.8279 106.207Z" fill="black" fill-opacity="0.7"/>
<path d="M89.3103 106.207C90.6434 106.207 91.7241 105.127 91.7241 103.794C91.7241 102.461 90.6434 101.38 89.3103 101.38C87.9772 101.38 86.8965 102.461 86.8965 103.794C86.8965 105.127 87.9772 106.207 89.3103 106.207Z" fill="black" fill-opacity="0.7"/>
<path d="M98.9656 106.207C100.299 106.207 101.379 105.127 101.379 103.794C101.379 102.461 100.299 101.38 98.9656 101.38C97.6324 101.38 96.5518 102.461 96.5518 103.794C96.5518 105.127 97.6324 106.207 98.9656 106.207Z" fill="black" fill-opacity="0.7"/>
<path d="M118.276 106.207C119.609 106.207 120.69 105.127 120.69 103.794C120.69 102.461 119.609 101.38 118.276 101.38C116.943 101.38 115.862 102.461 115.862 103.794C115.862 105.127 116.943 106.207 118.276 106.207Z" fill="black" fill-opacity="0.7"/>
<path d="M123.103 106.207C124.436 106.207 125.517 105.127 125.517 103.794C125.517 102.461 124.436 101.38 123.103 101.38C121.77 101.38 120.689 102.461 120.689 103.794C120.689 105.127 121.77 106.207 123.103 106.207Z" fill="black" fill-opacity="0.7"/>
<path d="M127.931 106.207C129.264 106.207 130.345 105.127 130.345 103.794C130.345 102.461 129.264 101.38 127.931 101.38C126.598 101.38 125.518 102.461 125.518 103.794C125.518 105.127 126.598 106.207 127.931 106.207Z" fill="black" fill-opacity="0.7"/>
<path d="M41.0344 111.035C42.3675 111.035 43.4482 109.954 43.4482 108.621C43.4482 107.288 42.3675 106.207 41.0344 106.207C39.7013 106.207 38.6206 107.288 38.6206 108.621C38.6206 109.954 39.7013 111.035 41.0344 111.035Z" fill="black" fill-opacity="0.7"/>
<path d="M45.862 111.035C47.1951 111.035 48.2758 109.954 48.2758 108.621C48.2758 107.288 47.1951 106.207 45.862 106.207C44.5289 106.207 43.4482 107.288 43.4482 108.621C43.4482 109.954 44.5289 111.035 45.862 111.035Z" fill="black" fill-opacity="0.7"/>
<path d="M60.3449 111.035C61.678 111.035 62.7587 109.954 62.7587 108.621C62.7587 107.288 61.678 106.207 60.3449 106.207C59.0118 106.207 57.9312 107.288 57.9312 108.621C57.9312 109.954 59.0118 111.035 60.3449 111.035Z" fill="black" fill-opacity="0.7"/>
<path d="M70.0002 111.035C71.3333 111.035 72.414 109.954 72.414 108.621C72.414 107.288 71.3333 106.207 70.0002 106.207C68.6671 106.207 67.5864 107.288 67.5864 108.621C67.5864 109.954 68.6671 111.035 70.0002 111.035Z" fill="black" fill-opacity="0.7"/>
<path d="M74.8274 111.035C76.1605 111.035 77.2412 109.954 77.2412 108.621C77.2412 107.288 76.1605 106.207 74.8274 106.207C73.4943 106.207 72.4136 107.288 72.4136 108.621C72.4136 109.954 73.4943 111.035 74.8274 111.035Z" fill="black" fill-opacity="0.7"/>
<path d="M89.3103 111.035C90.6434 111.035 91.7241 109.954 91.7241 108.621C91.7241 107.288 90.6434 106.207 89.3103 106.207C87.9772 106.207 86.8965 107.288 86.8965 108.621C86.8965 109.954 87.9772 111.035 89.3103 111.035Z" fill="black" fill-opacity="0.7"/>
<path d="M94.1379 111.035C95.471 111.035 96.5517 109.954 96.5517 108.621C96.5517 107.288 95.471 106.207 94.1379 106.207C92.8048 106.207 91.7241 107.288 91.7241 108.621C91.7241 109.954 92.8048 111.035 94.1379 111.035Z" fill="black" fill-opacity="0.7"/>
<path d="M98.9656 111.035C100.299 111.035 101.379 109.954 101.379 108.621C101.379 107.288 100.299 106.207 98.9656 106.207C97.6324 106.207 96.5518 107.288 96.5518 108.621C96.5518 109.954 97.6324 111.035 98.9656 111.035Z" fill="black" fill-opacity="0.7"/>
<path d="M108.621 111.035C109.954 111.035 111.035 109.954 111.035 108.621C111.035 107.288 109.954 106.207 108.621 106.207C107.288 106.207 106.207 107.288 106.207 108.621C106.207 109.954 107.288 111.035 108.621 111.035Z" fill="black" fill-opacity="0.7"/>
<path d="M118.276 111.035C119.609 111.035 120.69 109.954 120.69 108.621C120.69 107.288 119.609 106.207 118.276 106.207C116.943 106.207 115.862 107.288 115.862 108.621C115.862 109.954 116.943 111.035 118.276 111.035Z" fill="black" fill-opacity="0.7"/>
<path d="M55.5173 115.862C56.8504 115.862 57.9311 114.781 57.9311 113.448C57.9311 112.115 56.8504 111.034 55.5173 111.034C54.1842 111.034 53.1035 112.115 53.1035 113.448C53.1035 114.781 54.1842 115.862 55.5173 115.862Z" fill="black" fill-opacity="0.7"/>
<path d="M65.1726 115.862C66.5057 115.862 67.5864 114.781 67.5864 113.448C67.5864 112.115 66.5057 111.034 65.1726 111.034C63.8395 111.034 62.7588 112.115 62.7588 113.448C62.7588 114.781 63.8395 115.862 65.1726 115.862Z" fill="black" fill-opacity="0.7"/>
<path d="M69.9997 115.862C71.3328 115.862 72.4135 114.781 72.4135 113.448C72.4135 112.115 71.3328 111.034 69.9997 111.034C68.6666 111.034 67.5859 112.115 67.5859 113.448C67.5859 114.781 68.6666 115.862 69.9997 115.862Z" fill="black" fill-opacity="0.7"/>
<path d="M74.8279 115.862C76.161 115.862 77.2416 114.781 77.2416 113.448C77.2416 112.115 76.161 111.034 74.8279 111.034C73.4948 111.034 72.4141 112.115 72.4141 113.448C72.4141 114.781 73.4948 115.862 74.8279 115.862Z" fill="black" fill-opacity="0.7"/>
<path d="M79.655 115.862C80.9881 115.862 82.0688 114.781 82.0688 113.448C82.0688 112.115 80.9881 111.034 79.655 111.034C78.3219 111.034 77.2412 112.115 77.2412 113.448C77.2412 114.781 78.3219 115.862 79.655 115.862Z" fill="black" fill-opacity="0.7"/>
<path d="M94.1379 115.862C95.471 115.862 96.5517 114.781 96.5517 113.448C96.5517 112.115 95.471 111.034 94.1379 111.034C92.8048 111.034 91.7241 112.115 91.7241 113.448C91.7241 114.781 92.8048 115.862 94.1379 115.862Z" fill="black" fill-opacity="0.7"/>
<path d="M98.9656 115.862C100.299 115.862 101.379 114.781 101.379 113.448C101.379 112.115 100.299 111.034 98.9656 111.034C97.6324 111.034 96.5518 112.115 96.5518 113.448C96.5518 114.781 97.6324 115.862 98.9656 115.862Z" fill="black" fill-opacity="0.7"/>
<path d="M118.276 115.862C119.609 115.862 120.69 114.781 120.69 113.448C120.69 112.115 119.609 111.034 118.276 111.034C116.943 111.034 115.862 112.115 115.862 113.448C115.862 114.781 116.943 115.862 118.276 115.862Z" fill="black" fill-opacity="0.7"/>
<path d="M123.103 115.862C124.436 115.862 125.517 114.781 125.517 113.448C125.517 112.115 124.436 111.034 123.103 111.034C121.77 111.034 120.689 112.115 120.689 113.448C120.689 114.781 121.77 115.862 123.103 115.862Z" fill="black" fill-opacity="0.7"/>
<path d="M132.759 115.862C134.092 115.862 135.172 114.781 135.172 113.448C135.172 112.115 134.092 111.034 132.759 111.034C131.425 111.034 130.345 112.115 130.345 113.448C130.345 114.781 131.425 115.862 132.759 115.862Z" fill="black" fill-opacity="0.7"/>
<path d="M45.862 120.69C47.1951 120.69 48.2758 119.609 48.2758 118.276C48.2758 116.943 47.1951 115.862 45.862 115.862C44.5289 115.862 43.4482 116.943 43.4482 118.276C43.4482 119.609 44.5289 120.69 45.862 120.69Z" fill="black" fill-opacity="0.7"/>
<path d="M50.6897 120.69C52.0228 120.69 53.1035 119.609 53.1035 118.276C53.1035 116.943 52.0228 115.862 50.6897 115.862C49.3566 115.862 48.2759 116.943 48.2759 118.276C48.2759 119.609 49.3566 120.69 50.6897 120.69Z" fill="black" fill-opacity="0.7"/>
<path d="M55.5173 120.69C56.8504 120.69 57.9311 119.609 57.9311 118.276C57.9311 116.943 56.8504 115.862 55.5173 115.862C54.1842 115.862 53.1035 116.943 53.1035 118.276C53.1035 119.609 54.1842 120.69 55.5173 120.69Z" fill="black" fill-opacity="0.7"/>
<path d="M74.8274 120.69C76.1605 120.69 77.2412 119.609 77.2412 118.276C77.2412 116.943 76.1605 115.862 74.8274 115.862C73.4943 115.862 72.4136 116.943 72.4136 118.276C72.4136 119.609 73.4943 120.69 74.8274 120.69Z" fill="black" fill-opacity="0.7"/>
<path d="M79.655 120.69C80.9881 120.69 82.0688 119.609 82.0688 118.276C82.0688 116.943 80.9881 115.862 79.655 115.862C78.3219 115.862 77.2412 116.943 77.2412 118.276C77.2412 119.609 78.3219 120.69 79.655 120.69Z" fill="black" fill-opacity="0.7"/>
<path d="M84.4826 120.69C85.8157 120.69 86.8964 119.609 86.8964 118.276C86.8964 116.943 85.8157 115.862 84.4826 115.862C83.1495 115.862 82.0688 116.943 82.0688 118.276C82.0688 119.609 83.1495 120.69 84.4826 120.69Z" fill="black" fill-opacity="0.7"/>
<path d="M89.3103 120.69C90.6434 120.69 91.7241 119.609 91.7241 118.276C91.7241 116.943 90.6434 115.862 89.3103 115.862C87.9772 115.862 86.8965 116.943 86.8965 118.276C86.8965 119.609 87.9772 120.69 89.3103 120.69Z" fill="black" fill-opacity="0.7"/>
<path d="M94.1379 120.69C95.471 120.69 96.5517 119.609 96.5517 118.276C96.5517 116.943 95.471 115.862 94.1379 115.862C92.8048 115.862 91.7241 116.943 91.7241 118.276C91.7241 119.609 92.8048 120.69 94.1379 120.69Z" fill="black" fill-opacity="0.7"/>
<path d="M98.9656 120.69C100.299 120.69 101.379 119.609 101.379 118.276C101.379 116.943 100.299 115.862 98.9656 115.862C97.6324 115.862 96.5518 116.943 96.5518 118.276C96.5518 119.609 97.6324 120.69 98.9656 120.69Z" fill="black" fill-opacity="0.7"/>
<path d="M103.793 120.69C105.126 120.69 106.207 119.609 106.207 118.276C106.207 116.943 105.126 115.862 103.793 115.862C102.46 115.862 101.379 116.943 101.379 118.276C101.379 119.609 102.46 120.69 103.793 120.69Z" fill="black" fill-opacity="0.7"/>
<path d="M108.621 120.69C109.954 120.69 111.035 119.609 111.035 118.276C111.035 116.943 109.954 115.862 108.621 115.862C107.288 115.862 106.207 116.943 106.207 118.276C106.207 119.609 107.288 120.69 108.621 120.69Z" fill="black" fill-opacity="0.7"/>
<path d="M113.448 120.69C114.782 120.69 115.862 119.609 115.862 118.276C115.862 116.943 114.782 115.862 113.448 115.862C112.115 115.862 111.035 116.943 111.035 118.276C111.035 119.609 112.115 120.69 113.448 120.69Z" fill="black" fill-opacity="0.7"/>
<path d="M118.276 120.69C119.609 120.69 120.69 119.609 120.69 118.276C120.69 116.943 119.609 115.862 118.276 115.862C116.943 115.862 115.862 116.943 115.862 118.276C115.862 119.609 116.943 120.69 118.276 120.69Z" fill="black" fill-opacity="0.7"/>
<path d="M50.6897 125.517C52.0228 125.517 53.1035 124.436 53.1035 123.103C53.1035 121.77 52.0228 120.689 50.6897 120.689C49.3566 120.689 48.2759 121.77 48.2759 123.103C48.2759 124.436 49.3566 125.517 50.6897 125.517Z" fill="black" fill-opacity="0.7"/>
<path d="M55.5173 125.517C56.8504 125.517 57.9311 124.436 57.9311 123.103C57.9311 121.77 56.8504 120.689 55.5173 120.689C54.1842 120.689 53.1035 121.77 53.1035 123.103C53.1035 124.436 54.1842 125.517 55.5173 125.517Z" fill="black" fill-opacity="0.7"/>
<path d="M65.1726 125.517C66.5057 125.517 67.5864 124.436 67.5864 123.103C67.5864 121.77 66.5057 120.689 65.1726 120.689C63.8395 120.689 62.7588 121.77 62.7588 123.103C62.7588 124.436 63.8395 125.517 65.1726 125.517Z" fill="black" fill-opacity="0.7"/>
<path d="M70.0002 125.517C71.3333 125.517 72.414 124.436 72.414 123.103C72.414 121.77 71.3333 120.689 70.0002 120.689C68.6671 120.689 67.5864 121.77 67.5864 123.103C67.5864 124.436 68.6671 125.517 70.0002 125.517Z" fill="black" fill-opacity="0.7"/>
<path d="M79.655 125.517C80.9881 125.517 82.0688 124.436 82.0688 123.103C82.0688 121.77 80.9881 120.689 79.655 120.689C78.3219 120.689 77.2412 121.77 77.2412 123.103C77.2412 124.436 78.3219 125.517 79.655 125.517Z" fill="black" fill-opacity="0.7"/>
<path d="M84.4826 125.517C85.8157 125.517 86.8964 124.436 86.8964 123.103C86.8964 121.77 85.8157 120.689 84.4826 120.689C83.1495 120.689 82.0688 121.77 82.0688 123.103C82.0688 124.436 83.1495 125.517 84.4826 125.517Z" fill="black" fill-opacity="0.7"/>
<path d="M94.1379 125.517C95.471 125.517 96.5517 124.436 96.5517 123.103C96.5517 121.77 95.471 120.689 94.1379 120.689C92.8048 120.689 91.7241 121.77 91.7241 123.103C91.7241 124.436 92.8048 125.517 94.1379 125.517Z" fill="black" fill-opacity="0.7"/>
<path d="M98.9656 125.517C100.299 125.517 101.379 124.436 101.379 123.103C101.379 121.77 100.299 120.689 98.9656 120.689C97.6324 120.689 96.5518 121.77 96.5518 123.103C96.5518 124.436 97.6324 125.517 98.9656 125.517Z" fill="black" fill-opacity="0.7"/>
<path d="M113.448 125.517C114.782 125.517 115.862 124.436 115.862 123.103C115.862 121.77 114.782 120.689 113.448 120.689C112.115 120.689 111.035 121.77 111.035 123.103C111.035 124.436 112.115 125.517 113.448 125.517Z" fill="black" fill-opacity="0.7"/>
<path d="M123.103 125.517C124.436 125.517 125.517 124.436 125.517 123.103C125.517 121.77 124.436 120.689 123.103 120.689C121.77 120.689 120.689 121.77 120.689 123.103C120.689 124.436 121.77 125.517 123.103 125.517Z" fill="black" fill-opacity="0.7"/>
<path d="M132.759 125.517C134.092 125.517 135.172 124.436 135.172 123.103C135.172 121.77 134.092 120.689 132.759 120.689C131.425 120.689 130.345 121.77 130.345 123.103C130.345 124.436 131.425 125.517 132.759 125.517Z" fill="black" fill-opacity="0.7"/>
<path d="M60.3449 130.345C61.678 130.345 62.7587 129.264 62.7587 127.931C62.7587 126.598 61.678 125.518 60.3449 125.518C59.0118 125.518 57.9312 126.598 57.9312 127.931C57.9312 129.264 59.0118 130.345 60.3449 130.345Z" fill="black" fill-opacity="0.7"/>
<path d="M65.1726 130.345C66.5057 130.345 67.5864 129.264 67.5864 127.931C67.5864 126.598 66.5057 125.518 65.1726 125.518C63.8395 125.518 62.7588 126.598 62.7588 127.931C62.7588 129.264 63.8395 130.345 65.1726 130.345Z" fill="black" fill-opacity="0.7"/>
<path d="M84.4826 130.345C85.8157 130.345 86.8964 129.264 86.8964 127.931C86.8964 126.598 85.8157 125.518 84.4826 125.518C83.1495 125.518 82.0688 126.598 82.0688 127.931C82.0688 129.264 83.1495 130.345 84.4826 130.345Z" fill="black" fill-opacity="0.7"/>
<path d="M94.1379 130.345C95.471 130.345 96.5517 129.264 96.5517 127.931C96.5517 126.598 95.471 125.518 94.1379 125.518C92.8048 125.518 91.7241 126.598 91.7241 127.931C91.7241 129.264 92.8048 130.345 94.1379 130.345Z" fill="black" fill-opacity="0.7"/>
<path d="M98.9656 130.345C100.299 130.345 101.379 129.264 101.379 127.931C101.379 126.598 100.299 125.518 98.9656 125.518C97.6324 125.518 96.5518 126.598 96.5518 127.931C96.5518 129.264 97.6324 130.345 98.9656 130.345Z" fill="black" fill-opacity="0.7"/>
<path d="M103.793 130.345C105.126 130.345 106.207 129.264 106.207 127.931C106.207 126.598 105.126 125.518 103.793 125.518C102.46 125.518 101.379 126.598 101.379 127.931C101.379 129.264 102.46 130.345 103.793 130.345Z" fill="black" fill-opacity="0.7"/>
<path d="M108.621 130.345C109.954 130.345 111.035 129.264 111.035 127.931C111.035 126.598 109.954 125.518 108.621 125.518C107.288 125.518 106.207 126.598 106.207 127.931C106.207 129.264 107.288 130.345 108.621 130.345Z" fill="black" fill-opacity="0.7"/>
<path d="M113.448 130.345C114.782 130.345 115.862 129.264 115.862 127.931C115.862 126.598 114.782 125.518 113.448 125.518C112.115 125.518 111.035 126.598 111.035 127.931C111.035 129.264 112.115 130.345 113.448 130.345Z" fill="black" fill-opacity="0.7"/>
<path d="M118.276 130.345C119.609 130.345 120.69 129.264 120.69 127.931C120.69 126.598 119.609 125.518 118.276 125.518C116.943 125.518 115.862 126.598 115.862 127.931C115.862 129.264 116.943 130.345 118.276 130.345Z" fill="black" fill-opacity="0.7"/>
<path d="M123.103 130.345C124.436 130.345 125.517 129.264 125.517 127.931C125.517 126.598 124.436 125.518 123.103 125.518C121.77 125.518 120.689 126.598 120.689 127.931C120.689 129.264 121.77 130.345 123.103 130.345Z" fill="black" fill-opacity="0.7"/>
<path d="M132.759 130.345C134.092 130.345 135.172 129.264 135.172 127.931C135.172 126.598 134.092 125.518 132.759 125.518C131.425 125.518 130.345 126.598 130.345 127.931C130.345 129.264 131.425 130.345 132.759 130.345Z" fill="black" fill-opacity="0.7"/>
<path d="M41.0344 135.172C42.3675 135.172 43.4482 134.092 43.4482 132.759C43.4482 131.425 42.3675 130.345 41.0344 130.345C39.7013 130.345 38.6206 131.425 38.6206 132.759C38.6206 134.092 39.7013 135.172 41.0344 135.172Z" fill="black" fill-opacity="0.7"/>
<path d="M45.862 135.172C47.1951 135.172 48.2758 134.092 48.2758 132.759C48.2758 131.425 47.1951 130.345 45.862 130.345C44.5289 130.345 43.4482 131.425 43.4482 132.759C43.4482 134.092 44.5289 135.172 45.862 135.172Z" fill="black" fill-opacity="0.7"/>
<path d="M55.5173 135.172C56.8504 135.172 57.9311 134.092 57.9311 132.759C57.9311 131.425 56.8504 130.345 55.5173 130.345C54.1842 130.345 53.1035 131.425 53.1035 132.759C53.1035 134.092 54.1842 135.172 55.5173 135.172Z" fill="black" fill-opacity="0.7"/>
<path d="M60.3449 135.172C61.678 135.172 62.7587 134.092 62.7587 132.759C62.7587 131.425 61.678 130.345 60.3449 130.345C59.0118 130.345 57.9312 131.425 57.9312 132.759C57.9312 134.092 59.0118 135.172 60.3449 135.172Z" fill="black" fill-opacity="0.7"/>
<path d="M74.8274 135.172C76.1605 135.172 77.2412 134.092 77.2412 132.759C77.2412 131.425 76.1605 130.345 74.8274 130.345C73.4943 130.345 72.4136 131.425 72.4136 132.759C72.4136 134.092 73.4943 135.172 74.8274 135.172Z" fill="black" fill-opacity="0.7"/>
<path d="M94.1379 135.172C95.471 135.172 96.5517 134.092 96.5517 132.759C96.5517 131.425 95.471 130.345 94.1379 130.345C92.8048 130.345 91.7241 131.425 91.7241 132.759C91.7241 134.092 92.8048 135.172 94.1379 135.172Z" fill="black" fill-opacity="0.7"/>
<path d="M98.9656 135.172C100.299 135.172 101.379 134.092 101.379 132.759C101.379 131.425 100.299 130.345 98.9656 130.345C97.6324 130.345 96.5518 131.425 96.5518 132.759C96.5518 134.092 97.6324 135.172 98.9656 135.172Z" fill="black" fill-opacity="0.7"/>
<path d="M108.621 135.172C109.954 135.172 111.035 134.092 111.035 132.759C111.035 131.425 109.954 130.345 108.621 130.345C107.288 130.345 106.207 131.425 106.207 132.759C106.207 134.092 107.288 135.172 108.621 135.172Z" fill="black" fill-opacity="0.7"/>
<path d="M118.276 135.172C119.609 135.172 120.69 134.092 120.69 132.759C120.69 131.425 119.609 130.345 118.276 130.345C116.943 130.345 115.862 131.425 115.862 132.759C115.862 134.092 116.943 135.172 118.276 135.172Z" fill="black" fill-opacity="0.7"/>
<path d="M127.931 135.172C129.264 135.172 130.345 134.092 130.345 132.759C130.345 131.425 129.264 130.345 127.931 130.345C126.598 130.345 125.517 131.425 125.517 132.759C125.517 134.092 126.598 135.172 127.931 135.172Z" fill="black" fill-opacity="0.7"/>
<path d="M137.586 135.172C138.919 135.172 140 134.092 140 132.759C140 131.425 138.919 130.345 137.586 130.345C136.253 130.345 135.172 131.425 135.172 132.759C135.172 134.092 136.253 135.172 137.586 135.172Z" fill="black" fill-opacity="0.7"/>
<path d="M45.862 140C47.1951 140 48.2758 138.92 48.2758 137.587C48.2758 136.254 47.1951 135.173 45.862 135.173C44.5289 135.173 43.4482 136.254 43.4482 137.587C43.4482 138.92 44.5289 140 45.862 140Z" fill="black" fill-opacity="0.7"/>
<path d="M55.5173 140C56.8504 140 57.9311 138.92 57.9311 137.587C57.9311 136.254 56.8504 135.173 55.5173 135.173C54.1842 135.173 53.1035 136.254 53.1035 137.587C53.1035 138.92 54.1842 140 55.5173 140Z" fill="black" fill-opacity="0.7"/>
<path d="M65.1726 140C66.5057 140 67.5864 138.92 67.5864 137.587C67.5864 136.254 66.5057 135.173 65.1726 135.173C63.8395 135.173 62.7588 136.254 62.7588 137.587C62.7588 138.92 63.8395 140 65.1726 140Z" fill="black" fill-opacity="0.7"/>
<path d="M79.655 140C80.9881 140 82.0688 138.92 82.0688 137.587C82.0688 136.254 80.9881 135.173 79.655 135.173C78.3219 135.173 77.2412 136.254 77.2412 137.587C77.2412 138.92 78.3219 140 79.655 140Z" fill="black" fill-opacity="0.7"/>
<path d="M84.4826 140C85.8157 140 86.8964 138.92 86.8964 137.587C86.8964 136.254 85.8157 135.173 84.4826 135.173C83.1495 135.173 82.0688 136.254 82.0688 137.587C82.0688 138.92 83.1495 140 84.4826 140Z" fill="black" fill-opacity="0.7"/>
<path d="M118.276 140C119.609 140 120.69 138.92 120.69 137.587C120.69 136.254 119.609 135.173 118.276 135.173C116.943 135.173 115.862 136.254 115.862 137.587C115.862 138.92 116.943 140 118.276 140Z" fill="black" fill-opacity="0.7"/>
<path d="M123.103 140C124.436 140 125.517 138.92 125.517 137.587C125.517 136.254 124.436 135.173 123.103 135.173C121.77 135.173 120.689 136.254 120.689 137.587C120.689 138.92 121.77 140 123.103 140Z" fill="black" fill-opacity="0.7"/>
<path d="M127.931 140C129.264 140 130.345 138.92 130.345 137.587C130.345 136.254 129.264 135.173 127.931 135.173C126.598 135.173 125.518 136.254 125.518 137.587C125.518 138.92 126.598 140 127.931 140Z" fill="black" fill-opacity="0.7"/>
</svg>
