<svg width="140" height="140" viewBox="0 0 140 140" fill="none" xmlns="http://www.w3.org/2000/svg">
<path d="M24.138 123.103C24.138 119.104 20.896 115.862 16.8967 115.862C12.8973 115.862 9.65527 119.104 9.65527 123.103C9.65527 127.103 12.8973 130.345 16.8967 130.345C20.896 130.345 24.138 127.103 24.138 123.103Z" fill="black" fill-opacity="0.7"/>
<path d="M12.069 140H21.7241C24.925 140 27.9948 138.728 30.2582 136.465C32.5216 134.202 33.7931 131.132 33.7931 127.931V118.276C33.7931 115.075 32.5216 112.005 30.2582 109.742C27.9948 107.478 24.925 106.207 21.7241 106.207H12.069C8.86808 106.207 5.79828 107.478 3.53491 109.742C1.27154 112.005 0 115.075 0 118.276L0 127.931C0 131.132 1.27154 134.202 3.53491 136.465C5.79828 138.728 8.86808 140 12.069 140ZM4.82759 127.931L4.82759 118.276C4.82759 116.355 5.59051 114.513 6.94854 113.155C8.30656 111.797 10.1484 111.034 12.069 111.034H21.7241C23.6447 111.034 25.4865 111.797 26.8446 113.155C28.2026 114.513 28.9655 116.355 28.9655 118.276L28.9655 127.931C28.9655 129.852 28.2026 131.693 26.8446 133.051C25.4865 134.409 23.6447 135.172 21.7241 135.172H12.069C10.1484 135.172 8.30656 134.409 6.94854 133.051C5.59051 131.693 4.82759 129.852 4.82759 127.931Z" fill="black" fill-opacity="0.7"/>
<path d="M115.862 16.8967C115.862 20.896 119.104 24.138 123.103 24.138C127.103 24.138 130.345 20.896 130.345 16.8967C130.345 12.8973 127.103 9.65527 123.103 9.65527C119.104 9.65527 115.862 12.8973 115.862 16.8967Z" fill="black" fill-opacity="0.7"/>
<path d="M127.931 0L118.276 0C115.075 0 112.005 1.27154 109.742 3.53491C107.478 5.79828 106.207 8.86808 106.207 12.069V21.7241C106.207 24.925 107.478 27.9948 109.742 30.2582C112.005 32.5216 115.075 33.7931 118.276 33.7931H127.931C131.132 33.7931 134.202 32.5216 136.465 30.2582C138.728 27.9948 140 24.925 140 21.7241V12.069C140 8.86808 138.728 5.79828 136.465 3.53491C134.202 1.27154 131.132 0 127.931 0ZM135.172 12.069V21.7241C135.172 23.6447 134.409 25.4865 133.051 26.8446C131.693 28.2026 129.852 28.9655 127.931 28.9655L118.276 28.9655C116.355 28.9655 114.513 28.2026 113.155 26.8446C111.797 25.4865 111.034 23.6447 111.034 21.7241V12.069C111.034 10.1484 111.797 8.30656 113.155 6.94854C114.513 5.59051 116.355 4.82759 118.276 4.82759L127.931 4.82759C129.852 4.82759 131.693 5.59051 133.051 6.94854C134.409 8.30656 135.172 10.1484 135.172 12.069Z" fill="black" fill-opacity="0.7"/>
<path d="M16.8967 24.138C20.896 24.138 24.138 20.896 24.138 16.8967C24.138 12.8973 20.896 9.65527 16.8967 9.65527C12.8973 9.65527 9.65527 12.8973 9.65527 16.8967C9.65527 20.896 12.8973 24.138 16.8967 24.138Z" fill="black" fill-opacity="0.7"/>
<path d="M0 12.069V21.7241C0 24.925 1.27155 27.9948 3.53492 30.2582C5.79829 32.5216 8.86808 33.7931 12.069 33.7931H21.7241C24.925 33.7931 27.9948 32.5216 30.2582 30.2582C32.5216 27.9948 33.7931 24.925 33.7931 21.7241V12.069C33.7931 8.86808 32.5216 5.79829 30.2582 3.53492C27.9948 1.27155 24.925 0 21.7241 0H12.069C8.86808 0 5.79829 1.27155 3.53492 3.53492C1.27155 5.79829 0 8.86808 0 12.069ZM12.069 4.82759H21.7241C23.6447 4.82759 25.4865 5.59051 26.8446 6.94854C28.2026 8.30656 28.9655 10.1484 28.9655 12.069V21.7241C28.9655 23.6447 28.2026 25.4865 26.8446 26.8446C25.4865 28.2026 23.6447 28.9655 21.7241 28.9655H12.069C10.1484 28.9655 8.30656 28.2026 6.94854 26.8446C5.59051 25.4865 4.82759 23.6447 4.82759 21.7241V12.069C4.82759 10.1484 5.59051 8.30656 6.94854 6.94854C8.30656 5.59051 10.1484 4.82759 12.069 4.82759Z" fill="black" fill-opacity="0.7"/>
<path d="M55.5173 4.82759C56.8504 4.82759 57.9311 3.74689 57.9311 2.41379C57.9311 1.08069 56.8504 0 55.5173 0C54.1842 0 53.1035 1.08069 53.1035 2.41379C53.1035 3.74689 54.1842 4.82759 55.5173 4.82759Z" fill="black" fill-opacity="0.7"/>
<path d="M65.1726 4.82759C66.5057 4.82759 67.5864 3.74689 67.5864 2.41379C67.5864 1.08069 66.5057 0 65.1726 0C63.8395 0 62.7588 1.08069 62.7588 2.41379C62.7588 3.74689 63.8395 4.82759 65.1726 4.82759Z" fill="black" fill-opacity="0.7"/>
<path d="M70.0002 4.82759C71.3333 4.82759 72.414 3.74689 72.414 2.41379C72.414 1.08069 71.3333 0 70.0002 0C68.6671 0 67.5864 1.08069 67.5864 2.41379C67.5864 3.74689 68.6671 4.82759 70.0002 4.82759Z" fill="black" fill-opacity="0.7"/>
<path d="M74.8274 4.82759C76.1605 4.82759 77.2412 3.74689 77.2412 2.41379C77.2412 1.08069 76.1605 0 74.8274 0C73.4943 0 72.4136 1.08069 72.4136 2.41379C72.4136 3.74689 73.4943 4.82759 74.8274 4.82759Z" fill="black" fill-opacity="0.7"/>
<path d="M79.655 4.82759C80.9881 4.82759 82.0688 3.74689 82.0688 2.41379C82.0688 1.08069 80.9881 0 79.655 0C78.3219 0 77.2412 1.08069 77.2412 2.41379C77.2412 3.74689 78.3219 4.82759 79.655 4.82759Z" fill="black" fill-opacity="0.7"/>
<path d="M84.4826 4.82759C85.8157 4.82759 86.8964 3.74689 86.8964 2.41379C86.8964 1.08069 85.8157 0 84.4826 0C83.1495 0 82.0688 1.08069 82.0688 2.41379C82.0688 3.74689 83.1495 4.82759 84.4826 4.82759Z" fill="black" fill-opacity="0.7"/>
<path d="M89.3103 4.82759C90.6434 4.82759 91.7241 3.74689 91.7241 2.41379C91.7241 1.08069 90.6434 0 89.3103 0C87.9772 0 86.8965 1.08069 86.8965 2.41379C86.8965 3.74689 87.9772 4.82759 89.3103 4.82759Z" fill="black" fill-opacity="0.7"/>
<path d="M94.1379 4.82759C95.471 4.82759 96.5517 3.74689 96.5517 2.41379C96.5517 1.08069 95.471 0 94.1379 0C92.8048 0 91.7241 1.08069 91.7241 2.41379C91.7241 3.74689 92.8048 4.82759 94.1379 4.82759Z" fill="black" fill-opacity="0.7"/>
<path d="M45.862 9.65473C47.1951 9.65473 48.2758 8.57404 48.2758 7.24094C48.2758 5.90784 47.1951 4.82715 45.862 4.82715C44.5289 4.82715 43.4482 5.90784 43.4482 7.24094C43.4482 8.57404 44.5289 9.65473 45.862 9.65473Z" fill="black" fill-opacity="0.7"/>
<path d="M50.6897 9.65473C52.0228 9.65473 53.1035 8.57404 53.1035 7.24094C53.1035 5.90784 52.0228 4.82715 50.6897 4.82715C49.3566 4.82715 48.2759 5.90784 48.2759 7.24094C48.2759 8.57404 49.3566 9.65473 50.6897 9.65473Z" fill="black" fill-opacity="0.7"/>
<path d="M65.1726 9.65473C66.5057 9.65473 67.5864 8.57404 67.5864 7.24094C67.5864 5.90784 66.5057 4.82715 65.1726 4.82715C63.8395 4.82715 62.7588 5.90784 62.7588 7.24094C62.7588 8.57404 63.8395 9.65473 65.1726 9.65473Z" fill="black" fill-opacity="0.7"/>
<path d="M69.9997 9.65473C71.3328 9.65473 72.4135 8.57404 72.4135 7.24094C72.4135 5.90784 71.3328 4.82715 69.9997 4.82715C68.6666 4.82715 67.5859 5.90784 67.5859 7.24094C67.5859 8.57404 68.6666 9.65473 69.9997 9.65473Z" fill="black" fill-opacity="0.7"/>
<path d="M79.655 9.65473C80.9881 9.65473 82.0688 8.57404 82.0688 7.24094C82.0688 5.90784 80.9881 4.82715 79.655 4.82715C78.3219 4.82715 77.2412 5.90784 77.2412 7.24094C77.2412 8.57404 78.3219 9.65473 79.655 9.65473Z" fill="black" fill-opacity="0.7"/>
<path d="M98.9656 9.65473C100.299 9.65473 101.379 8.57404 101.379 7.24094C101.379 5.90784 100.299 4.82715 98.9656 4.82715C97.6324 4.82715 96.5518 5.90784 96.5518 7.24094C96.5518 8.57404 97.6324 9.65473 98.9656 9.65473Z" fill="black" fill-opacity="0.7"/>
<path d="M41.0344 14.4829C42.3675 14.4829 43.4482 13.4022 43.4482 12.0691C43.4482 10.736 42.3675 9.65527 41.0344 9.65527C39.7013 9.65527 38.6206 10.736 38.6206 12.0691C38.6206 13.4022 39.7013 14.4829 41.0344 14.4829Z" fill="black" fill-opacity="0.7"/>
<path d="M45.862 14.4829C47.1951 14.4829 48.2758 13.4022 48.2758 12.0691C48.2758 10.736 47.1951 9.65527 45.862 9.65527C44.5289 9.65527 43.4482 10.736 43.4482 12.0691C43.4482 13.4022 44.5289 14.4829 45.862 14.4829Z" fill="black" fill-opacity="0.7"/>
<path d="M55.5173 14.4829C56.8504 14.4829 57.9311 13.4022 57.9311 12.0691C57.9311 10.736 56.8504 9.65527 55.5173 9.65527C54.1842 9.65527 53.1035 10.736 53.1035 12.0691C53.1035 13.4022 54.1842 14.4829 55.5173 14.4829Z" fill="black" fill-opacity="0.7"/>
<path d="M70.0002 14.4829C71.3333 14.4829 72.414 13.4022 72.414 12.0691C72.414 10.736 71.3333 9.65527 70.0002 9.65527C68.6671 9.65527 67.5864 10.736 67.5864 12.0691C67.5864 13.4022 68.6671 14.4829 70.0002 14.4829Z" fill="black" fill-opacity="0.7"/>
<path d="M79.655 14.4829C80.9881 14.4829 82.0688 13.4022 82.0688 12.0691C82.0688 10.736 80.9881 9.65527 79.655 9.65527C78.3219 9.65527 77.2412 10.736 77.2412 12.0691C77.2412 13.4022 78.3219 14.4829 79.655 14.4829Z" fill="black" fill-opacity="0.7"/>
<path d="M84.4826 14.4829C85.8157 14.4829 86.8964 13.4022 86.8964 12.0691C86.8964 10.736 85.8157 9.65527 84.4826 9.65527C83.1495 9.65527 82.0688 10.736 82.0688 12.0691C82.0688 13.4022 83.1495 14.4829 84.4826 14.4829Z" fill="black" fill-opacity="0.7"/>
<path d="M89.3103 14.4829C90.6434 14.4829 91.7241 13.4022 91.7241 12.0691C91.7241 10.736 90.6434 9.65527 89.3103 9.65527C87.9772 9.65527 86.8965 10.736 86.8965 12.0691C86.8965 13.4022 87.9772 14.4829 89.3103 14.4829Z" fill="black" fill-opacity="0.7"/>
<path d="M94.1379 14.4829C95.471 14.4829 96.5517 13.4022 96.5517 12.0691C96.5517 10.736 95.471 9.65527 94.1379 9.65527C92.8048 9.65527 91.7241 10.736 91.7241 12.0691C91.7241 13.4022 92.8048 14.4829 94.1379 14.4829Z" fill="black" fill-opacity="0.7"/>
<path d="M98.9656 14.4829C100.299 14.4829 101.379 13.4022 101.379 12.0691C101.379 10.736 100.299 9.65527 98.9656 9.65527C97.6324 9.65527 96.5518 10.736 96.5518 12.0691C96.5518 13.4022 97.6324 14.4829 98.9656 14.4829Z" fill="black" fill-opacity="0.7"/>
<path d="M45.862 19.31C47.1951 19.31 48.2758 18.2293 48.2758 16.8962C48.2758 15.5631 47.1951 14.4824 45.862 14.4824C44.5289 14.4824 43.4482 15.5631 43.4482 16.8962C43.4482 18.2293 44.5289 19.31 45.862 19.31Z" fill="black" fill-opacity="0.7"/>
<path d="M60.3449 19.31C61.678 19.31 62.7587 18.2293 62.7587 16.8962C62.7587 15.5631 61.678 14.4824 60.3449 14.4824C59.0118 14.4824 57.9312 15.5631 57.9312 16.8962C57.9312 18.2293 59.0118 19.31 60.3449 19.31Z" fill="black" fill-opacity="0.7"/>
<path d="M89.3103 19.31C90.6434 19.31 91.7241 18.2293 91.7241 16.8962C91.7241 15.5631 90.6434 14.4824 89.3103 14.4824C87.9772 14.4824 86.8965 15.5631 86.8965 16.8962C86.8965 18.2293 87.9772 19.31 89.3103 19.31Z" fill="black" fill-opacity="0.7"/>
<path d="M94.1379 19.31C95.471 19.31 96.5517 18.2293 96.5517 16.8962C96.5517 15.5631 95.471 14.4824 94.1379 14.4824C92.8048 14.4824 91.7241 15.5631 91.7241 16.8962C91.7241 18.2293 92.8048 19.31 94.1379 19.31Z" fill="black" fill-opacity="0.7"/>
<path d="M41.0344 24.1381C42.3675 24.1381 43.4482 23.0574 43.4482 21.7243C43.4482 20.3912 42.3675 19.3105 41.0344 19.3105C39.7013 19.3105 38.6206 20.3912 38.6206 21.7243C38.6206 23.0574 39.7013 24.1381 41.0344 24.1381Z" fill="black" fill-opacity="0.7"/>
<path d="M55.5173 24.1381C56.8504 24.1381 57.9311 23.0574 57.9311 21.7243C57.9311 20.3912 56.8504 19.3105 55.5173 19.3105C54.1842 19.3105 53.1035 20.3912 53.1035 21.7243C53.1035 23.0574 54.1842 24.1381 55.5173 24.1381Z" fill="black" fill-opacity="0.7"/>
<path d="M60.3449 24.1381C61.678 24.1381 62.7587 23.0574 62.7587 21.7243C62.7587 20.3912 61.678 19.3105 60.3449 19.3105C59.0118 19.3105 57.9312 20.3912 57.9312 21.7243C57.9312 23.0574 59.0118 24.1381 60.3449 24.1381Z" fill="black" fill-opacity="0.7"/>
<path d="M70.0002 24.1381C71.3333 24.1381 72.414 23.0574 72.414 21.7243C72.414 20.3912 71.3333 19.3105 70.0002 19.3105C68.6671 19.3105 67.5864 20.3912 67.5864 21.7243C67.5864 23.0574 68.6671 24.1381 70.0002 24.1381Z" fill="black" fill-opacity="0.7"/>
<path d="M79.655 24.1381C80.9881 24.1381 82.0688 23.0574 82.0688 21.7243C82.0688 20.3912 80.9881 19.3105 79.655 19.3105C78.3219 19.3105 77.2412 20.3912 77.2412 21.7243C77.2412 23.0574 78.3219 24.1381 79.655 24.1381Z" fill="black" fill-opacity="0.7"/>
<path d="M89.3103 24.1381C90.6434 24.1381 91.7241 23.0574 91.7241 21.7243C91.7241 20.3912 90.6434 19.3105 89.3103 19.3105C87.9772 19.3105 86.8965 20.3912 86.8965 21.7243C86.8965 23.0574 87.9772 24.1381 89.3103 24.1381Z" fill="black" fill-opacity="0.7"/>
<path d="M41.0344 28.9653C42.3675 28.9653 43.4482 27.8846 43.4482 26.5515C43.4482 25.2184 42.3675 24.1377 41.0344 24.1377C39.7013 24.1377 38.6206 25.2184 38.6206 26.5515C38.6206 27.8846 39.7013 28.9653 41.0344 28.9653Z" fill="black" fill-opacity="0.7"/>
<path d="M55.5173 28.9653C56.8504 28.9653 57.9311 27.8846 57.9311 26.5515C57.9311 25.2184 56.8504 24.1377 55.5173 24.1377C54.1842 24.1377 53.1035 25.2184 53.1035 26.5515C53.1035 27.8846 54.1842 28.9653 55.5173 28.9653Z" fill="black" fill-opacity="0.7"/>
<path d="M70.0002 28.9653C71.3333 28.9653 72.414 27.8846 72.414 26.5515C72.414 25.2184 71.3333 24.1377 70.0002 24.1377C68.6671 24.1377 67.5864 25.2184 67.5864 26.5515C67.5864 27.8846 68.6671 28.9653 70.0002 28.9653Z" fill="black" fill-opacity="0.7"/>
<path d="M74.8274 28.9653C76.1605 28.9653 77.2412 27.8846 77.2412 26.5515C77.2412 25.2184 76.1605 24.1377 74.8274 24.1377C73.4943 24.1377 72.4136 25.2184 72.4136 26.5515C72.4136 27.8846 73.4943 28.9653 74.8274 28.9653Z" fill="black" fill-opacity="0.7"/>
<path d="M79.655 28.9653C80.9881 28.9653 82.0688 27.8846 82.0688 26.5515C82.0688 25.2184 80.9881 24.1377 79.655 24.1377C78.3219 24.1377 77.2412 25.2184 77.2412 26.5515C77.2412 27.8846 78.3219 28.9653 79.655 28.9653Z" fill="black" fill-opacity="0.7"/>
<path d="M89.3103 28.9653C90.6434 28.9653 91.7241 27.8846 91.7241 26.5515C91.7241 25.2184 90.6434 24.1377 89.3103 24.1377C87.9772 24.1377 86.8965 25.2184 86.8965 26.5515C86.8965 27.8846 87.9772 28.9653 89.3103 28.9653Z" fill="black" fill-opacity="0.7"/>
<path d="M94.1379 28.9653C95.471 28.9653 96.5517 27.8846 96.5517 26.5515C96.5517 25.2184 95.471 24.1377 94.1379 24.1377C92.8048 24.1377 91.7241 25.2184 91.7241 26.5515C91.7241 27.8846 92.8048 28.9653 94.1379 28.9653Z" fill="black" fill-opacity="0.7"/>
<path d="M98.9656 28.9653C100.299 28.9653 101.379 27.8846 101.379 26.5515C101.379 25.2184 100.299 24.1377 98.9656 24.1377C97.6324 24.1377 96.5518 25.2184 96.5518 26.5515C96.5518 27.8846 97.6324 28.9653 98.9656 28.9653Z" fill="black" fill-opacity="0.7"/>
<path d="M41.0344 33.7934C42.3675 33.7934 43.4482 32.7127 43.4482 31.3796C43.4482 30.0465 42.3675 28.9658 41.0344 28.9658C39.7013 28.9658 38.6206 30.0465 38.6206 31.3796C38.6206 32.7127 39.7013 33.7934 41.0344 33.7934Z" fill="black" fill-opacity="0.7"/>
<path d="M50.6897 33.7934C52.0228 33.7934 53.1035 32.7127 53.1035 31.3796C53.1035 30.0465 52.0228 28.9658 50.6897 28.9658C49.3566 28.9658 48.2759 30.0465 48.2759 31.3796C48.2759 32.7127 49.3566 33.7934 50.6897 33.7934Z" fill="black" fill-opacity="0.7"/>
<path d="M60.3449 33.7934C61.678 33.7934 62.7587 32.7127 62.7587 31.3796C62.7587 30.0465 61.678 28.9658 60.3449 28.9658C59.0118 28.9658 57.9312 30.0465 57.9312 31.3796C57.9312 32.7127 59.0118 33.7934 60.3449 33.7934Z" fill="black" fill-opacity="0.7"/>
<path d="M69.9997 33.7934C71.3328 33.7934 72.4135 32.7127 72.4135 31.3796C72.4135 30.0465 71.3328 28.9658 69.9997 28.9658C68.6666 28.9658 67.5859 30.0465 67.5859 31.3796C67.5859 32.7127 68.6666 33.7934 69.9997 33.7934Z" fill="black" fill-opacity="0.7"/>
<path d="M79.655 33.7934C80.9881 33.7934 82.0688 32.7127 82.0688 31.3796C82.0688 30.0465 80.9881 28.9658 79.655 28.9658C78.3219 28.9658 77.2412 30.0465 77.2412 31.3796C77.2412 32.7127 78.3219 33.7934 79.655 33.7934Z" fill="black" fill-opacity="0.7"/>
<path d="M89.3103 33.7934C90.6434 33.7934 91.7241 32.7127 91.7241 31.3796C91.7241 30.0465 90.6434 28.9658 89.3103 28.9658C87.9772 28.9658 86.8965 30.0465 86.8965 31.3796C86.8965 32.7127 87.9772 33.7934 89.3103 33.7934Z" fill="black" fill-opacity="0.7"/>
<path d="M98.9656 33.7934C100.299 33.7934 101.379 32.7127 101.379 31.3796C101.379 30.0465 100.299 28.9658 98.9656 28.9658C97.6324 28.9658 96.5518 30.0465 96.5518 31.3796C96.5518 32.7127 97.6324 33.7934 98.9656 33.7934Z" fill="black" fill-opacity="0.7"/>
<path d="M45.862 38.6206C47.1951 38.6206 48.2758 37.5399 48.2758 36.2068C48.2758 34.8737 47.1951 33.793 45.862 33.793C44.5289 33.793 43.4482 34.8737 43.4482 36.2068C43.4482 37.5399 44.5289 38.6206 45.862 38.6206Z" fill="black" fill-opacity="0.7"/>
<path d="M50.6897 38.6206C52.0228 38.6206 53.1035 37.5399 53.1035 36.2068C53.1035 34.8737 52.0228 33.793 50.6897 33.793C49.3566 33.793 48.2759 34.8737 48.2759 36.2068C48.2759 37.5399 49.3566 38.6206 50.6897 38.6206Z" fill="black" fill-opacity="0.7"/>
<path d="M55.5173 38.6206C56.8504 38.6206 57.9311 37.5399 57.9311 36.2068C57.9311 34.8737 56.8504 33.793 55.5173 33.793C54.1842 33.793 53.1035 34.8737 53.1035 36.2068C53.1035 37.5399 54.1842 38.6206 55.5173 38.6206Z" fill="black" fill-opacity="0.7"/>
<path d="M60.3449 38.6206C61.678 38.6206 62.7587 37.5399 62.7587 36.2068C62.7587 34.8737 61.678 33.793 60.3449 33.793C59.0118 33.793 57.9312 34.8737 57.9312 36.2068C57.9312 37.5399 59.0118 38.6206 60.3449 38.6206Z" fill="black" fill-opacity="0.7"/>
<path d="M65.1726 38.6206C66.5057 38.6206 67.5864 37.5399 67.5864 36.2068C67.5864 34.8737 66.5057 33.793 65.1726 33.793C63.8395 33.793 62.7588 34.8737 62.7588 36.2068C62.7588 37.5399 63.8395 38.6206 65.1726 38.6206Z" fill="black" fill-opacity="0.7"/>
<path d="M70.0002 38.6206C71.3333 38.6206 72.414 37.5399 72.414 36.2068C72.414 34.8737 71.3333 33.793 70.0002 33.793C68.6671 33.793 67.5864 34.8737 67.5864 36.2068C67.5864 37.5399 68.6671 38.6206 70.0002 38.6206Z" fill="black" fill-opacity="0.7"/>
<path d="M74.8274 38.6206C76.1605 38.6206 77.2412 37.5399 77.2412 36.2068C77.2412 34.8737 76.1605 33.793 74.8274 33.793C73.4943 33.793 72.4136 34.8737 72.4136 36.2068C72.4136 37.5399 73.4943 38.6206 74.8274 38.6206Z" fill="black" fill-opacity="0.7"/>
<path d="M84.4826 38.6206C85.8157 38.6206 86.8964 37.5399 86.8964 36.2068C86.8964 34.8737 85.8157 33.793 84.4826 33.793C83.1495 33.793 82.0688 34.8737 82.0688 36.2068C82.0688 37.5399 83.1495 38.6206 84.4826 38.6206Z" fill="black" fill-opacity="0.7"/>
<path d="M89.3103 38.6206C90.6434 38.6206 91.7241 37.5399 91.7241 36.2068C91.7241 34.8737 90.6434 33.793 89.3103 33.793C87.9772 33.793 86.8965 34.8737 86.8965 36.2068C86.8965 37.5399 87.9772 38.6206 89.3103 38.6206Z" fill="black" fill-opacity="0.7"/>
<path d="M94.1379 38.6206C95.471 38.6206 96.5517 37.5399 96.5517 36.2068C96.5517 34.8737 95.471 33.793 94.1379 33.793C92.8048 33.793 91.7241 34.8737 91.7241 36.2068C91.7241 37.5399 92.8048 38.6206 94.1379 38.6206Z" fill="black" fill-opacity="0.7"/>
<path d="M98.9656 38.6206C100.299 38.6206 101.379 37.5399 101.379 36.2068C101.379 34.8737 100.299 33.793 98.9656 33.793C97.6324 33.793 96.5518 34.8737 96.5518 36.2068C96.5518 37.5399 97.6324 38.6206 98.9656 38.6206Z" fill="black" fill-opacity="0.7"/>
<path d="M7.24143 43.4477C8.57453 43.4477 9.65522 42.367 9.65522 41.0339C9.65522 39.7008 8.57453 38.6201 7.24143 38.6201C5.90833 38.6201 4.82764 39.7008 4.82764 41.0339C4.82764 42.367 5.90833 43.4477 7.24143 43.4477Z" fill="black" fill-opacity="0.7"/>
<path d="M21.7243 43.4477C23.0574 43.4477 24.1381 42.367 24.1381 41.0339C24.1381 39.7008 23.0574 38.6201 21.7243 38.6201C20.3912 38.6201 19.3105 39.7008 19.3105 41.0339C19.3105 42.367 20.3912 43.4477 21.7243 43.4477Z" fill="black" fill-opacity="0.7"/>
<path d="M31.3791 43.4477C32.7122 43.4477 33.7929 42.367 33.7929 41.0339C33.7929 39.7008 32.7122 38.6201 31.3791 38.6201C30.046 38.6201 28.9653 39.7008 28.9653 41.0339C28.9653 42.367 30.046 43.4477 31.3791 43.4477Z" fill="black" fill-opacity="0.7"/>
<path d="M41.0344 43.4477C42.3675 43.4477 43.4482 42.367 43.4482 41.0339C43.4482 39.7008 42.3675 38.6201 41.0344 38.6201C39.7013 38.6201 38.6206 39.7008 38.6206 41.0339C38.6206 42.367 39.7013 43.4477 41.0344 43.4477Z" fill="black" fill-opacity="0.7"/>
<path d="M55.5173 43.4477C56.8504 43.4477 57.9311 42.367 57.9311 41.0339C57.9311 39.7008 56.8504 38.6201 55.5173 38.6201C54.1842 38.6201 53.1035 39.7008 53.1035 41.0339C53.1035 42.367 54.1842 43.4477 55.5173 43.4477Z" fill="black" fill-opacity="0.7"/>
<path d="M60.3449 43.4477C61.678 43.4477 62.7587 42.367 62.7587 41.0339C62.7587 39.7008 61.678 38.6201 60.3449 38.6201C59.0118 38.6201 57.9312 39.7008 57.9312 41.0339C57.9312 42.367 59.0118 43.4477 60.3449 43.4477Z" fill="black" fill-opacity="0.7"/>
<path d="M89.3103 43.4477C90.6434 43.4477 91.7241 42.367 91.7241 41.0339C91.7241 39.7008 90.6434 38.6201 89.3103 38.6201C87.9772 38.6201 86.8965 39.7008 86.8965 41.0339C86.8965 42.367 87.9772 43.4477 89.3103 43.4477Z" fill="black" fill-opacity="0.7"/>
<path d="M103.793 43.4477C105.126 43.4477 106.207 42.367 106.207 41.0339C106.207 39.7008 105.126 38.6201 103.793 38.6201C102.46 38.6201 101.379 39.7008 101.379 41.0339C101.379 42.367 102.46 43.4477 103.793 43.4477Z" fill="black" fill-opacity="0.7"/>
<path d="M113.448 43.4477C114.781 43.4477 115.862 42.367 115.862 41.0339C115.862 39.7008 114.781 38.6201 113.448 38.6201C112.115 38.6201 111.034 39.7008 111.034 41.0339C111.034 42.367 112.115 43.4477 113.448 43.4477Z" fill="black" fill-opacity="0.7"/>
<path d="M118.276 43.4477C119.609 43.4477 120.69 42.367 120.69 41.0339C120.69 39.7008 119.609 38.6201 118.276 38.6201C116.943 38.6201 115.862 39.7008 115.862 41.0339C115.862 42.367 116.943 43.4477 118.276 43.4477Z" fill="black" fill-opacity="0.7"/>
<path d="M127.931 43.4477C129.264 43.4477 130.345 42.367 130.345 41.0339C130.345 39.7008 129.264 38.6201 127.931 38.6201C126.598 38.6201 125.518 39.7008 125.518 41.0339C125.518 42.367 126.598 43.4477 127.931 43.4477Z" fill="black" fill-opacity="0.7"/>
<path d="M7.24143 48.2758C8.57453 48.2758 9.65522 47.1951 9.65522 45.862C9.65522 44.5289 8.57453 43.4482 7.24143 43.4482C5.90833 43.4482 4.82764 44.5289 4.82764 45.862C4.82764 47.1951 5.90833 48.2758 7.24143 48.2758Z" fill="black" fill-opacity="0.7"/>
<path d="M16.8967 48.2758C18.2298 48.2758 19.3105 47.1951 19.3105 45.862C19.3105 44.5289 18.2298 43.4482 16.8967 43.4482C15.5636 43.4482 14.4829 44.5289 14.4829 45.862C14.4829 47.1951 15.5636 48.2758 16.8967 48.2758Z" fill="black" fill-opacity="0.7"/>
<path d="M41.0344 48.2758C42.3675 48.2758 43.4482 47.1951 43.4482 45.862C43.4482 44.5289 42.3675 43.4482 41.0344 43.4482C39.7013 43.4482 38.6206 44.5289 38.6206 45.862C38.6206 47.1951 39.7013 48.2758 41.0344 48.2758Z" fill="black" fill-opacity="0.7"/>
<path d="M45.862 48.2758C47.1951 48.2758 48.2758 47.1951 48.2758 45.862C48.2758 44.5289 47.1951 43.4482 45.862 43.4482C44.5289 43.4482 43.4482 44.5289 43.4482 45.862C43.4482 47.1951 44.5289 48.2758 45.862 48.2758Z" fill="black" fill-opacity="0.7"/>
<path d="M60.3449 48.2758C61.678 48.2758 62.7587 47.1951 62.7587 45.862C62.7587 44.5289 61.678 43.4482 60.3449 43.4482C59.0118 43.4482 57.9312 44.5289 57.9312 45.862C57.9312 47.1951 59.0118 48.2758 60.3449 48.2758Z" fill="black" fill-opacity="0.7"/>
<path d="M79.655 48.2758C80.9881 48.2758 82.0688 47.1951 82.0688 45.862C82.0688 44.5289 80.9881 43.4482 79.655 43.4482C78.3219 43.4482 77.2412 44.5289 77.2412 45.862C77.2412 47.1951 78.3219 48.2758 79.655 48.2758Z" fill="black" fill-opacity="0.7"/>
<path d="M94.1379 48.2758C95.471 48.2758 96.5517 47.1951 96.5517 45.862C96.5517 44.5289 95.471 43.4482 94.1379 43.4482C92.8048 43.4482 91.7241 44.5289 91.7241 45.862C91.7241 47.1951 92.8048 48.2758 94.1379 48.2758Z" fill="black" fill-opacity="0.7"/>
<path d="M98.9656 48.2758C100.299 48.2758 101.379 47.1951 101.379 45.862C101.379 44.5289 100.299 43.4482 98.9656 43.4482C97.6324 43.4482 96.5518 44.5289 96.5518 45.862C96.5518 47.1951 97.6324 48.2758 98.9656 48.2758Z" fill="black" fill-opacity="0.7"/>
<path d="M118.276 48.2758C119.609 48.2758 120.69 47.1951 120.69 45.862C120.69 44.5289 119.609 43.4482 118.276 43.4482C116.943 43.4482 115.862 44.5289 115.862 45.862C115.862 47.1951 116.943 48.2758 118.276 48.2758Z" fill="black" fill-opacity="0.7"/>
<path d="M127.931 48.2758C129.264 48.2758 130.345 47.1951 130.345 45.862C130.345 44.5289 129.264 43.4482 127.931 43.4482C126.598 43.4482 125.517 44.5289 125.517 45.862C125.517 47.1951 126.598 48.2758 127.931 48.2758Z" fill="black" fill-opacity="0.7"/>
<path d="M132.759 48.2758C134.092 48.2758 135.172 47.1951 135.172 45.862C135.172 44.5289 134.092 43.4482 132.759 43.4482C131.425 43.4482 130.345 44.5289 130.345 45.862C130.345 47.1951 131.425 48.2758 132.759 48.2758Z" fill="black" fill-opacity="0.7"/>
<path d="M137.586 48.2758C138.919 48.2758 140 47.1951 140 45.862C140 44.5289 138.919 43.4482 137.586 43.4482C136.253 43.4482 135.172 44.5289 135.172 45.862C135.172 47.1951 136.253 48.2758 137.586 48.2758Z" fill="black" fill-opacity="0.7"/>
<path d="M12.0691 53.104C13.4022 53.104 14.4829 52.0233 14.4829 50.6902C14.4829 49.3571 13.4022 48.2764 12.0691 48.2764C10.736 48.2764 9.65527 49.3571 9.65527 50.6902C9.65527 52.0233 10.736 53.104 12.0691 53.104Z" fill="black" fill-opacity="0.7"/>
<path d="M31.3791 53.104C32.7122 53.104 33.7929 52.0233 33.7929 50.6902C33.7929 49.3571 32.7122 48.2764 31.3791 48.2764C30.046 48.2764 28.9653 49.3571 28.9653 50.6902C28.9653 52.0233 30.046 53.104 31.3791 53.104Z" fill="black" fill-opacity="0.7"/>
<path d="M45.862 53.104C47.1951 53.104 48.2758 52.0233 48.2758 50.6902C48.2758 49.3571 47.1951 48.2764 45.862 48.2764C44.5289 48.2764 43.4482 49.3571 43.4482 50.6902C43.4482 52.0233 44.5289 53.104 45.862 53.104Z" fill="black" fill-opacity="0.7"/>
<path d="M60.3449 53.104C61.678 53.104 62.7587 52.0233 62.7587 50.6902C62.7587 49.3571 61.678 48.2764 60.3449 48.2764C59.0118 48.2764 57.9312 49.3571 57.9312 50.6902C57.9312 52.0233 59.0118 53.104 60.3449 53.104Z" fill="black" fill-opacity="0.7"/>
<path d="M65.1726 53.104C66.5057 53.104 67.5864 52.0233 67.5864 50.6902C67.5864 49.3571 66.5057 48.2764 65.1726 48.2764C63.8395 48.2764 62.7588 49.3571 62.7588 50.6902C62.7588 52.0233 63.8395 53.104 65.1726 53.104Z" fill="black" fill-opacity="0.7"/>
<path d="M74.8279 53.104C76.161 53.104 77.2416 52.0233 77.2416 50.6902C77.2416 49.3571 76.161 48.2764 74.8279 48.2764C73.4948 48.2764 72.4141 49.3571 72.4141 50.6902C72.4141 52.0233 73.4948 53.104 74.8279 53.104Z" fill="black" fill-opacity="0.7"/>
<path d="M84.4826 53.104C85.8157 53.104 86.8964 52.0233 86.8964 50.6902C86.8964 49.3571 85.8157 48.2764 84.4826 48.2764C83.1495 48.2764 82.0688 49.3571 82.0688 50.6902C82.0688 52.0233 83.1495 53.104 84.4826 53.104Z" fill="black" fill-opacity="0.7"/>
<path d="M89.3103 53.104C90.6434 53.104 91.7241 52.0233 91.7241 50.6902C91.7241 49.3571 90.6434 48.2764 89.3103 48.2764C87.9772 48.2764 86.8965 49.3571 86.8965 50.6902C86.8965 52.0233 87.9772 53.104 89.3103 53.104Z" fill="black" fill-opacity="0.7"/>
<path d="M98.9656 53.104C100.299 53.104 101.379 52.0233 101.379 50.6902C101.379 49.3571 100.299 48.2764 98.9656 48.2764C97.6324 48.2764 96.5518 49.3571 96.5518 50.6902C96.5518 52.0233 97.6324 53.104 98.9656 53.104Z" fill="black" fill-opacity="0.7"/>
<path d="M103.793 53.104C105.126 53.104 106.207 52.0233 106.207 50.6902C106.207 49.3571 105.126 48.2764 103.793 48.2764C102.46 48.2764 101.379 49.3571 101.379 50.6902C101.379 52.0233 102.46 53.104 103.793 53.104Z" fill="black" fill-opacity="0.7"/>
<path d="M113.448 53.104C114.781 53.104 115.862 52.0233 115.862 50.6902C115.862 49.3571 114.781 48.2764 113.448 48.2764C112.115 48.2764 111.034 49.3571 111.034 50.6902C111.034 52.0233 112.115 53.104 113.448 53.104Z" fill="black" fill-opacity="0.7"/>
<path d="M118.276 53.104C119.609 53.104 120.69 52.0233 120.69 50.6902C120.69 49.3571 119.609 48.2764 118.276 48.2764C116.943 48.2764 115.862 49.3571 115.862 50.6902C115.862 52.0233 116.943 53.104 118.276 53.104Z" fill="black" fill-opacity="0.7"/>
<path d="M137.586 53.104C138.919 53.104 140 52.0233 140 50.6902C140 49.3571 138.919 48.2764 137.586 48.2764C136.253 48.2764 135.172 49.3571 135.172 50.6902C135.172 52.0233 136.253 53.104 137.586 53.104Z" fill="black" fill-opacity="0.7"/>
<path d="M21.7243 57.9311C23.0574 57.9311 24.1381 56.8504 24.1381 55.5173C24.1381 54.1842 23.0574 53.1035 21.7243 53.1035C20.3912 53.1035 19.3105 54.1842 19.3105 55.5173C19.3105 56.8504 20.3912 57.9311 21.7243 57.9311Z" fill="black" fill-opacity="0.7"/>
<path d="M26.5515 57.9311C27.8846 57.9311 28.9653 56.8504 28.9653 55.5173C28.9653 54.1842 27.8846 53.1035 26.5515 53.1035C25.2184 53.1035 24.1377 54.1842 24.1377 55.5173C24.1377 56.8504 25.2184 57.9311 26.5515 57.9311Z" fill="black" fill-opacity="0.7"/>
<path d="M36.2068 57.9311C37.5399 57.9311 38.6206 56.8504 38.6206 55.5173C38.6206 54.1842 37.5399 53.1035 36.2068 53.1035C34.8737 53.1035 33.793 54.1842 33.793 55.5173C33.793 56.8504 34.8737 57.9311 36.2068 57.9311Z" fill="black" fill-opacity="0.7"/>
<path d="M41.0344 57.9311C42.3675 57.9311 43.4482 56.8504 43.4482 55.5173C43.4482 54.1842 42.3675 53.1035 41.0344 53.1035C39.7013 53.1035 38.6206 54.1842 38.6206 55.5173C38.6206 56.8504 39.7013 57.9311 41.0344 57.9311Z" fill="black" fill-opacity="0.7"/>
<path d="M50.6897 57.9311C52.0228 57.9311 53.1035 56.8504 53.1035 55.5173C53.1035 54.1842 52.0228 53.1035 50.6897 53.1035C49.3566 53.1035 48.2759 54.1842 48.2759 55.5173C48.2759 56.8504 49.3566 57.9311 50.6897 57.9311Z" fill="black" fill-opacity="0.7"/>
<path d="M55.5173 57.9311C56.8504 57.9311 57.9311 56.8504 57.9311 55.5173C57.9311 54.1842 56.8504 53.1035 55.5173 53.1035C54.1842 53.1035 53.1035 54.1842 53.1035 55.5173C53.1035 56.8504 54.1842 57.9311 55.5173 57.9311Z" fill="black" fill-opacity="0.7"/>
<path d="M65.1726 57.9311C66.5057 57.9311 67.5864 56.8504 67.5864 55.5173C67.5864 54.1842 66.5057 53.1035 65.1726 53.1035C63.8395 53.1035 62.7588 54.1842 62.7588 55.5173C62.7588 56.8504 63.8395 57.9311 65.1726 57.9311Z" fill="black" fill-opacity="0.7"/>
<path d="M70.0002 57.9311C71.3333 57.9311 72.414 56.8504 72.414 55.5173C72.414 54.1842 71.3333 53.1035 70.0002 53.1035C68.6671 53.1035 67.5864 54.1842 67.5864 55.5173C67.5864 56.8504 68.6671 57.9311 70.0002 57.9311Z" fill="black" fill-opacity="0.7"/>
<path d="M79.655 57.9311C80.9881 57.9311 82.0688 56.8504 82.0688 55.5173C82.0688 54.1842 80.9881 53.1035 79.655 53.1035C78.3219 53.1035 77.2412 54.1842 77.2412 55.5173C77.2412 56.8504 78.3219 57.9311 79.655 57.9311Z" fill="black" fill-opacity="0.7"/>
<path d="M84.4826 57.9311C85.8157 57.9311 86.8964 56.8504 86.8964 55.5173C86.8964 54.1842 85.8157 53.1035 84.4826 53.1035C83.1495 53.1035 82.0688 54.1842 82.0688 55.5173C82.0688 56.8504 83.1495 57.9311 84.4826 57.9311Z" fill="black" fill-opacity="0.7"/>
<path d="M89.3103 57.9311C90.6434 57.9311 91.7241 56.8504 91.7241 55.5173C91.7241 54.1842 90.6434 53.1035 89.3103 53.1035C87.9772 53.1035 86.8965 54.1842 86.8965 55.5173C86.8965 56.8504 87.9772 57.9311 89.3103 57.9311Z" fill="black" fill-opacity="0.7"/>
<path d="M103.793 57.9311C105.126 57.9311 106.207 56.8504 106.207 55.5173C106.207 54.1842 105.126 53.1035 103.793 53.1035C102.46 53.1035 101.379 54.1842 101.379 55.5173C101.379 56.8504 102.46 57.9311 103.793 57.9311Z" fill="black" fill-opacity="0.7"/>
<path d="M113.448 57.9311C114.782 57.9311 115.862 56.8504 115.862 55.5173C115.862 54.1842 114.782 53.1035 113.448 53.1035C112.115 53.1035 111.035 54.1842 111.035 55.5173C111.035 56.8504 112.115 57.9311 113.448 57.9311Z" fill="black" fill-opacity="0.7"/>
<path d="M123.103 57.9311C124.436 57.9311 125.517 56.8504 125.517 55.5173C125.517 54.1842 124.436 53.1035 123.103 53.1035C121.77 53.1035 120.689 54.1842 120.689 55.5173C120.689 56.8504 121.77 57.9311 123.103 57.9311Z" fill="black" fill-opacity="0.7"/>
<path d="M132.759 57.9311C134.092 57.9311 135.172 56.8504 135.172 55.5173C135.172 54.1842 134.092 53.1035 132.759 53.1035C131.425 53.1035 130.345 54.1842 130.345 55.5173C130.345 56.8504 131.425 57.9311 132.759 57.9311Z" fill="black" fill-opacity="0.7"/>
<path d="M137.586 57.9311C138.919 57.9311 140 56.8504 140 55.5173C140 54.1842 138.919 53.1035 137.586 53.1035C136.253 53.1035 135.172 54.1842 135.172 55.5173C135.172 56.8504 136.253 57.9311 137.586 57.9311Z" fill="black" fill-opacity="0.7"/>
<path d="M12.0691 62.7582C13.4022 62.7582 14.4829 61.6776 14.4829 60.3445C14.4829 59.0114 13.4022 57.9307 12.0691 57.9307C10.736 57.9307 9.65527 59.0114 9.65527 60.3445C9.65527 61.6776 10.736 62.7582 12.0691 62.7582Z" fill="black" fill-opacity="0.7"/>
<path d="M21.7243 62.7582C23.0574 62.7582 24.1381 61.6776 24.1381 60.3445C24.1381 59.0114 23.0574 57.9307 21.7243 57.9307C20.3912 57.9307 19.3105 59.0114 19.3105 60.3445C19.3105 61.6776 20.3912 62.7582 21.7243 62.7582Z" fill="black" fill-opacity="0.7"/>
<path d="M26.5515 62.7582C27.8846 62.7582 28.9653 61.6776 28.9653 60.3445C28.9653 59.0114 27.8846 57.9307 26.5515 57.9307C25.2184 57.9307 24.1377 59.0114 24.1377 60.3445C24.1377 61.6776 25.2184 62.7582 26.5515 62.7582Z" fill="black" fill-opacity="0.7"/>
<path d="M31.3791 62.7582C32.7122 62.7582 33.7929 61.6776 33.7929 60.3445C33.7929 59.0114 32.7122 57.9307 31.3791 57.9307C30.046 57.9307 28.9653 59.0114 28.9653 60.3445C28.9653 61.6776 30.046 62.7582 31.3791 62.7582Z" fill="black" fill-opacity="0.7"/>
<path d="M45.862 62.7582C47.1951 62.7582 48.2758 61.6776 48.2758 60.3445C48.2758 59.0114 47.1951 57.9307 45.862 57.9307C44.5289 57.9307 43.4482 59.0114 43.4482 60.3445C43.4482 61.6776 44.5289 62.7582 45.862 62.7582Z" fill="black" fill-opacity="0.7"/>
<path d="M50.6897 62.7582C52.0228 62.7582 53.1035 61.6776 53.1035 60.3445C53.1035 59.0114 52.0228 57.9307 50.6897 57.9307C49.3566 57.9307 48.2759 59.0114 48.2759 60.3445C48.2759 61.6776 49.3566 62.7582 50.6897 62.7582Z" fill="black" fill-opacity="0.7"/>
<path d="M55.5173 62.7582C56.8504 62.7582 57.9311 61.6776 57.9311 60.3445C57.9311 59.0114 56.8504 57.9307 55.5173 57.9307C54.1842 57.9307 53.1035 59.0114 53.1035 60.3445C53.1035 61.6776 54.1842 62.7582 55.5173 62.7582Z" fill="black" fill-opacity="0.7"/>
<path d="M60.3449 62.7582C61.678 62.7582 62.7587 61.6776 62.7587 60.3445C62.7587 59.0114 61.678 57.9307 60.3449 57.9307C59.0118 57.9307 57.9312 59.0114 57.9312 60.3445C57.9312 61.6776 59.0118 62.7582 60.3449 62.7582Z" fill="black" fill-opacity="0.7"/>
<path d="M65.1726 62.7582C66.5057 62.7582 67.5864 61.6776 67.5864 60.3445C67.5864 59.0114 66.5057 57.9307 65.1726 57.9307C63.8395 57.9307 62.7588 59.0114 62.7588 60.3445C62.7588 61.6776 63.8395 62.7582 65.1726 62.7582Z" fill="black" fill-opacity="0.7"/>
<path d="M74.8279 62.7582C76.161 62.7582 77.2416 61.6776 77.2416 60.3445C77.2416 59.0114 76.161 57.9307 74.8279 57.9307C73.4948 57.9307 72.4141 59.0114 72.4141 60.3445C72.4141 61.6776 73.4948 62.7582 74.8279 62.7582Z" fill="black" fill-opacity="0.7"/>
<path d="M79.655 62.7582C80.9881 62.7582 82.0688 61.6776 82.0688 60.3445C82.0688 59.0114 80.9881 57.9307 79.655 57.9307C78.3219 57.9307 77.2412 59.0114 77.2412 60.3445C77.2412 61.6776 78.3219 62.7582 79.655 62.7582Z" fill="black" fill-opacity="0.7"/>
<path d="M84.4826 62.7582C85.8157 62.7582 86.8964 61.6776 86.8964 60.3445C86.8964 59.0114 85.8157 57.9307 84.4826 57.9307C83.1495 57.9307 82.0688 59.0114 82.0688 60.3445C82.0688 61.6776 83.1495 62.7582 84.4826 62.7582Z" fill="black" fill-opacity="0.7"/>
<path d="M89.3103 62.7582C90.6434 62.7582 91.7241 61.6776 91.7241 60.3445C91.7241 59.0114 90.6434 57.9307 89.3103 57.9307C87.9772 57.9307 86.8965 59.0114 86.8965 60.3445C86.8965 61.6776 87.9772 62.7582 89.3103 62.7582Z" fill="black" fill-opacity="0.7"/>
<path d="M94.1379 62.7582C95.471 62.7582 96.5517 61.6776 96.5517 60.3445C96.5517 59.0114 95.471 57.9307 94.1379 57.9307C92.8048 57.9307 91.7241 59.0114 91.7241 60.3445C91.7241 61.6776 92.8048 62.7582 94.1379 62.7582Z" fill="black" fill-opacity="0.7"/>
<path d="M98.9656 62.7582C100.299 62.7582 101.379 61.6776 101.379 60.3445C101.379 59.0114 100.299 57.9307 98.9656 57.9307C97.6324 57.9307 96.5518 59.0114 96.5518 60.3445C96.5518 61.6776 97.6324 62.7582 98.9656 62.7582Z" fill="black" fill-opacity="0.7"/>
<path d="M113.448 62.7582C114.781 62.7582 115.862 61.6776 115.862 60.3445C115.862 59.0114 114.781 57.9307 113.448 57.9307C112.115 57.9307 111.034 59.0114 111.034 60.3445C111.034 61.6776 112.115 62.7582 113.448 62.7582Z" fill="black" fill-opacity="0.7"/>
<path d="M123.103 62.7582C124.436 62.7582 125.517 61.6776 125.517 60.3445C125.517 59.0114 124.436 57.9307 123.103 57.9307C121.77 57.9307 120.689 59.0114 120.689 60.3445C120.689 61.6776 121.77 62.7582 123.103 62.7582Z" fill="black" fill-opacity="0.7"/>
<path d="M137.586 62.7582C138.919 62.7582 140 61.6776 140 60.3445C140 59.0114 138.919 57.9307 137.586 57.9307C136.253 57.9307 135.172 59.0114 135.172 60.3445C135.172 61.6776 136.253 62.7582 137.586 62.7582Z" fill="black" fill-opacity="0.7"/>
<path d="M21.7243 67.5864C23.0574 67.5864 24.1381 66.5057 24.1381 65.1726C24.1381 63.8395 23.0574 62.7588 21.7243 62.7588C20.3912 62.7588 19.3105 63.8395 19.3105 65.1726C19.3105 66.5057 20.3912 67.5864 21.7243 67.5864Z" fill="black" fill-opacity="0.7"/>
<path d="M26.5515 67.5864C27.8846 67.5864 28.9653 66.5057 28.9653 65.1726C28.9653 63.8395 27.8846 62.7588 26.5515 62.7588C25.2184 62.7588 24.1377 63.8395 24.1377 65.1726C24.1377 66.5057 25.2184 67.5864 26.5515 67.5864Z" fill="black" fill-opacity="0.7"/>
<path d="M36.2068 67.5864C37.5399 67.5864 38.6206 66.5057 38.6206 65.1726C38.6206 63.8395 37.5399 62.7588 36.2068 62.7588C34.8737 62.7588 33.793 63.8395 33.793 65.1726C33.793 66.5057 34.8737 67.5864 36.2068 67.5864Z" fill="black" fill-opacity="0.7"/>
<path d="M50.6897 67.5864C52.0228 67.5864 53.1035 66.5057 53.1035 65.1726C53.1035 63.8395 52.0228 62.7588 50.6897 62.7588C49.3566 62.7588 48.2759 63.8395 48.2759 65.1726C48.2759 66.5057 49.3566 67.5864 50.6897 67.5864Z" fill="black" fill-opacity="0.7"/>
<path d="M55.5173 67.5864C56.8504 67.5864 57.9311 66.5057 57.9311 65.1726C57.9311 63.8395 56.8504 62.7588 55.5173 62.7588C54.1842 62.7588 53.1035 63.8395 53.1035 65.1726C53.1035 66.5057 54.1842 67.5864 55.5173 67.5864Z" fill="black" fill-opacity="0.7"/>
<path d="M65.1726 67.5864C66.5057 67.5864 67.5864 66.5057 67.5864 65.1726C67.5864 63.8395 66.5057 62.7588 65.1726 62.7588C63.8395 62.7588 62.7588 63.8395 62.7588 65.1726C62.7588 66.5057 63.8395 67.5864 65.1726 67.5864Z" fill="black" fill-opacity="0.7"/>
<path d="M84.4826 67.5864C85.8157 67.5864 86.8964 66.5057 86.8964 65.1726C86.8964 63.8395 85.8157 62.7588 84.4826 62.7588C83.1495 62.7588 82.0688 63.8395 82.0688 65.1726C82.0688 66.5057 83.1495 67.5864 84.4826 67.5864Z" fill="black" fill-opacity="0.7"/>
<path d="M89.3103 67.5864C90.6434 67.5864 91.7241 66.5057 91.7241 65.1726C91.7241 63.8395 90.6434 62.7588 89.3103 62.7588C87.9772 62.7588 86.8965 63.8395 86.8965 65.1726C86.8965 66.5057 87.9772 67.5864 89.3103 67.5864Z" fill="black" fill-opacity="0.7"/>
<path d="M98.9656 67.5864C100.299 67.5864 101.379 66.5057 101.379 65.1726C101.379 63.8395 100.299 62.7588 98.9656 62.7588C97.6324 62.7588 96.5518 63.8395 96.5518 65.1726C96.5518 66.5057 97.6324 67.5864 98.9656 67.5864Z" fill="black" fill-opacity="0.7"/>
<path d="M108.621 67.5864C109.954 67.5864 111.035 66.5057 111.035 65.1726C111.035 63.8395 109.954 62.7588 108.621 62.7588C107.288 62.7588 106.207 63.8395 106.207 65.1726C106.207 66.5057 107.288 67.5864 108.621 67.5864Z" fill="black" fill-opacity="0.7"/>
<path d="M118.276 67.5864C119.609 67.5864 120.69 66.5057 120.69 65.1726C120.69 63.8395 119.609 62.7588 118.276 62.7588C116.943 62.7588 115.862 63.8395 115.862 65.1726C115.862 66.5057 116.943 67.5864 118.276 67.5864Z" fill="black" fill-opacity="0.7"/>
<path d="M127.931 67.5864C129.264 67.5864 130.345 66.5057 130.345 65.1726C130.345 63.8395 129.264 62.7588 127.931 62.7588C126.598 62.7588 125.518 63.8395 125.518 65.1726C125.518 66.5057 126.598 67.5864 127.931 67.5864Z" fill="black" fill-opacity="0.7"/>
<path d="M132.759 67.5864C134.092 67.5864 135.172 66.5057 135.172 65.1726C135.172 63.8395 134.092 62.7588 132.759 62.7588C131.425 62.7588 130.345 63.8395 130.345 65.1726C130.345 66.5057 131.425 67.5864 132.759 67.5864Z" fill="black" fill-opacity="0.7"/>
<path d="M137.586 67.5864C138.919 67.5864 140 66.5057 140 65.1726C140 63.8395 138.919 62.7588 137.586 62.7588C136.253 62.7588 135.172 63.8395 135.172 65.1726C135.172 66.5057 136.253 67.5864 137.586 67.5864Z" fill="black" fill-opacity="0.7"/>
<path d="M7.24143 72.4135C8.57453 72.4135 9.65522 71.3328 9.65522 69.9997C9.65522 68.6666 8.57453 67.5859 7.24143 67.5859C5.90833 67.5859 4.82764 68.6666 4.82764 69.9997C4.82764 71.3328 5.90833 72.4135 7.24143 72.4135Z" fill="black" fill-opacity="0.7"/>
<path d="M31.3791 72.4135C32.7122 72.4135 33.7929 71.3328 33.7929 69.9997C33.7929 68.6666 32.7122 67.5859 31.3791 67.5859C30.046 67.5859 28.9653 68.6666 28.9653 69.9997C28.9653 71.3328 30.046 72.4135 31.3791 72.4135Z" fill="black" fill-opacity="0.7"/>
<path d="M36.2068 72.4135C37.5399 72.4135 38.6206 71.3328 38.6206 69.9997C38.6206 68.6666 37.5399 67.5859 36.2068 67.5859C34.8737 67.5859 33.793 68.6666 33.793 69.9997C33.793 71.3328 34.8737 72.4135 36.2068 72.4135Z" fill="black" fill-opacity="0.7"/>
<path d="M41.0344 72.4135C42.3675 72.4135 43.4482 71.3328 43.4482 69.9997C43.4482 68.6666 42.3675 67.5859 41.0344 67.5859C39.7013 67.5859 38.6206 68.6666 38.6206 69.9997C38.6206 71.3328 39.7013 72.4135 41.0344 72.4135Z" fill="black" fill-opacity="0.7"/>
<path d="M55.5173 72.4135C56.8504 72.4135 57.9311 71.3328 57.9311 69.9997C57.9311 68.6666 56.8504 67.5859 55.5173 67.5859C54.1842 67.5859 53.1035 68.6666 53.1035 69.9997C53.1035 71.3328 54.1842 72.4135 55.5173 72.4135Z" fill="black" fill-opacity="0.7"/>
<path d="M70.0002 72.4135C71.3333 72.4135 72.414 71.3328 72.414 69.9997C72.414 68.6666 71.3333 67.5859 70.0002 67.5859C68.6671 67.5859 67.5864 68.6666 67.5864 69.9997C67.5864 71.3328 68.6671 72.4135 70.0002 72.4135Z" fill="black" fill-opacity="0.7"/>
<path d="M74.8274 72.4135C76.1605 72.4135 77.2412 71.3328 77.2412 69.9997C77.2412 68.6666 76.1605 67.5859 74.8274 67.5859C73.4943 67.5859 72.4136 68.6666 72.4136 69.9997C72.4136 71.3328 73.4943 72.4135 74.8274 72.4135Z" fill="black" fill-opacity="0.7"/>
<path d="M79.655 72.4135C80.9881 72.4135 82.0688 71.3328 82.0688 69.9997C82.0688 68.6666 80.9881 67.5859 79.655 67.5859C78.3219 67.5859 77.2412 68.6666 77.2412 69.9997C77.2412 71.3328 78.3219 72.4135 79.655 72.4135Z" fill="black" fill-opacity="0.7"/>
<path d="M89.3103 72.4135C90.6434 72.4135 91.7241 71.3328 91.7241 69.9997C91.7241 68.6666 90.6434 67.5859 89.3103 67.5859C87.9772 67.5859 86.8965 68.6666 86.8965 69.9997C86.8965 71.3328 87.9772 72.4135 89.3103 72.4135Z" fill="black" fill-opacity="0.7"/>
<path d="M118.276 72.4135C119.609 72.4135 120.69 71.3328 120.69 69.9997C120.69 68.6666 119.609 67.5859 118.276 67.5859C116.943 67.5859 115.862 68.6666 115.862 69.9997C115.862 71.3328 116.943 72.4135 118.276 72.4135Z" fill="black" fill-opacity="0.7"/>
<path d="M137.586 72.4135C138.919 72.4135 140 71.3328 140 69.9997C140 68.6666 138.919 67.5859 137.586 67.5859C136.253 67.5859 135.172 68.6666 135.172 69.9997C135.172 71.3328 136.253 72.4135 137.586 72.4135Z" fill="black" fill-opacity="0.7"/>
<path d="M2.41379 77.2416C3.74689 77.2416 4.82759 76.161 4.82759 74.8279C4.82759 73.4948 3.74689 72.4141 2.41379 72.4141C1.08069 72.4141 0 73.4948 0 74.8279C0 76.161 1.08069 77.2416 2.41379 77.2416Z" fill="black" fill-opacity="0.7"/>
<path d="M7.24143 77.2416C8.57453 77.2416 9.65522 76.161 9.65522 74.8279C9.65522 73.4948 8.57453 72.4141 7.24143 72.4141C5.90833 72.4141 4.82764 73.4948 4.82764 74.8279C4.82764 76.161 5.90833 77.2416 7.24143 77.2416Z" fill="black" fill-opacity="0.7"/>
<path d="M16.8967 77.2416C18.2298 77.2416 19.3105 76.161 19.3105 74.8279C19.3105 73.4948 18.2298 72.4141 16.8967 72.4141C15.5636 72.4141 14.4829 73.4948 14.4829 74.8279C14.4829 76.161 15.5636 77.2416 16.8967 77.2416Z" fill="black" fill-opacity="0.7"/>
<path d="M26.5515 77.2416C27.8846 77.2416 28.9653 76.161 28.9653 74.8279C28.9653 73.4948 27.8846 72.4141 26.5515 72.4141C25.2184 72.4141 24.1377 73.4948 24.1377 74.8279C24.1377 76.161 25.2184 77.2416 26.5515 77.2416Z" fill="black" fill-opacity="0.7"/>
<path d="M41.0344 77.2416C42.3675 77.2416 43.4482 76.161 43.4482 74.8279C43.4482 73.4948 42.3675 72.4141 41.0344 72.4141C39.7013 72.4141 38.6206 73.4948 38.6206 74.8279C38.6206 76.161 39.7013 77.2416 41.0344 77.2416Z" fill="black" fill-opacity="0.7"/>
<path d="M55.5173 77.2416C56.8504 77.2416 57.9311 76.161 57.9311 74.8279C57.9311 73.4948 56.8504 72.4141 55.5173 72.4141C54.1842 72.4141 53.1035 73.4948 53.1035 74.8279C53.1035 76.161 54.1842 77.2416 55.5173 77.2416Z" fill="black" fill-opacity="0.7"/>
<path d="M65.1726 77.2416C66.5057 77.2416 67.5864 76.161 67.5864 74.8279C67.5864 73.4948 66.5057 72.4141 65.1726 72.4141C63.8395 72.4141 62.7588 73.4948 62.7588 74.8279C62.7588 76.161 63.8395 77.2416 65.1726 77.2416Z" fill="black" fill-opacity="0.7"/>
<path d="M70.0002 77.2416C71.3333 77.2416 72.414 76.161 72.414 74.8279C72.414 73.4948 71.3333 72.4141 70.0002 72.4141C68.6671 72.4141 67.5864 73.4948 67.5864 74.8279C67.5864 76.161 68.6671 77.2416 70.0002 77.2416Z" fill="black" fill-opacity="0.7"/>
<path d="M74.8274 77.2416C76.1605 77.2416 77.2412 76.161 77.2412 74.8279C77.2412 73.4948 76.1605 72.4141 74.8274 72.4141C73.4943 72.4141 72.4136 73.4948 72.4136 74.8279C72.4136 76.161 73.4943 77.2416 74.8274 77.2416Z" fill="black" fill-opacity="0.7"/>
<path d="M79.655 77.2416C80.9881 77.2416 82.0688 76.161 82.0688 74.8279C82.0688 73.4948 80.9881 72.4141 79.655 72.4141C78.3219 72.4141 77.2412 73.4948 77.2412 74.8279C77.2412 76.161 78.3219 77.2416 79.655 77.2416Z" fill="black" fill-opacity="0.7"/>
<path d="M98.9656 77.2416C100.299 77.2416 101.379 76.161 101.379 74.8279C101.379 73.4948 100.299 72.4141 98.9656 72.4141C97.6324 72.4141 96.5518 73.4948 96.5518 74.8279C96.5518 76.161 97.6324 77.2416 98.9656 77.2416Z" fill="black" fill-opacity="0.7"/>
<path d="M103.793 77.2416C105.126 77.2416 106.207 76.161 106.207 74.8279C106.207 73.4948 105.126 72.4141 103.793 72.4141C102.46 72.4141 101.379 73.4948 101.379 74.8279C101.379 76.161 102.46 77.2416 103.793 77.2416Z" fill="black" fill-opacity="0.7"/>
<path d="M113.448 77.2416C114.782 77.2416 115.862 76.161 115.862 74.8279C115.862 73.4948 114.782 72.4141 113.448 72.4141C112.115 72.4141 111.035 73.4948 111.035 74.8279C111.035 76.161 112.115 77.2416 113.448 77.2416Z" fill="black" fill-opacity="0.7"/>
<path d="M123.103 77.2416C124.436 77.2416 125.517 76.161 125.517 74.8279C125.517 73.4948 124.436 72.4141 123.103 72.4141C121.77 72.4141 120.689 73.4948 120.689 74.8279C120.689 76.161 121.77 77.2416 123.103 77.2416Z" fill="black" fill-opacity="0.7"/>
<path d="M7.24143 82.0688C8.57453 82.0688 9.65522 80.9881 9.65522 79.655C9.65522 78.3219 8.57453 77.2412 7.24143 77.2412C5.90833 77.2412 4.82764 78.3219 4.82764 79.655C4.82764 80.9881 5.90833 82.0688 7.24143 82.0688Z" fill="black" fill-opacity="0.7"/>
<path d="M16.8967 82.0688C18.2298 82.0688 19.3105 80.9881 19.3105 79.655C19.3105 78.3219 18.2298 77.2412 16.8967 77.2412C15.5636 77.2412 14.4829 78.3219 14.4829 79.655C14.4829 80.9881 15.5636 82.0688 16.8967 82.0688Z" fill="black" fill-opacity="0.7"/>
<path d="M26.5515 82.0688C27.8846 82.0688 28.9653 80.9881 28.9653 79.655C28.9653 78.3219 27.8846 77.2412 26.5515 77.2412C25.2184 77.2412 24.1377 78.3219 24.1377 79.655C24.1377 80.9881 25.2184 82.0688 26.5515 82.0688Z" fill="black" fill-opacity="0.7"/>
<path d="M31.3791 82.0688C32.7122 82.0688 33.7929 80.9881 33.7929 79.655C33.7929 78.3219 32.7122 77.2412 31.3791 77.2412C30.046 77.2412 28.9653 78.3219 28.9653 79.655C28.9653 80.9881 30.046 82.0688 31.3791 82.0688Z" fill="black" fill-opacity="0.7"/>
<path d="M45.862 82.0688C47.1951 82.0688 48.2758 80.9881 48.2758 79.655C48.2758 78.3219 47.1951 77.2412 45.862 77.2412C44.5289 77.2412 43.4482 78.3219 43.4482 79.655C43.4482 80.9881 44.5289 82.0688 45.862 82.0688Z" fill="black" fill-opacity="0.7"/>
<path d="M50.6897 82.0688C52.0228 82.0688 53.1035 80.9881 53.1035 79.655C53.1035 78.3219 52.0228 77.2412 50.6897 77.2412C49.3566 77.2412 48.2759 78.3219 48.2759 79.655C48.2759 80.9881 49.3566 82.0688 50.6897 82.0688Z" fill="black" fill-opacity="0.7"/>
<path d="M65.1726 82.0688C66.5057 82.0688 67.5864 80.9881 67.5864 79.655C67.5864 78.3219 66.5057 77.2412 65.1726 77.2412C63.8395 77.2412 62.7588 78.3219 62.7588 79.655C62.7588 80.9881 63.8395 82.0688 65.1726 82.0688Z" fill="black" fill-opacity="0.7"/>
<path d="M79.655 82.0688C80.9881 82.0688 82.0688 80.9881 82.0688 79.655C82.0688 78.3219 80.9881 77.2412 79.655 77.2412C78.3219 77.2412 77.2412 78.3219 77.2412 79.655C77.2412 80.9881 78.3219 82.0688 79.655 82.0688Z" fill="black" fill-opacity="0.7"/>
<path d="M94.1379 82.0688C95.471 82.0688 96.5517 80.9881 96.5517 79.655C96.5517 78.3219 95.471 77.2412 94.1379 77.2412C92.8048 77.2412 91.7241 78.3219 91.7241 79.655C91.7241 80.9881 92.8048 82.0688 94.1379 82.0688Z" fill="black" fill-opacity="0.7"/>
<path d="M98.9656 82.0688C100.299 82.0688 101.379 80.9881 101.379 79.655C101.379 78.3219 100.299 77.2412 98.9656 77.2412C97.6324 77.2412 96.5518 78.3219 96.5518 79.655C96.5518 80.9881 97.6324 82.0688 98.9656 82.0688Z" fill="black" fill-opacity="0.7"/>
<path d="M103.793 82.0688C105.126 82.0688 106.207 80.9881 106.207 79.655C106.207 78.3219 105.126 77.2412 103.793 77.2412C102.46 77.2412 101.379 78.3219 101.379 79.655C101.379 80.9881 102.46 82.0688 103.793 82.0688Z" fill="black" fill-opacity="0.7"/>
<path d="M108.621 82.0688C109.954 82.0688 111.035 80.9881 111.035 79.655C111.035 78.3219 109.954 77.2412 108.621 77.2412C107.288 77.2412 106.207 78.3219 106.207 79.655C106.207 80.9881 107.288 82.0688 108.621 82.0688Z" fill="black" fill-opacity="0.7"/>
<path d="M113.448 82.0688C114.781 82.0688 115.862 80.9881 115.862 79.655C115.862 78.3219 114.781 77.2412 113.448 77.2412C112.115 77.2412 111.034 78.3219 111.034 79.655C111.034 80.9881 112.115 82.0688 113.448 82.0688Z" fill="black" fill-opacity="0.7"/>
<path d="M2.41379 86.8969C3.74689 86.8969 4.82759 85.8162 4.82759 84.4831C4.82759 83.15 3.74689 82.0693 2.41379 82.0693C1.08069 82.0693 0 83.15 0 84.4831C0 85.8162 1.08069 86.8969 2.41379 86.8969Z" fill="black" fill-opacity="0.7"/>
<path d="M7.24143 86.8969C8.57453 86.8969 9.65522 85.8162 9.65522 84.4831C9.65522 83.15 8.57453 82.0693 7.24143 82.0693C5.90833 82.0693 4.82764 83.15 4.82764 84.4831C4.82764 85.8162 5.90833 86.8969 7.24143 86.8969Z" fill="black" fill-opacity="0.7"/>
<path d="M12.0691 86.8969C13.4022 86.8969 14.4829 85.8162 14.4829 84.4831C14.4829 83.15 13.4022 82.0693 12.0691 82.0693C10.736 82.0693 9.65527 83.15 9.65527 84.4831C9.65527 85.8162 10.736 86.8969 12.0691 86.8969Z" fill="black" fill-opacity="0.7"/>
<path d="M16.8967 86.8969C18.2298 86.8969 19.3105 85.8162 19.3105 84.4831C19.3105 83.15 18.2298 82.0693 16.8967 82.0693C15.5636 82.0693 14.4829 83.15 14.4829 84.4831C14.4829 85.8162 15.5636 86.8969 16.8967 86.8969Z" fill="black" fill-opacity="0.7"/>
<path d="M21.7243 86.8969C23.0574 86.8969 24.1381 85.8162 24.1381 84.4831C24.1381 83.15 23.0574 82.0693 21.7243 82.0693C20.3912 82.0693 19.3105 83.15 19.3105 84.4831C19.3105 85.8162 20.3912 86.8969 21.7243 86.8969Z" fill="black" fill-opacity="0.7"/>
<path d="M36.2068 86.8969C37.5399 86.8969 38.6206 85.8162 38.6206 84.4831C38.6206 83.15 37.5399 82.0693 36.2068 82.0693C34.8737 82.0693 33.793 83.15 33.793 84.4831C33.793 85.8162 34.8737 86.8969 36.2068 86.8969Z" fill="black" fill-opacity="0.7"/>
<path d="M45.862 86.8969C47.1951 86.8969 48.2758 85.8162 48.2758 84.4831C48.2758 83.15 47.1951 82.0693 45.862 82.0693C44.5289 82.0693 43.4482 83.15 43.4482 84.4831C43.4482 85.8162 44.5289 86.8969 45.862 86.8969Z" fill="black" fill-opacity="0.7"/>
<path d="M50.6897 86.8969C52.0228 86.8969 53.1035 85.8162 53.1035 84.4831C53.1035 83.15 52.0228 82.0693 50.6897 82.0693C49.3566 82.0693 48.2759 83.15 48.2759 84.4831C48.2759 85.8162 49.3566 86.8969 50.6897 86.8969Z" fill="black" fill-opacity="0.7"/>
<path d="M55.5173 86.8969C56.8504 86.8969 57.9311 85.8162 57.9311 84.4831C57.9311 83.15 56.8504 82.0693 55.5173 82.0693C54.1842 82.0693 53.1035 83.15 53.1035 84.4831C53.1035 85.8162 54.1842 86.8969 55.5173 86.8969Z" fill="black" fill-opacity="0.7"/>
<path d="M84.4826 86.8969C85.8157 86.8969 86.8964 85.8162 86.8964 84.4831C86.8964 83.15 85.8157 82.0693 84.4826 82.0693C83.1495 82.0693 82.0688 83.15 82.0688 84.4831C82.0688 85.8162 83.1495 86.8969 84.4826 86.8969Z" fill="black" fill-opacity="0.7"/>
<path d="M89.3103 86.8969C90.6434 86.8969 91.7241 85.8162 91.7241 84.4831C91.7241 83.15 90.6434 82.0693 89.3103 82.0693C87.9772 82.0693 86.8965 83.15 86.8965 84.4831C86.8965 85.8162 87.9772 86.8969 89.3103 86.8969Z" fill="black" fill-opacity="0.7"/>
<path d="M94.1379 86.8969C95.471 86.8969 96.5517 85.8162 96.5517 84.4831C96.5517 83.15 95.471 82.0693 94.1379 82.0693C92.8048 82.0693 91.7241 83.15 91.7241 84.4831C91.7241 85.8162 92.8048 86.8969 94.1379 86.8969Z" fill="black" fill-opacity="0.7"/>
<path d="M113.448 86.8969C114.781 86.8969 115.862 85.8162 115.862 84.4831C115.862 83.15 114.781 82.0693 113.448 82.0693C112.115 82.0693 111.034 83.15 111.034 84.4831C111.034 85.8162 112.115 86.8969 113.448 86.8969Z" fill="black" fill-opacity="0.7"/>
<path d="M118.276 86.8969C119.609 86.8969 120.69 85.8162 120.69 84.4831C120.69 83.15 119.609 82.0693 118.276 82.0693C116.943 82.0693 115.862 83.15 115.862 84.4831C115.862 85.8162 116.943 86.8969 118.276 86.8969Z" fill="black" fill-opacity="0.7"/>
<path d="M127.931 86.8969C129.264 86.8969 130.345 85.8162 130.345 84.4831C130.345 83.15 129.264 82.0693 127.931 82.0693C126.598 82.0693 125.518 83.15 125.518 84.4831C125.518 85.8162 126.598 86.8969 127.931 86.8969Z" fill="black" fill-opacity="0.7"/>
<path d="M137.586 86.8969C138.919 86.8969 140 85.8162 140 84.4831C140 83.15 138.919 82.0693 137.586 82.0693C136.253 82.0693 135.172 83.15 135.172 84.4831C135.172 85.8162 136.253 86.8969 137.586 86.8969Z" fill="black" fill-opacity="0.7"/>
<path d="M16.8967 91.7241C18.2298 91.7241 19.3105 90.6434 19.3105 89.3103C19.3105 87.9772 18.2298 86.8965 16.8967 86.8965C15.5636 86.8965 14.4829 87.9772 14.4829 89.3103C14.4829 90.6434 15.5636 91.7241 16.8967 91.7241Z" fill="black" fill-opacity="0.7"/>
<path d="M21.7243 91.7241C23.0574 91.7241 24.1381 90.6434 24.1381 89.3103C24.1381 87.9772 23.0574 86.8965 21.7243 86.8965C20.3912 86.8965 19.3105 87.9772 19.3105 89.3103C19.3105 90.6434 20.3912 91.7241 21.7243 91.7241Z" fill="black" fill-opacity="0.7"/>
<path d="M31.3791 91.7241C32.7122 91.7241 33.7929 90.6434 33.7929 89.3103C33.7929 87.9772 32.7122 86.8965 31.3791 86.8965C30.046 86.8965 28.9653 87.9772 28.9653 89.3103C28.9653 90.6434 30.046 91.7241 31.3791 91.7241Z" fill="black" fill-opacity="0.7"/>
<path d="M50.6897 91.7241C52.0228 91.7241 53.1035 90.6434 53.1035 89.3103C53.1035 87.9772 52.0228 86.8965 50.6897 86.8965C49.3566 86.8965 48.2759 87.9772 48.2759 89.3103C48.2759 90.6434 49.3566 91.7241 50.6897 91.7241Z" fill="black" fill-opacity="0.7"/>
<path d="M55.5173 91.7241C56.8504 91.7241 57.9311 90.6434 57.9311 89.3103C57.9311 87.9772 56.8504 86.8965 55.5173 86.8965C54.1842 86.8965 53.1035 87.9772 53.1035 89.3103C53.1035 90.6434 54.1842 91.7241 55.5173 91.7241Z" fill="black" fill-opacity="0.7"/>
<path d="M65.1726 91.7241C66.5057 91.7241 67.5864 90.6434 67.5864 89.3103C67.5864 87.9772 66.5057 86.8965 65.1726 86.8965C63.8395 86.8965 62.7588 87.9772 62.7588 89.3103C62.7588 90.6434 63.8395 91.7241 65.1726 91.7241Z" fill="black" fill-opacity="0.7"/>
<path d="M74.8274 91.7241C76.1605 91.7241 77.2412 90.6434 77.2412 89.3103C77.2412 87.9772 76.1605 86.8965 74.8274 86.8965C73.4943 86.8965 72.4136 87.9772 72.4136 89.3103C72.4136 90.6434 73.4943 91.7241 74.8274 91.7241Z" fill="black" fill-opacity="0.7"/>
<path d="M89.3103 91.7241C90.6434 91.7241 91.7241 90.6434 91.7241 89.3103C91.7241 87.9772 90.6434 86.8965 89.3103 86.8965C87.9772 86.8965 86.8965 87.9772 86.8965 89.3103C86.8965 90.6434 87.9772 91.7241 89.3103 91.7241Z" fill="black" fill-opacity="0.7"/>
<path d="M94.1379 91.7241C95.471 91.7241 96.5517 90.6434 96.5517 89.3103C96.5517 87.9772 95.471 86.8965 94.1379 86.8965C92.8048 86.8965 91.7241 87.9772 91.7241 89.3103C91.7241 90.6434 92.8048 91.7241 94.1379 91.7241Z" fill="black" fill-opacity="0.7"/>
<path d="M118.276 91.7241C119.609 91.7241 120.69 90.6434 120.69 89.3103C120.69 87.9772 119.609 86.8965 118.276 86.8965C116.943 86.8965 115.862 87.9772 115.862 89.3103C115.862 90.6434 116.943 91.7241 118.276 91.7241Z" fill="black" fill-opacity="0.7"/>
<path d="M123.103 91.7241C124.436 91.7241 125.517 90.6434 125.517 89.3103C125.517 87.9772 124.436 86.8965 123.103 86.8965C121.77 86.8965 120.689 87.9772 120.689 89.3103C120.689 90.6434 121.77 91.7241 123.103 91.7241Z" fill="black" fill-opacity="0.7"/>
<path d="M137.586 91.7241C138.919 91.7241 140 90.6434 140 89.3103C140 87.9772 138.919 86.8965 137.586 86.8965C136.253 86.8965 135.172 87.9772 135.172 89.3103C135.172 90.6434 136.253 91.7241 137.586 91.7241Z" fill="black" fill-opacity="0.7"/>
<path d="M12.0691 96.5512C13.4022 96.5512 14.4829 95.4705 14.4829 94.1374C14.4829 92.8043 13.4022 91.7236 12.0691 91.7236C10.736 91.7236 9.65527 92.8043 9.65527 94.1374C9.65527 95.4705 10.736 96.5512 12.0691 96.5512Z" fill="black" fill-opacity="0.7"/>
<path d="M21.7243 96.5512C23.0574 96.5512 24.1381 95.4705 24.1381 94.1374C24.1381 92.8043 23.0574 91.7236 21.7243 91.7236C20.3912 91.7236 19.3105 92.8043 19.3105 94.1374C19.3105 95.4705 20.3912 96.5512 21.7243 96.5512Z" fill="black" fill-opacity="0.7"/>
<path d="M41.0344 96.5512C42.3675 96.5512 43.4482 95.4705 43.4482 94.1374C43.4482 92.8043 42.3675 91.7236 41.0344 91.7236C39.7013 91.7236 38.6206 92.8043 38.6206 94.1374C38.6206 95.4705 39.7013 96.5512 41.0344 96.5512Z" fill="black" fill-opacity="0.7"/>
<path d="M74.8279 96.5512C76.161 96.5512 77.2416 95.4705 77.2416 94.1374C77.2416 92.8043 76.161 91.7236 74.8279 91.7236C73.4948 91.7236 72.4141 92.8043 72.4141 94.1374C72.4141 95.4705 73.4948 96.5512 74.8279 96.5512Z" fill="black" fill-opacity="0.7"/>
<path d="M79.655 96.5512C80.9881 96.5512 82.0688 95.4705 82.0688 94.1374C82.0688 92.8043 80.9881 91.7236 79.655 91.7236C78.3219 91.7236 77.2412 92.8043 77.2412 94.1374C77.2412 95.4705 78.3219 96.5512 79.655 96.5512Z" fill="black" fill-opacity="0.7"/>
<path d="M84.4826 96.5512C85.8157 96.5512 86.8964 95.4705 86.8964 94.1374C86.8964 92.8043 85.8157 91.7236 84.4826 91.7236C83.1495 91.7236 82.0688 92.8043 82.0688 94.1374C82.0688 95.4705 83.1495 96.5512 84.4826 96.5512Z" fill="black" fill-opacity="0.7"/>
<path d="M89.3103 96.5512C90.6434 96.5512 91.7241 95.4705 91.7241 94.1374C91.7241 92.8043 90.6434 91.7236 89.3103 91.7236C87.9772 91.7236 86.8965 92.8043 86.8965 94.1374C86.8965 95.4705 87.9772 96.5512 89.3103 96.5512Z" fill="black" fill-opacity="0.7"/>
<path d="M94.1379 96.5512C95.471 96.5512 96.5517 95.4705 96.5517 94.1374C96.5517 92.8043 95.471 91.7236 94.1379 91.7236C92.8048 91.7236 91.7241 92.8043 91.7241 94.1374C91.7241 95.4705 92.8048 96.5512 94.1379 96.5512Z" fill="black" fill-opacity="0.7"/>
<path d="M98.9656 96.5512C100.299 96.5512 101.379 95.4705 101.379 94.1374C101.379 92.8043 100.299 91.7236 98.9656 91.7236C97.6324 91.7236 96.5518 92.8043 96.5518 94.1374C96.5518 95.4705 97.6324 96.5512 98.9656 96.5512Z" fill="black" fill-opacity="0.7"/>
<path d="M113.448 96.5512C114.781 96.5512 115.862 95.4705 115.862 94.1374C115.862 92.8043 114.781 91.7236 113.448 91.7236C112.115 91.7236 111.034 92.8043 111.034 94.1374C111.034 95.4705 112.115 96.5512 113.448 96.5512Z" fill="black" fill-opacity="0.7"/>
<path d="M132.759 96.5512C134.092 96.5512 135.172 95.4705 135.172 94.1374C135.172 92.8043 134.092 91.7236 132.759 91.7236C131.425 91.7236 130.345 92.8043 130.345 94.1374C130.345 95.4705 131.425 96.5512 132.759 96.5512Z" fill="black" fill-opacity="0.7"/>
<path d="M2.41379 101.379C3.74689 101.379 4.82759 100.299 4.82759 98.9656C4.82759 97.6324 3.74689 96.5518 2.41379 96.5518C1.08069 96.5518 0 97.6324 0 98.9656C0 100.299 1.08069 101.379 2.41379 101.379Z" fill="black" fill-opacity="0.7"/>
<path d="M7.24143 101.379C8.57453 101.379 9.65522 100.299 9.65522 98.9656C9.65522 97.6324 8.57453 96.5518 7.24143 96.5518C5.90833 96.5518 4.82764 97.6324 4.82764 98.9656C4.82764 100.299 5.90833 101.379 7.24143 101.379Z" fill="black" fill-opacity="0.7"/>
<path d="M12.0691 101.379C13.4022 101.379 14.4829 100.299 14.4829 98.9656C14.4829 97.6324 13.4022 96.5518 12.0691 96.5518C10.736 96.5518 9.65527 97.6324 9.65527 98.9656C9.65527 100.299 10.736 101.379 12.0691 101.379Z" fill="black" fill-opacity="0.7"/>
<path d="M16.8967 101.379C18.2298 101.379 19.3105 100.299 19.3105 98.9656C19.3105 97.6324 18.2298 96.5518 16.8967 96.5518C15.5636 96.5518 14.4829 97.6324 14.4829 98.9656C14.4829 100.299 15.5636 101.379 16.8967 101.379Z" fill="black" fill-opacity="0.7"/>
<path d="M31.3791 101.379C32.7122 101.379 33.7929 100.299 33.7929 98.9656C33.7929 97.6324 32.7122 96.5518 31.3791 96.5518C30.046 96.5518 28.9653 97.6324 28.9653 98.9656C28.9653 100.299 30.046 101.379 31.3791 101.379Z" fill="black" fill-opacity="0.7"/>
<path d="M45.862 101.379C47.1951 101.379 48.2758 100.299 48.2758 98.9656C48.2758 97.6324 47.1951 96.5518 45.862 96.5518C44.5289 96.5518 43.4482 97.6324 43.4482 98.9656C43.4482 100.299 44.5289 101.379 45.862 101.379Z" fill="black" fill-opacity="0.7"/>
<path d="M50.6897 101.379C52.0228 101.379 53.1035 100.299 53.1035 98.9656C53.1035 97.6324 52.0228 96.5518 50.6897 96.5518C49.3566 96.5518 48.2759 97.6324 48.2759 98.9656C48.2759 100.299 49.3566 101.379 50.6897 101.379Z" fill="black" fill-opacity="0.7"/>
<path d="M60.3449 101.379C61.678 101.379 62.7587 100.299 62.7587 98.9656C62.7587 97.6324 61.678 96.5518 60.3449 96.5518C59.0118 96.5518 57.9312 97.6324 57.9312 98.9656C57.9312 100.299 59.0118 101.379 60.3449 101.379Z" fill="black" fill-opacity="0.7"/>
<path d="M70.0002 101.379C71.3333 101.379 72.414 100.299 72.414 98.9656C72.414 97.6324 71.3333 96.5518 70.0002 96.5518C68.6671 96.5518 67.5864 97.6324 67.5864 98.9656C67.5864 100.299 68.6671 101.379 70.0002 101.379Z" fill="black" fill-opacity="0.7"/>
<path d="M84.4826 101.379C85.8157 101.379 86.8964 100.299 86.8964 98.9656C86.8964 97.6324 85.8157 96.5518 84.4826 96.5518C83.1495 96.5518 82.0688 97.6324 82.0688 98.9656C82.0688 100.299 83.1495 101.379 84.4826 101.379Z" fill="black" fill-opacity="0.7"/>
<path d="M98.9656 101.379C100.299 101.379 101.379 100.299 101.379 98.9656C101.379 97.6324 100.299 96.5518 98.9656 96.5518C97.6324 96.5518 96.5518 97.6324 96.5518 98.9656C96.5518 100.299 97.6324 101.379 98.9656 101.379Z" fill="black" fill-opacity="0.7"/>
<path d="M103.793 101.379C105.126 101.379 106.207 100.299 106.207 98.9656C106.207 97.6324 105.126 96.5518 103.793 96.5518C102.46 96.5518 101.379 97.6324 101.379 98.9656C101.379 100.299 102.46 101.379 103.793 101.379Z" fill="black" fill-opacity="0.7"/>
<path d="M108.621 101.379C109.954 101.379 111.035 100.299 111.035 98.9656C111.035 97.6324 109.954 96.5518 108.621 96.5518C107.288 96.5518 106.207 97.6324 106.207 98.9656C106.207 100.299 107.288 101.379 108.621 101.379Z" fill="black" fill-opacity="0.7"/>
<path d="M113.448 101.379C114.782 101.379 115.862 100.299 115.862 98.9656C115.862 97.6324 114.782 96.5518 113.448 96.5518C112.115 96.5518 111.035 97.6324 111.035 98.9656C111.035 100.299 112.115 101.379 113.448 101.379Z" fill="black" fill-opacity="0.7"/>
<path d="M118.276 101.379C119.609 101.379 120.69 100.299 120.69 98.9656C120.69 97.6324 119.609 96.5518 118.276 96.5518C116.943 96.5518 115.862 97.6324 115.862 98.9656C115.862 100.299 116.943 101.379 118.276 101.379Z" fill="black" fill-opacity="0.7"/>
<path d="M132.759 101.379C134.092 101.379 135.172 100.299 135.172 98.9656C135.172 97.6324 134.092 96.5518 132.759 96.5518C131.425 96.5518 130.345 97.6324 130.345 98.9656C130.345 100.299 131.425 101.379 132.759 101.379Z" fill="black" fill-opacity="0.7"/>
<path d="M41.0344 106.207C42.3675 106.207 43.4482 105.127 43.4482 103.794C43.4482 102.461 42.3675 101.38 41.0344 101.38C39.7013 101.38 38.6206 102.461 38.6206 103.794C38.6206 105.127 39.7013 106.207 41.0344 106.207Z" fill="black" fill-opacity="0.7"/>
<path d="M45.862 106.207C47.1951 106.207 48.2758 105.127 48.2758 103.794C48.2758 102.461 47.1951 101.38 45.862 101.38C44.5289 101.38 43.4482 102.461 43.4482 103.794C43.4482 105.127 44.5289 106.207 45.862 106.207Z" fill="black" fill-opacity="0.7"/>
<path d="M69.9997 106.207C71.3328 106.207 72.4135 105.127 72.4135 103.794C72.4135 102.461 71.3328 101.38 69.9997 101.38C68.6666 101.38 67.5859 102.461 67.5859 103.794C67.5859 105.127 68.6666 106.207 69.9997 106.207Z" fill="black" fill-opacity="0.7"/>
<path d="M74.8279 106.207C76.161 106.207 77.2416 105.127 77.2416 103.794C77.2416 102.461 76.161 101.38 74.8279 101.38C73.4948 101.38 72.4141 102.461 72.4141 103.794C72.4141 105.127 73.4948 106.207 74.8279 106.207Z" fill="black" fill-opacity="0.7"/>
<path d="M79.655 106.207C80.9881 106.207 82.0688 105.127 82.0688 103.794C82.0688 102.461 80.9881 101.38 79.655 101.38C78.3219 101.38 77.2412 102.461 77.2412 103.794C77.2412 105.127 78.3219 106.207 79.655 106.207Z" fill="black" fill-opacity="0.7"/>
<path d="M98.9656 106.207C100.299 106.207 101.379 105.127 101.379 103.794C101.379 102.461 100.299 101.38 98.9656 101.38C97.6324 101.38 96.5518 102.461 96.5518 103.794C96.5518 105.127 97.6324 106.207 98.9656 106.207Z" fill="black" fill-opacity="0.7"/>
<path d="M118.276 106.207C119.609 106.207 120.69 105.127 120.69 103.794C120.69 102.461 119.609 101.38 118.276 101.38C116.943 101.38 115.862 102.461 115.862 103.794C115.862 105.127 116.943 106.207 118.276 106.207Z" fill="black" fill-opacity="0.7"/>
<path d="M127.931 106.207C129.264 106.207 130.345 105.127 130.345 103.794C130.345 102.461 129.264 101.38 127.931 101.38C126.598 101.38 125.518 102.461 125.518 103.794C125.518 105.127 126.598 106.207 127.931 106.207Z" fill="black" fill-opacity="0.7"/>
<path d="M132.759 106.207C134.092 106.207 135.172 105.127 135.172 103.794C135.172 102.461 134.092 101.38 132.759 101.38C131.425 101.38 130.345 102.461 130.345 103.794C130.345 105.127 131.425 106.207 132.759 106.207Z" fill="black" fill-opacity="0.7"/>
<path d="M137.586 106.207C138.919 106.207 140 105.127 140 103.794C140 102.461 138.919 101.38 137.586 101.38C136.253 101.38 135.172 102.461 135.172 103.794C135.172 105.127 136.253 106.207 137.586 106.207Z" fill="black" fill-opacity="0.7"/>
<path d="M45.862 111.035C47.1951 111.035 48.2758 109.954 48.2758 108.621C48.2758 107.288 47.1951 106.207 45.862 106.207C44.5289 106.207 43.4482 107.288 43.4482 108.621C43.4482 109.954 44.5289 111.035 45.862 111.035Z" fill="black" fill-opacity="0.7"/>
<path d="M50.6897 111.035C52.0228 111.035 53.1035 109.954 53.1035 108.621C53.1035 107.288 52.0228 106.207 50.6897 106.207C49.3566 106.207 48.2759 107.288 48.2759 108.621C48.2759 109.954 49.3566 111.035 50.6897 111.035Z" fill="black" fill-opacity="0.7"/>
<path d="M55.5173 111.035C56.8504 111.035 57.9311 109.954 57.9311 108.621C57.9311 107.288 56.8504 106.207 55.5173 106.207C54.1842 106.207 53.1035 107.288 53.1035 108.621C53.1035 109.954 54.1842 111.035 55.5173 111.035Z" fill="black" fill-opacity="0.7"/>
<path d="M65.1726 111.035C66.5057 111.035 67.5864 109.954 67.5864 108.621C67.5864 107.288 66.5057 106.207 65.1726 106.207C63.8395 106.207 62.7588 107.288 62.7588 108.621C62.7588 109.954 63.8395 111.035 65.1726 111.035Z" fill="black" fill-opacity="0.7"/>
<path d="M74.8274 111.035C76.1605 111.035 77.2412 109.954 77.2412 108.621C77.2412 107.288 76.1605 106.207 74.8274 106.207C73.4943 106.207 72.4136 107.288 72.4136 108.621C72.4136 109.954 73.4943 111.035 74.8274 111.035Z" fill="black" fill-opacity="0.7"/>
<path d="M84.4826 111.035C85.8157 111.035 86.8964 109.954 86.8964 108.621C86.8964 107.288 85.8157 106.207 84.4826 106.207C83.1495 106.207 82.0688 107.288 82.0688 108.621C82.0688 109.954 83.1495 111.035 84.4826 111.035Z" fill="black" fill-opacity="0.7"/>
<path d="M94.1379 111.035C95.471 111.035 96.5517 109.954 96.5517 108.621C96.5517 107.288 95.471 106.207 94.1379 106.207C92.8048 106.207 91.7241 107.288 91.7241 108.621C91.7241 109.954 92.8048 111.035 94.1379 111.035Z" fill="black" fill-opacity="0.7"/>
<path d="M98.9656 111.035C100.299 111.035 101.379 109.954 101.379 108.621C101.379 107.288 100.299 106.207 98.9656 106.207C97.6324 106.207 96.5518 107.288 96.5518 108.621C96.5518 109.954 97.6324 111.035 98.9656 111.035Z" fill="black" fill-opacity="0.7"/>
<path d="M108.621 111.035C109.954 111.035 111.035 109.954 111.035 108.621C111.035 107.288 109.954 106.207 108.621 106.207C107.288 106.207 106.207 107.288 106.207 108.621C106.207 109.954 107.288 111.035 108.621 111.035Z" fill="black" fill-opacity="0.7"/>
<path d="M118.276 111.035C119.609 111.035 120.69 109.954 120.69 108.621C120.69 107.288 119.609 106.207 118.276 106.207C116.943 106.207 115.862 107.288 115.862 108.621C115.862 109.954 116.943 111.035 118.276 111.035Z" fill="black" fill-opacity="0.7"/>
<path d="M137.586 111.035C138.919 111.035 140 109.954 140 108.621C140 107.288 138.919 106.207 137.586 106.207C136.253 106.207 135.172 107.288 135.172 108.621C135.172 109.954 136.253 111.035 137.586 111.035Z" fill="black" fill-opacity="0.7"/>
<path d="M45.862 115.862C47.1951 115.862 48.2758 114.781 48.2758 113.448C48.2758 112.115 47.1951 111.034 45.862 111.034C44.5289 111.034 43.4482 112.115 43.4482 113.448C43.4482 114.781 44.5289 115.862 45.862 115.862Z" fill="black" fill-opacity="0.7"/>
<path d="M50.6897 115.862C52.0228 115.862 53.1035 114.781 53.1035 113.448C53.1035 112.115 52.0228 111.034 50.6897 111.034C49.3566 111.034 48.2759 112.115 48.2759 113.448C48.2759 114.781 49.3566 115.862 50.6897 115.862Z" fill="black" fill-opacity="0.7"/>
<path d="M55.5173 115.862C56.8504 115.862 57.9311 114.781 57.9311 113.448C57.9311 112.115 56.8504 111.034 55.5173 111.034C54.1842 111.034 53.1035 112.115 53.1035 113.448C53.1035 114.781 54.1842 115.862 55.5173 115.862Z" fill="black" fill-opacity="0.7"/>
<path d="M65.1726 115.862C66.5057 115.862 67.5864 114.781 67.5864 113.448C67.5864 112.115 66.5057 111.034 65.1726 111.034C63.8395 111.034 62.7588 112.115 62.7588 113.448C62.7588 114.781 63.8395 115.862 65.1726 115.862Z" fill="black" fill-opacity="0.7"/>
<path d="M74.8279 115.862C76.161 115.862 77.2416 114.781 77.2416 113.448C77.2416 112.115 76.161 111.034 74.8279 111.034C73.4948 111.034 72.4141 112.115 72.4141 113.448C72.4141 114.781 73.4948 115.862 74.8279 115.862Z" fill="black" fill-opacity="0.7"/>
<path d="M84.4826 115.862C85.8157 115.862 86.8964 114.781 86.8964 113.448C86.8964 112.115 85.8157 111.034 84.4826 111.034C83.1495 111.034 82.0688 112.115 82.0688 113.448C82.0688 114.781 83.1495 115.862 84.4826 115.862Z" fill="black" fill-opacity="0.7"/>
<path d="M89.3103 115.862C90.6434 115.862 91.7241 114.781 91.7241 113.448C91.7241 112.115 90.6434 111.034 89.3103 111.034C87.9772 111.034 86.8965 112.115 86.8965 113.448C86.8965 114.781 87.9772 115.862 89.3103 115.862Z" fill="black" fill-opacity="0.7"/>
<path d="M94.1379 115.862C95.471 115.862 96.5517 114.781 96.5517 113.448C96.5517 112.115 95.471 111.034 94.1379 111.034C92.8048 111.034 91.7241 112.115 91.7241 113.448C91.7241 114.781 92.8048 115.862 94.1379 115.862Z" fill="black" fill-opacity="0.7"/>
<path d="M98.9656 115.862C100.299 115.862 101.379 114.781 101.379 113.448C101.379 112.115 100.299 111.034 98.9656 111.034C97.6324 111.034 96.5518 112.115 96.5518 113.448C96.5518 114.781 97.6324 115.862 98.9656 115.862Z" fill="black" fill-opacity="0.7"/>
<path d="M118.276 115.862C119.609 115.862 120.69 114.781 120.69 113.448C120.69 112.115 119.609 111.034 118.276 111.034C116.943 111.034 115.862 112.115 115.862 113.448C115.862 114.781 116.943 115.862 118.276 115.862Z" fill="black" fill-opacity="0.7"/>
<path d="M123.103 115.862C124.436 115.862 125.517 114.781 125.517 113.448C125.517 112.115 124.436 111.034 123.103 111.034C121.77 111.034 120.689 112.115 120.689 113.448C120.689 114.781 121.77 115.862 123.103 115.862Z" fill="black" fill-opacity="0.7"/>
<path d="M137.586 115.862C138.919 115.862 140 114.781 140 113.448C140 112.115 138.919 111.034 137.586 111.034C136.253 111.034 135.172 112.115 135.172 113.448C135.172 114.781 136.253 115.862 137.586 115.862Z" fill="black" fill-opacity="0.7"/>
<path d="M41.0344 120.69C42.3675 120.69 43.4482 119.609 43.4482 118.276C43.4482 116.943 42.3675 115.862 41.0344 115.862C39.7013 115.862 38.6206 116.943 38.6206 118.276C38.6206 119.609 39.7013 120.69 41.0344 120.69Z" fill="black" fill-opacity="0.7"/>
<path d="M50.6897 120.69C52.0228 120.69 53.1035 119.609 53.1035 118.276C53.1035 116.943 52.0228 115.862 50.6897 115.862C49.3566 115.862 48.2759 116.943 48.2759 118.276C48.2759 119.609 49.3566 120.69 50.6897 120.69Z" fill="black" fill-opacity="0.7"/>
<path d="M60.3449 120.69C61.678 120.69 62.7587 119.609 62.7587 118.276C62.7587 116.943 61.678 115.862 60.3449 115.862C59.0118 115.862 57.9312 116.943 57.9312 118.276C57.9312 119.609 59.0118 120.69 60.3449 120.69Z" fill="black" fill-opacity="0.7"/>
<path d="M65.1726 120.69C66.5057 120.69 67.5864 119.609 67.5864 118.276C67.5864 116.943 66.5057 115.862 65.1726 115.862C63.8395 115.862 62.7588 116.943 62.7588 118.276C62.7588 119.609 63.8395 120.69 65.1726 120.69Z" fill="black" fill-opacity="0.7"/>
<path d="M70.0002 120.69C71.3333 120.69 72.414 119.609 72.414 118.276C72.414 116.943 71.3333 115.862 70.0002 115.862C68.6671 115.862 67.5864 116.943 67.5864 118.276C67.5864 119.609 68.6671 120.69 70.0002 120.69Z" fill="black" fill-opacity="0.7"/>
<path d="M74.8274 120.69C76.1605 120.69 77.2412 119.609 77.2412 118.276C77.2412 116.943 76.1605 115.862 74.8274 115.862C73.4943 115.862 72.4136 116.943 72.4136 118.276C72.4136 119.609 73.4943 120.69 74.8274 120.69Z" fill="black" fill-opacity="0.7"/>
<path d="M89.3103 120.69C90.6434 120.69 91.7241 119.609 91.7241 118.276C91.7241 116.943 90.6434 115.862 89.3103 115.862C87.9772 115.862 86.8965 116.943 86.8965 118.276C86.8965 119.609 87.9772 120.69 89.3103 120.69Z" fill="black" fill-opacity="0.7"/>
<path d="M94.1379 120.69C95.471 120.69 96.5517 119.609 96.5517 118.276C96.5517 116.943 95.471 115.862 94.1379 115.862C92.8048 115.862 91.7241 116.943 91.7241 118.276C91.7241 119.609 92.8048 120.69 94.1379 120.69Z" fill="black" fill-opacity="0.7"/>
<path d="M98.9656 120.69C100.299 120.69 101.379 119.609 101.379 118.276C101.379 116.943 100.299 115.862 98.9656 115.862C97.6324 115.862 96.5518 116.943 96.5518 118.276C96.5518 119.609 97.6324 120.69 98.9656 120.69Z" fill="black" fill-opacity="0.7"/>
<path d="M103.793 120.69C105.126 120.69 106.207 119.609 106.207 118.276C106.207 116.943 105.126 115.862 103.793 115.862C102.46 115.862 101.379 116.943 101.379 118.276C101.379 119.609 102.46 120.69 103.793 120.69Z" fill="black" fill-opacity="0.7"/>
<path d="M108.621 120.69C109.954 120.69 111.035 119.609 111.035 118.276C111.035 116.943 109.954 115.862 108.621 115.862C107.288 115.862 106.207 116.943 106.207 118.276C106.207 119.609 107.288 120.69 108.621 120.69Z" fill="black" fill-opacity="0.7"/>
<path d="M113.448 120.69C114.782 120.69 115.862 119.609 115.862 118.276C115.862 116.943 114.782 115.862 113.448 115.862C112.115 115.862 111.035 116.943 111.035 118.276C111.035 119.609 112.115 120.69 113.448 120.69Z" fill="black" fill-opacity="0.7"/>
<path d="M118.276 120.69C119.609 120.69 120.69 119.609 120.69 118.276C120.69 116.943 119.609 115.862 118.276 115.862C116.943 115.862 115.862 116.943 115.862 118.276C115.862 119.609 116.943 120.69 118.276 120.69Z" fill="black" fill-opacity="0.7"/>
<path d="M132.759 120.69C134.092 120.69 135.172 119.609 135.172 118.276C135.172 116.943 134.092 115.862 132.759 115.862C131.425 115.862 130.345 116.943 130.345 118.276C130.345 119.609 131.425 120.69 132.759 120.69Z" fill="black" fill-opacity="0.7"/>
<path d="M45.862 125.517C47.1951 125.517 48.2758 124.436 48.2758 123.103C48.2758 121.77 47.1951 120.689 45.862 120.689C44.5289 120.689 43.4482 121.77 43.4482 123.103C43.4482 124.436 44.5289 125.517 45.862 125.517Z" fill="black" fill-opacity="0.7"/>
<path d="M50.6897 125.517C52.0228 125.517 53.1035 124.436 53.1035 123.103C53.1035 121.77 52.0228 120.689 50.6897 120.689C49.3566 120.689 48.2759 121.77 48.2759 123.103C48.2759 124.436 49.3566 125.517 50.6897 125.517Z" fill="black" fill-opacity="0.7"/>
<path d="M65.1726 125.517C66.5057 125.517 67.5864 124.436 67.5864 123.103C67.5864 121.77 66.5057 120.689 65.1726 120.689C63.8395 120.689 62.7588 121.77 62.7588 123.103C62.7588 124.436 63.8395 125.517 65.1726 125.517Z" fill="black" fill-opacity="0.7"/>
<path d="M79.655 125.517C80.9881 125.517 82.0688 124.436 82.0688 123.103C82.0688 121.77 80.9881 120.689 79.655 120.689C78.3219 120.689 77.2412 121.77 77.2412 123.103C77.2412 124.436 78.3219 125.517 79.655 125.517Z" fill="black" fill-opacity="0.7"/>
<path d="M113.448 125.517C114.782 125.517 115.862 124.436 115.862 123.103C115.862 121.77 114.782 120.689 113.448 120.689C112.115 120.689 111.035 121.77 111.035 123.103C111.035 124.436 112.115 125.517 113.448 125.517Z" fill="black" fill-opacity="0.7"/>
<path d="M123.103 125.517C124.436 125.517 125.517 124.436 125.517 123.103C125.517 121.77 124.436 120.689 123.103 120.689C121.77 120.689 120.689 121.77 120.689 123.103C120.689 124.436 121.77 125.517 123.103 125.517Z" fill="black" fill-opacity="0.7"/>
<path d="M127.931 125.517C129.264 125.517 130.345 124.436 130.345 123.103C130.345 121.77 129.264 120.689 127.931 120.689C126.598 120.689 125.517 121.77 125.517 123.103C125.517 124.436 126.598 125.517 127.931 125.517Z" fill="black" fill-opacity="0.7"/>
<path d="M132.759 125.517C134.092 125.517 135.172 124.436 135.172 123.103C135.172 121.77 134.092 120.689 132.759 120.689C131.425 120.689 130.345 121.77 130.345 123.103C130.345 124.436 131.425 125.517 132.759 125.517Z" fill="black" fill-opacity="0.7"/>
<path d="M45.862 130.345C47.1951 130.345 48.2758 129.264 48.2758 127.931C48.2758 126.598 47.1951 125.518 45.862 125.518C44.5289 125.518 43.4482 126.598 43.4482 127.931C43.4482 129.264 44.5289 130.345 45.862 130.345Z" fill="black" fill-opacity="0.7"/>
<path d="M60.3449 130.345C61.678 130.345 62.7587 129.264 62.7587 127.931C62.7587 126.598 61.678 125.518 60.3449 125.518C59.0118 125.518 57.9312 126.598 57.9312 127.931C57.9312 129.264 59.0118 130.345 60.3449 130.345Z" fill="black" fill-opacity="0.7"/>
<path d="M65.1726 130.345C66.5057 130.345 67.5864 129.264 67.5864 127.931C67.5864 126.598 66.5057 125.518 65.1726 125.518C63.8395 125.518 62.7588 126.598 62.7588 127.931C62.7588 129.264 63.8395 130.345 65.1726 130.345Z" fill="black" fill-opacity="0.7"/>
<path d="M70.0002 130.345C71.3333 130.345 72.414 129.264 72.414 127.931C72.414 126.598 71.3333 125.518 70.0002 125.518C68.6671 125.518 67.5864 126.598 67.5864 127.931C67.5864 129.264 68.6671 130.345 70.0002 130.345Z" fill="black" fill-opacity="0.7"/>
<path d="M79.655 130.345C80.9881 130.345 82.0688 129.264 82.0688 127.931C82.0688 126.598 80.9881 125.518 79.655 125.518C78.3219 125.518 77.2412 126.598 77.2412 127.931C77.2412 129.264 78.3219 130.345 79.655 130.345Z" fill="black" fill-opacity="0.7"/>
<path d="M89.3103 130.345C90.6434 130.345 91.7241 129.264 91.7241 127.931C91.7241 126.598 90.6434 125.518 89.3103 125.518C87.9772 125.518 86.8965 126.598 86.8965 127.931C86.8965 129.264 87.9772 130.345 89.3103 130.345Z" fill="black" fill-opacity="0.7"/>
<path d="M94.1379 130.345C95.471 130.345 96.5517 129.264 96.5517 127.931C96.5517 126.598 95.471 125.518 94.1379 125.518C92.8048 125.518 91.7241 126.598 91.7241 127.931C91.7241 129.264 92.8048 130.345 94.1379 130.345Z" fill="black" fill-opacity="0.7"/>
<path d="M98.9656 130.345C100.299 130.345 101.379 129.264 101.379 127.931C101.379 126.598 100.299 125.518 98.9656 125.518C97.6324 125.518 96.5518 126.598 96.5518 127.931C96.5518 129.264 97.6324 130.345 98.9656 130.345Z" fill="black" fill-opacity="0.7"/>
<path d="M103.793 130.345C105.126 130.345 106.207 129.264 106.207 127.931C106.207 126.598 105.126 125.518 103.793 125.518C102.46 125.518 101.379 126.598 101.379 127.931C101.379 129.264 102.46 130.345 103.793 130.345Z" fill="black" fill-opacity="0.7"/>
<path d="M123.103 130.345C124.436 130.345 125.517 129.264 125.517 127.931C125.517 126.598 124.436 125.518 123.103 125.518C121.77 125.518 120.689 126.598 120.689 127.931C120.689 129.264 121.77 130.345 123.103 130.345Z" fill="black" fill-opacity="0.7"/>
<path d="M127.931 130.345C129.264 130.345 130.345 129.264 130.345 127.931C130.345 126.598 129.264 125.518 127.931 125.518C126.598 125.518 125.517 126.598 125.517 127.931C125.517 129.264 126.598 130.345 127.931 130.345Z" fill="black" fill-opacity="0.7"/>
<path d="M132.759 130.345C134.092 130.345 135.172 129.264 135.172 127.931C135.172 126.598 134.092 125.518 132.759 125.518C131.425 125.518 130.345 126.598 130.345 127.931C130.345 129.264 131.425 130.345 132.759 130.345Z" fill="black" fill-opacity="0.7"/>
<path d="M137.586 130.345C138.919 130.345 140 129.264 140 127.931C140 126.598 138.919 125.518 137.586 125.518C136.253 125.518 135.172 126.598 135.172 127.931C135.172 129.264 136.253 130.345 137.586 130.345Z" fill="black" fill-opacity="0.7"/>
<path d="M41.0344 135.172C42.3675 135.172 43.4482 134.092 43.4482 132.759C43.4482 131.425 42.3675 130.345 41.0344 130.345C39.7013 130.345 38.6206 131.425 38.6206 132.759C38.6206 134.092 39.7013 135.172 41.0344 135.172Z" fill="black" fill-opacity="0.7"/>
<path d="M45.862 135.172C47.1951 135.172 48.2758 134.092 48.2758 132.759C48.2758 131.425 47.1951 130.345 45.862 130.345C44.5289 130.345 43.4482 131.425 43.4482 132.759C43.4482 134.092 44.5289 135.172 45.862 135.172Z" fill="black" fill-opacity="0.7"/>
<path d="M55.5173 135.172C56.8504 135.172 57.9311 134.092 57.9311 132.759C57.9311 131.425 56.8504 130.345 55.5173 130.345C54.1842 130.345 53.1035 131.425 53.1035 132.759C53.1035 134.092 54.1842 135.172 55.5173 135.172Z" fill="black" fill-opacity="0.7"/>
<path d="M70.0002 135.172C71.3333 135.172 72.414 134.092 72.414 132.759C72.414 131.425 71.3333 130.345 70.0002 130.345C68.6671 130.345 67.5864 131.425 67.5864 132.759C67.5864 134.092 68.6671 135.172 70.0002 135.172Z" fill="black" fill-opacity="0.7"/>
<path d="M84.4826 135.172C85.8157 135.172 86.8964 134.092 86.8964 132.759C86.8964 131.425 85.8157 130.345 84.4826 130.345C83.1495 130.345 82.0688 131.425 82.0688 132.759C82.0688 134.092 83.1495 135.172 84.4826 135.172Z" fill="black" fill-opacity="0.7"/>
<path d="M94.1379 135.172C95.471 135.172 96.5517 134.092 96.5517 132.759C96.5517 131.425 95.471 130.345 94.1379 130.345C92.8048 130.345 91.7241 131.425 91.7241 132.759C91.7241 134.092 92.8048 135.172 94.1379 135.172Z" fill="black" fill-opacity="0.7"/>
<path d="M103.793 135.172C105.126 135.172 106.207 134.092 106.207 132.759C106.207 131.425 105.126 130.345 103.793 130.345C102.46 130.345 101.379 131.425 101.379 132.759C101.379 134.092 102.46 135.172 103.793 135.172Z" fill="black" fill-opacity="0.7"/>
<path d="M108.621 135.172C109.954 135.172 111.035 134.092 111.035 132.759C111.035 131.425 109.954 130.345 108.621 130.345C107.288 130.345 106.207 131.425 106.207 132.759C106.207 134.092 107.288 135.172 108.621 135.172Z" fill="black" fill-opacity="0.7"/>
<path d="M113.448 135.172C114.782 135.172 115.862 134.092 115.862 132.759C115.862 131.425 114.782 130.345 113.448 130.345C112.115 130.345 111.035 131.425 111.035 132.759C111.035 134.092 112.115 135.172 113.448 135.172Z" fill="black" fill-opacity="0.7"/>
<path d="M132.759 135.172C134.092 135.172 135.172 134.092 135.172 132.759C135.172 131.425 134.092 130.345 132.759 130.345C131.425 130.345 130.345 131.425 130.345 132.759C130.345 134.092 131.425 135.172 132.759 135.172Z" fill="black" fill-opacity="0.7"/>
<path d="M137.586 135.172C138.919 135.172 140 134.092 140 132.759C140 131.425 138.919 130.345 137.586 130.345C136.253 130.345 135.172 131.425 135.172 132.759C135.172 134.092 136.253 135.172 137.586 135.172Z" fill="black" fill-opacity="0.7"/>
<path d="M50.6897 140C52.0228 140 53.1035 138.92 53.1035 137.587C53.1035 136.254 52.0228 135.173 50.6897 135.173C49.3566 135.173 48.2759 136.254 48.2759 137.587C48.2759 138.92 49.3566 140 50.6897 140Z" fill="black" fill-opacity="0.7"/>
<path d="M60.3449 140C61.678 140 62.7587 138.92 62.7587 137.587C62.7587 136.254 61.678 135.173 60.3449 135.173C59.0118 135.173 57.9312 136.254 57.9312 137.587C57.9312 138.92 59.0118 140 60.3449 140Z" fill="black" fill-opacity="0.7"/>
<path d="M65.1726 140C66.5057 140 67.5864 138.92 67.5864 137.587C67.5864 136.254 66.5057 135.173 65.1726 135.173C63.8395 135.173 62.7588 136.254 62.7588 137.587C62.7588 138.92 63.8395 140 65.1726 140Z" fill="black" fill-opacity="0.7"/>
<path d="M69.9997 140C71.3328 140 72.4135 138.92 72.4135 137.587C72.4135 136.254 71.3328 135.173 69.9997 135.173C68.6666 135.173 67.5859 136.254 67.5859 137.587C67.5859 138.92 68.6666 140 69.9997 140Z" fill="black" fill-opacity="0.7"/>
<path d="M74.8279 140C76.161 140 77.2416 138.92 77.2416 137.587C77.2416 136.254 76.161 135.173 74.8279 135.173C73.4948 135.173 72.4141 136.254 72.4141 137.587C72.4141 138.92 73.4948 140 74.8279 140Z" fill="black" fill-opacity="0.7"/>
<path d="M84.4826 140C85.8157 140 86.8964 138.92 86.8964 137.587C86.8964 136.254 85.8157 135.173 84.4826 135.173C83.1495 135.173 82.0688 136.254 82.0688 137.587C82.0688 138.92 83.1495 140 84.4826 140Z" fill="black" fill-opacity="0.7"/>
<path d="M94.1379 140C95.471 140 96.5517 138.92 96.5517 137.587C96.5517 136.254 95.471 135.173 94.1379 135.173C92.8048 135.173 91.7241 136.254 91.7241 137.587C91.7241 138.92 92.8048 140 94.1379 140Z" fill="black" fill-opacity="0.7"/>
<path d="M98.9656 140C100.299 140 101.379 138.92 101.379 137.587C101.379 136.254 100.299 135.173 98.9656 135.173C97.6324 135.173 96.5518 136.254 96.5518 137.587C96.5518 138.92 97.6324 140 98.9656 140Z" fill="black" fill-opacity="0.7"/>
<path d="M103.793 140C105.126 140 106.207 138.92 106.207 137.587C106.207 136.254 105.126 135.173 103.793 135.173C102.46 135.173 101.379 136.254 101.379 137.587C101.379 138.92 102.46 140 103.793 140Z" fill="black" fill-opacity="0.7"/>
<path d="M118.276 140C119.609 140 120.69 138.92 120.69 137.587C120.69 136.254 119.609 135.173 118.276 135.173C116.943 135.173 115.862 136.254 115.862 137.587C115.862 138.92 116.943 140 118.276 140Z" fill="black" fill-opacity="0.7"/>
<path d="M132.759 140C134.092 140 135.172 138.92 135.172 137.587C135.172 136.254 134.092 135.173 132.759 135.173C131.425 135.173 130.345 136.254 130.345 137.587C130.345 138.92 131.425 140 132.759 140Z" fill="black" fill-opacity="0.7"/>
</svg>
